<svg width="92" height="163" viewBox="0 0 92 163" fill="none" xmlns="http://www.w3.org/2000/svg">
<g clip-path="url(#clip0_496_1211)">
<path d="M33.8668 147.468C33.463 147.457 33.0598 147.504 32.669 147.606L31.6629 147.93C31.2035 148.091 30.7272 148.198 30.2435 148.249C29.7308 148.317 29.2242 148.426 28.7284 148.573C28.5666 148.63 28.3967 148.661 28.2253 148.664C28.0537 148.67 27.8841 148.702 27.7223 148.76C27.4168 148.82 27.0815 148.898 26.7161 148.988C26.321 149.084 25.9212 149.16 25.5184 149.216C25.094 149.277 24.6645 149.293 24.2368 149.264C23.8093 149.233 23.3797 149.247 22.9552 149.306C22.524 149.373 22.0988 149.445 21.6736 149.541C21.2484 149.637 20.7872 149.709 20.2961 149.769C19.9474 149.829 19.5909 149.829 19.2421 149.769C18.8337 149.708 18.4213 149.678 18.0084 149.679C17.6529 149.683 17.2991 149.73 16.9544 149.817C16.6062 149.907 16.239 149.891 15.9004 149.769C15.2176 149.673 14.5444 149.518 13.8881 149.306C13.2538 149.088 12.6404 148.813 12.0556 148.483C11.8699 148.357 11.6423 148.219 11.3668 148.069C10.8409 147.644 10.3912 147.132 10.0373 146.555C9.72908 146.184 9.52266 145.738 9.43845 145.263C9.39432 144.951 9.31805 144.645 9.21087 144.349C9.08498 143.881 9.08498 143.388 9.21087 142.919C9.26597 142.605 9.39083 142.307 9.57619 142.048C9.76003 141.825 9.99684 141.651 10.2649 141.543C10.3988 141.514 10.5352 141.498 10.6721 141.495C11.0201 141.434 11.3745 141.42 11.7262 141.453C12.0974 141.476 12.4583 141.585 12.7802 141.772C13.2713 142.018 13.6665 142.204 13.978 142.325C14.4066 142.477 14.8539 142.57 15.3075 142.601C15.722 142.636 16.1339 142.696 16.5412 142.781C17.1653 142.854 17.7934 142.886 18.4217 142.877C19.0797 142.884 19.7376 142.851 20.392 142.781L21.3981 142.691C21.6625 142.679 21.9242 142.633 22.1766 142.553C22.4507 142.487 22.7133 142.38 22.9552 142.234C22.4183 141.718 21.9548 141.129 21.5778 140.486C21.425 140.201 21.2149 139.952 20.9609 139.753C20.5705 139.392 20.2586 138.954 20.0446 138.467C19.8714 138.061 19.7195 137.645 19.5895 137.223C19.5051 136.918 19.3824 136.626 19.2241 136.352C18.5357 135.481 18.119 134.425 18.0264 133.318C17.9665 133.011 17.9006 132.645 17.8407 132.218C17.7809 131.792 17.7509 131.545 17.7509 131.479C17.7528 131.234 17.7688 130.989 17.7988 130.746C17.8288 130.44 17.8407 130.145 17.8407 129.917C17.8401 129.78 17.8261 129.643 17.7988 129.508C17.7669 129.372 17.7508 129.233 17.7509 129.094V127.159C17.7433 126.804 17.6971 126.452 17.6132 126.107C17.5214 125.699 17.4752 125.282 17.4754 124.864C17.4866 124.628 17.5331 124.395 17.6132 124.173C17.7012 123.905 17.8094 123.643 17.9366 123.392C18.0177 123.084 18.1938 122.811 18.4396 122.61C18.6576 122.455 18.8879 122.319 19.1283 122.202C19.1775 122.144 19.2412 122.101 19.3129 122.076C19.3846 122.052 19.4616 122.048 19.5356 122.064C19.7046 122.092 19.8779 122.075 20.0386 122.016L20.4099 121.829C20.5526 121.764 20.7085 121.733 20.8651 121.739C21.1255 121.744 21.3858 121.728 21.6436 121.691C21.842 121.663 22.0422 121.649 22.2425 121.649C22.3969 121.651 22.5493 121.685 22.6903 121.748C22.8314 121.811 22.9582 121.902 23.063 122.016C23.2934 122.247 23.5395 122.462 23.7996 122.659C23.9818 122.785 24.1844 122.878 24.3985 122.935C24.6141 122.995 24.8117 123.241 24.9974 123.668C25.1698 123.886 25.2961 124.138 25.3687 124.407C25.4884 124.774 25.6082 125.14 25.734 125.507C25.8315 125.726 25.9175 125.951 25.9915 126.18C26.0584 126.42 26.0887 126.669 26.0813 126.919C26.0777 127.154 26.1247 127.388 26.2191 127.604C26.304 127.793 26.3508 127.997 26.3568 128.204C26.3602 128.481 26.3903 128.757 26.4466 129.028C26.5059 129.33 26.536 129.638 26.5365 129.947C26.5365 130.44 26.5365 130.914 26.4946 131.371C26.4526 131.828 26.4466 132.308 26.4466 132.795C26.4464 133.072 26.4624 133.349 26.4946 133.624C26.5072 133.884 26.5855 134.136 26.7221 134.357C26.8397 134.601 26.9011 134.868 26.9018 135.138C26.9259 135.505 27.0194 135.864 27.1773 136.196C27.2528 136.359 27.3149 136.527 27.3629 136.7C27.4073 136.877 27.4695 137.048 27.5486 137.211C27.7151 137.486 27.8516 137.778 27.9558 138.082C28.0162 138.305 28.1269 138.511 28.2792 138.683L29.477 139.885C29.7452 140.283 30.0867 140.625 30.4831 140.894C30.6516 140.9 30.8196 140.916 30.9862 140.943C31.1845 140.972 31.3846 140.988 31.585 140.991L32.8726 140.894C33.4986 140.827 34.1312 140.86 34.7471 140.991C35.4285 141.113 36.1259 141.113 36.8073 140.991C37.0165 140.934 37.2315 140.902 37.4481 140.894C37.6645 140.89 37.8797 140.86 38.0889 140.804C38.5201 140.804 39.101 140.774 39.8316 140.714C40.3789 140.652 40.9313 140.652 41.4785 140.714C41.8439 140.714 42.2152 140.714 42.5805 140.756C42.9458 140.798 43.3111 140.804 43.6764 140.804C43.8453 140.804 44.0138 140.82 44.1795 140.852C44.3505 140.88 44.5257 140.864 44.6885 140.804C44.8711 140.801 45.0532 140.785 45.2335 140.756C45.4461 140.729 45.6601 140.715 45.8743 140.714H46.5151C46.7225 140.649 46.9386 140.617 47.1559 140.618H47.7548C47.9583 140.617 48.1606 140.65 48.3537 140.714L49.0903 140.804H49.821C50.0665 140.804 50.4618 140.804 51.0187 140.894C51.5757 140.985 51.9949 141.021 52.3003 141.081L52.5758 141.261L51.4739 141.357L51.1984 141.814L51.0187 142C50.8752 142.01 50.7319 141.979 50.6055 141.91C50.5409 141.879 50.4703 141.864 50.3989 141.864C50.3274 141.864 50.2569 141.879 50.1923 141.91C50.1042 141.966 50.0054 142.003 49.9023 142.018C49.7992 142.034 49.694 142.028 49.5934 142C49.5285 141.97 49.4581 141.955 49.3868 141.955C49.3155 141.955 49.245 141.97 49.1802 142C48.9081 141.938 48.6257 141.938 48.3537 142C48.174 142.06 47.9584 142.12 47.7129 142.18C47.3449 142.163 46.9764 142.196 46.6169 142.276H45.8384C45.6825 142.28 45.5343 142.345 45.4252 142.457L45.7905 142.553H46.3415C46.5595 142.568 46.7783 142.536 46.9823 142.457H47.7907C47.9624 142.531 48.1491 142.564 48.3357 142.553V142.733L48.2459 142.823L47.8806 142.919H47.3116L46.2157 143.1L46.3954 143.286L46.4852 143.562L46.2157 143.652L46.4852 143.929H46.9463C47.0763 143.872 47.2201 143.856 47.3596 143.881C47.6495 143.91 47.9422 143.896 48.2279 143.839C48.3217 143.833 48.4156 143.847 48.5034 143.881C48.7176 143.91 48.9357 143.896 49.1442 143.839C49.1442 143.899 49.264 143.929 49.5095 143.929C49.5767 143.868 49.6594 143.828 49.7483 143.812C49.8372 143.796 49.9287 143.805 50.0126 143.839C50.4579 143.889 50.9086 143.856 51.3421 143.743L51.4319 143.652H52.1686L52.6237 143.743L52.444 144.019C52.1786 144.052 51.9175 144.115 51.6655 144.205C51.5278 144.266 51.3789 144.298 51.2283 144.298C51.0777 144.298 50.9288 144.266 50.7911 144.205C50.6685 144.214 50.5466 144.23 50.4258 144.253C50.2929 144.261 50.1656 144.309 50.0605 144.391L49.785 144.572V144.806L49.8749 144.896C49.9558 144.887 50.0376 144.904 50.1084 144.944C50.1084 144.974 50.2102 144.944 50.336 144.896C50.5048 144.904 50.6739 144.89 50.8391 144.854C51.0036 144.814 51.173 144.798 51.3421 144.806H52.1686V144.896L52.0727 145.082L51.8931 145.359H51.8032V145.173L51.2523 145.449L51.1565 145.635H50.6115V145.449H50.5157C50.3886 145.447 50.2637 145.416 50.1503 145.359C50.0939 145.329 50.0313 145.314 49.9677 145.314C49.9041 145.314 49.8414 145.329 49.785 145.359L49.3299 145.449L48.7789 145.539H47.7907L47.6949 145.815C47.5797 145.938 47.4384 146.032 47.2817 146.092C47.2179 146.121 47.1484 146.137 47.0781 146.137C47.0078 146.137 46.9383 146.121 46.8745 146.092C46.6888 146.152 46.4912 146.23 46.2756 146.32C46.1187 146.399 45.9477 146.446 45.7725 146.458C45.5173 146.525 45.2492 146.525 44.994 146.458C44.7734 146.398 44.5458 146.368 44.3172 146.368C43.9855 146.431 43.6486 146.461 43.3111 146.458C42.9438 146.461 42.5773 146.493 42.2152 146.555C42.0307 146.553 41.8464 146.567 41.6642 146.597C41.4821 146.627 41.2979 146.644 41.1132 146.645C40.8078 146.645 40.5144 146.645 40.1969 146.687C39.8795 146.729 39.5981 146.765 39.2807 146.825C38.8439 146.92 38.398 146.966 37.9511 146.963C37.3461 146.982 36.7443 147.061 36.1545 147.197L34.5076 147.468H33.8668ZM16.7388 109.614C16.8586 109.247 16.9664 108.899 17.0562 108.556C17.1469 108.23 17.2548 107.91 17.3796 107.595C17.4994 107.289 17.685 106.862 17.9306 106.309C18.1138 105.865 18.3258 105.434 18.5654 105.017C18.9307 104.417 19.2661 103.882 19.5715 103.455C19.7699 103.086 20.0155 102.745 20.3021 102.44C20.5244 102.145 20.7708 101.87 21.0388 101.617C21.1087 101.554 21.1956 101.514 21.2884 101.501C21.3811 101.488 21.4756 101.503 21.5598 101.544C21.7534 101.607 21.9553 101.639 22.1587 101.641C22.357 101.637 22.5495 101.572 22.7096 101.454C22.8055 101.393 22.9166 101.361 23.03 101.361C23.1435 101.361 23.2546 101.393 23.3504 101.454C23.752 101.56 24.1272 101.748 24.4524 102.007L24.632 102.284C24.7979 102.757 24.9065 103.25 24.9554 103.75C24.969 104.259 24.858 104.765 24.632 105.222C24.4996 105.614 24.3142 105.986 24.0811 106.327C23.8415 106.694 23.596 107.09 23.3504 107.529L22.7575 108.965C22.5568 109.556 22.4953 110.185 22.5779 110.804C22.5656 111.102 22.6477 111.396 22.8123 111.644C22.9769 111.892 23.2156 112.082 23.4942 112.186C23.701 112.253 23.9212 112.267 24.135 112.228C24.3831 112.21 24.6283 112.164 24.8656 112.089L26.4227 111.813L27.339 111.633L28.1654 111.266L28.9859 110.99C29.3757 110.838 29.776 110.716 30.1837 110.623C30.6312 110.504 31.092 110.441 31.5551 110.437C31.904 110.427 32.2476 110.35 32.5672 110.209C32.8905 110.066 33.2277 109.957 33.5733 109.884L34.304 109.794C34.6094 109.734 34.8669 109.686 35.0825 109.656C35.3406 109.622 35.6007 109.606 35.861 109.608H37.0588C37.4654 109.606 37.8697 109.669 38.2566 109.794C38.4667 109.871 38.6556 109.996 38.8075 110.161C38.9388 110.306 39.0925 110.43 39.2627 110.527C39.4705 110.589 39.6889 110.605 39.9035 110.575C40.098 110.549 40.2952 110.598 40.4545 110.714C40.6257 110.812 40.7812 110.935 40.9156 111.08C41.2577 111.233 41.5668 111.452 41.8259 111.723C41.9636 111.889 42.0672 112.08 42.131 112.287C42.1947 112.493 42.2172 112.71 42.1972 112.925C42.1941 113.117 42.147 113.306 42.0595 113.477C41.9636 113.658 41.8858 113.814 41.8259 113.934C41.7782 114.019 41.7476 114.113 41.7361 114.21C41.7319 114.282 41.6996 114.349 41.6462 114.397C41.5256 114.633 41.3701 114.85 41.1851 115.04C41.173 115.215 41.1262 115.387 41.0474 115.544C40.9575 115.761 40.8797 115.929 40.8198 116.049C40.74 116.258 40.5951 116.435 40.4066 116.554C40.1949 116.71 39.9953 116.848 39.8077 116.968C39.4424 117.149 39.107 117.305 38.8016 117.425C38.3539 117.588 37.893 117.713 37.4241 117.798C37.1851 117.857 36.9398 117.887 36.6935 117.888C36.4472 117.887 36.2018 117.918 35.9629 117.978C35.5916 118.038 35.2442 118.086 34.9088 118.116C34.55 118.152 34.1965 118.229 33.8548 118.344C33.1242 118.531 32.4953 118.681 31.9743 118.807L30.4651 119.174L29.5488 119.354C29.2178 119.421 28.8805 119.454 28.5427 119.45H27.6384C27.1125 119.574 26.5737 119.635 26.0334 119.63C25.4673 119.631 24.9015 119.601 24.3386 119.54C23.9218 119.524 23.508 119.461 23.1049 119.354L22.1587 118.969C21.9371 118.889 21.705 118.843 21.47 118.831C21.2361 118.826 21.005 118.779 20.7872 118.693C20.5005 118.581 20.2239 118.444 19.9608 118.284C19.7244 118.134 19.4805 117.995 19.2301 117.87C18.9456 117.699 18.6698 117.515 18.4037 117.317C18.1612 117.134 17.9455 116.917 17.7629 116.674C17.4247 116.321 17.1456 115.915 16.9364 115.472C16.7568 114.739 16.6011 114.204 16.4813 113.862C16.3292 113.311 16.2665 112.739 16.2956 112.168C16.3104 111.72 16.3564 111.275 16.4334 110.834C16.4892 110.412 16.602 109.999 16.7687 109.608L16.7388 109.614ZM34.7052 88.4819C34.926 88.5359 35.1407 88.6124 35.346 88.7102C35.546 88.8056 35.7654 88.8529 35.9868 88.8484C36.2378 88.8358 36.4882 88.8831 36.7174 88.9866C36.8859 89.0663 37.0398 89.174 37.1726 89.305C37.422 89.4429 37.6402 89.6311 37.8134 89.8578C37.8916 89.9629 37.9259 90.0943 37.9092 90.2243C37.9041 90.3834 37.9348 90.5415 37.9991 90.687C38.092 90.8151 38.1684 90.9544 38.2266 91.1016L38.3644 91.5102C38.4243 91.8763 38.4243 92.2497 38.3644 92.6157C38.1873 93.007 37.9748 93.3811 37.7296 93.7333C37.6756 93.789 37.6292 93.8516 37.5918 93.9196C37.5559 93.9885 37.5094 94.0514 37.4541 94.1059C37.3465 94.1914 37.2219 94.2528 37.0888 94.2861C36.9329 94.3376 36.7808 94.3998 36.6336 94.4724L36.2204 94.887C36.0988 95.0127 35.9596 95.12 35.8071 95.2054L34.4357 95.7582L33.3338 96.0346L30.8604 96.8578L29.5788 97.4106C29.3445 97.5046 29.0988 97.5672 28.8482 97.5968C28.6906 97.6466 28.5366 97.7068 28.387 97.7771L28.0217 97.9634C27.8597 98.0193 27.69 98.0497 27.5186 98.0535C27.3619 98.0589 27.2135 98.1258 27.1054 98.2398C26.9427 98.3291 26.7901 98.4358 26.6503 98.5582C26.4246 98.7637 26.1598 98.9211 25.8717 99.0209C25.7605 99.0584 25.6524 99.1046 25.5483 99.1591C25.3427 99.2473 25.1189 99.2846 24.8958 99.2678C24.6728 99.2511 24.457 99.1808 24.2667 99.0629C24.1533 99.0055 24.0284 98.9747 23.9014 98.9728C23.7742 98.9722 23.649 98.9413 23.5361 98.8827C23.3618 98.7772 23.2303 98.6134 23.1648 98.42C23.11 98.2495 23.0179 98.0935 22.8953 97.9634C22.696 97.786 22.5385 97.5664 22.4341 97.3204L22.2545 96.7677C22.181 96.5569 22.119 96.3423 22.0688 96.1247C22.0713 96.012 22.04 95.9011 21.979 95.8063C21.9137 95.711 21.8801 95.5974 21.8832 95.4818C21.9022 95.0184 21.9644 94.5577 22.0688 94.1059C22.1512 93.9511 22.2585 93.8111 22.3862 93.6913C22.5419 93.5351 22.6497 93.4329 22.7096 93.3668C22.8953 93.1866 23.1229 92.9703 23.3983 92.7239C23.6445 92.5219 23.8481 92.2727 23.9972 91.9909C24.3105 91.6757 24.6468 91.3844 25.0033 91.1196C25.3377 90.8637 25.7094 90.661 26.1053 90.5188C26.3495 90.3977 26.613 90.3204 26.8838 90.2904C27.1821 90.2532 27.4741 90.1764 27.7522 90.0621C27.8719 90.002 27.9811 89.9229 28.0756 89.8278C28.1682 89.7348 28.2755 89.6576 28.393 89.5995C28.6984 89.4793 28.956 89.3892 29.1716 89.3231C29.4363 89.2464 29.6962 89.1541 29.9501 89.0467C29.9976 88.9931 30.0644 88.9607 30.1358 88.9565C30.2326 88.9449 30.3262 88.9143 30.4112 88.8664C30.64 88.7489 30.8871 88.6717 31.1419 88.6381C31.388 88.6071 31.632 88.561 31.8725 88.4999C32.1117 88.4304 32.3601 88.398 32.6091 88.4038C32.9408 88.3413 33.2778 88.3111 33.6152 88.3136C33.7542 88.3168 33.8925 88.3329 34.0285 88.3617L34.6274 88.4999L34.7052 88.4819ZM43.7603 154.366C43.6921 154.635 43.6599 154.911 43.6645 155.189C43.6767 155.447 43.6143 155.704 43.4848 155.928C43.469 156.038 43.4367 156.146 43.389 156.246C43.3414 156.349 43.3111 156.458 43.2991 156.571C43.1909 156.718 43.1284 156.893 43.1195 157.076C43.119 157.219 43.0863 157.361 43.0237 157.49C42.8921 157.77 42.7045 158.019 42.4727 158.223C42.1597 158.721 41.7921 159.183 41.3767 159.599C40.8736 160.163 40.2372 160.59 39.5262 160.843C38.7656 161.119 38.047 161.408 37.3762 161.714C37.0476 161.886 36.6903 161.996 36.3222 162.039C35.993 162.065 35.6697 162.142 35.364 162.267C35.0294 162.372 34.7064 162.511 34.3998 162.681C34.1549 162.821 33.8933 162.928 33.6212 163C33.1767 162.995 32.7329 162.965 32.2917 162.91C31.829 162.875 31.3929 162.679 31.058 162.357C30.8125 162.111 30.5969 161.912 30.4172 161.756C30.2102 161.567 30.052 161.329 29.9561 161.065C29.8892 160.906 29.8585 160.733 29.8663 160.56C29.8746 160.388 29.8439 160.215 29.7764 160.056C29.7009 159.786 29.6686 159.506 29.6806 159.227V158.95C29.7462 158.152 30.0324 157.389 30.5071 156.745C30.625 156.567 30.733 156.382 30.8305 156.192C30.9227 156.002 31.0288 155.82 31.1479 155.645C31.4533 155.153 31.8066 154.648 32.2019 154.125C32.5845 153.619 33.0678 153.197 33.6212 152.888C33.4519 152.789 33.2645 152.726 33.0703 152.701C32.8906 152.641 32.7828 152.473 32.7529 152.197C32.7269 152.075 32.7445 151.948 32.8025 151.838C32.8606 151.728 32.9554 151.642 33.0703 151.596C33.196 151.536 33.3278 151.47 33.4835 151.409L33.8967 151.229C34.1772 151.068 34.4906 150.974 34.813 150.953H35.4538C35.5512 150.898 35.6596 150.865 35.7712 150.857C35.9126 150.847 36.0519 150.817 36.1844 150.767C36.7318 150.706 37.284 150.706 37.8314 150.767L39.4843 151.229C39.7093 151.287 39.9406 151.317 40.173 151.319C40.4033 151.322 40.6325 151.352 40.8557 151.409C41.1611 151.47 41.4546 151.536 41.6822 151.596C41.9097 151.656 42.1972 151.716 42.5026 151.776C42.8081 151.836 43.2093 152.209 43.5147 152.882C43.6838 153.358 43.767 153.86 43.7603 154.366ZM38.538 157.67C38.6357 157.617 38.7442 157.586 38.8554 157.58C39.0077 157.558 39.1507 157.493 39.2687 157.394C39.3617 157.36 39.4414 157.296 39.4963 157.214C39.5514 157.127 39.6335 157.062 39.7298 157.027L40.0053 156.751C40.0652 156.691 40.0652 156.571 40.0053 156.385C39.9674 156.292 39.9028 156.212 39.8196 156.156C39.7179 156.093 39.6252 156.016 39.5442 155.928C39.503 155.872 39.4467 155.829 39.3818 155.805C39.317 155.78 39.2465 155.775 39.1788 155.79C39.1112 155.802 39.0416 155.795 38.9773 155.771C38.9131 155.746 38.8565 155.705 38.8135 155.651L38.2626 155.189L37.6218 154.822L37.0708 154.636C36.6189 154.366 36.1217 154.181 35.6035 154.089C35.4248 154.265 35.2983 154.488 35.2382 154.732C35.1826 154.942 35.1524 155.158 35.1484 155.375C35.1435 155.592 35.1134 155.808 35.0585 156.018C34.9892 156.16 34.9563 156.317 34.9627 156.475C34.9626 156.663 34.9323 156.849 34.8729 157.027C34.8685 157.183 34.8525 157.337 34.825 157.49C34.7962 157.671 34.7821 157.854 34.7831 158.037V158.776C34.7831 159.016 34.9328 159.142 35.2382 159.142C35.5041 159.011 35.7806 158.903 36.0647 158.818C36.3485 158.735 36.625 158.629 36.8911 158.5C36.9994 158.382 37.142 158.302 37.2984 158.271C37.4796 158.226 37.6504 158.147 37.8014 158.037C37.8975 157.958 38.0071 157.897 38.1248 157.857L38.538 157.67ZM45.0419 144.163C45.1362 144.169 45.2306 144.153 45.3174 144.115C45.3773 144.115 45.4671 144.115 45.5929 144.163C45.6198 144.14 45.6417 144.111 45.6572 144.079C45.6726 144.047 45.6813 144.012 45.6827 143.977C45.6943 143.88 45.7248 143.786 45.7725 143.7C45.7102 143.701 45.6486 143.686 45.5929 143.658C45.5054 143.623 45.4115 143.607 45.3174 143.61H44.8562L44.3053 143.7C44.1364 143.7 43.968 143.717 43.8022 143.749C43.6333 143.779 43.4593 143.762 43.2991 143.7V144.073H43.389C43.4533 144.073 43.5168 144.087 43.5746 144.115C43.8469 144.167 44.1247 144.183 44.4011 144.163H45.0419ZM44.0358 145.539C44.0957 145.479 44.1256 145.467 44.1256 145.497C44.1256 145.527 44.1256 145.497 44.2154 145.449L44.0358 145.173H43.5746C43.5271 145.226 43.4603 145.259 43.389 145.263V145.449L43.5746 145.635L44.0358 145.539ZM43.6645 142.601H44.2154C44.213 142.536 44.1967 142.473 44.1675 142.415C44.1396 142.359 44.1252 142.297 44.1256 142.234L43.7603 142.325H43.6645V142.601ZM45.6827 145.449C45.7426 145.449 45.7546 145.401 45.7246 145.311C45.7092 145.272 45.7056 145.23 45.7141 145.189C45.7226 145.149 45.743 145.111 45.7725 145.082L45.2215 144.896L44.9461 144.992H44.4909L44.8562 145.449H45.6827ZM44.5807 142.325V142.691L44.9461 142.601L45.1317 142.325H44.5807ZM48.9765 145.082V144.716H48.6112C48.2732 144.726 47.9352 144.694 47.6051 144.62L47.144 144.716L46.4133 144.896L46.1378 144.992V145.173L46.2337 145.359L47.144 145.263C47.376 145.257 47.6069 145.227 47.8327 145.173C48.0585 145.119 48.2893 145.088 48.5214 145.082H48.9765ZM46.7128 143.604L46.8984 143.238H47.1679L47.3536 143.424L47.0781 143.604H46.7128ZM48.4555 143.238C48.5089 143.285 48.5412 143.352 48.5453 143.424C48.4223 143.423 48.2996 143.437 48.18 143.466C48.0606 143.496 47.9379 143.513 47.8147 143.514C47.8746 143.454 47.9045 143.406 47.9045 143.376C47.9045 143.346 47.9045 143.298 47.9944 143.238H48.4555ZM48.18 145.809H48.6352L49.1861 145.719L49.4616 145.809L49.7371 146.086H48.0602L48.18 145.809ZM48.8208 142.775L48.5453 142.505H49.0005V142.775H48.8208ZM49.0005 143.238L49.3718 143.148L49.5515 143.328C49.6038 143.376 49.6359 143.443 49.6413 143.514H48.7969L49.0005 143.238ZM49.5515 142.685C49.5399 142.588 49.5094 142.494 49.4616 142.409L49.8269 142.318H50.6534L50.7432 142.505L50.5576 142.595L50.1923 142.685H49.5515ZM49.7371 145.809C49.7092 145.788 49.6862 145.761 49.6697 145.73C49.6532 145.699 49.6435 145.664 49.6413 145.629H49.9168C50.0147 145.619 50.1089 145.586 50.1923 145.533L49.7371 145.809ZM50.6534 143.052L50.3779 143.328L50.1923 143.238L49.7371 143.148V143.052L49.9168 142.871H50.7432L50.6534 143.052ZM50.3779 144.614C50.4472 144.534 50.5316 144.469 50.6262 144.423C50.7208 144.376 50.8237 144.349 50.9289 144.343V144.524L50.5576 144.71L50.3779 144.614ZM50.6534 143.514C50.6679 143.423 50.7173 143.341 50.7911 143.286L51.0187 143.052V143.514H50.6534ZM51.2942 142.595L50.9289 142.685V142.318H51.384L51.2942 142.595ZM51.4739 143.328H51.1984C51.1953 143.214 51.2289 143.103 51.2942 143.009C51.3541 142.913 51.384 142.901 51.384 142.961L51.4739 143.328ZM51.935 144.247C51.9949 144.247 52.0248 144.247 52.0248 144.343V144.524H51.2702V144.343L51.935 144.247ZM51.935 141.585L52.2105 141.862L52.1147 142.132L51.935 142.042L51.6595 141.952L51.4739 142.042L51.5697 141.676L51.7494 141.585H51.935ZM52.2105 142.409C52.322 142.472 52.4478 142.505 52.5758 142.505V142.595L52.486 142.685H52.0248C51.8683 142.69 51.7126 142.659 51.5697 142.595V142.505L51.7494 142.318H51.8452L52.2105 142.409ZM51.5697 143.328V143.148C51.6895 143.148 51.7494 143.148 51.7494 143.1C51.7494 143.052 51.7493 143.052 51.8452 143.052V143.424H51.7494L51.5697 143.328ZM52.1147 143.328L52.0248 143.052L52.1147 142.961H52.3003L52.1147 143.328ZM52.3003 144.157L52.6656 144.343H52.2105L52.3003 144.157ZM52.3003 144.71H52.6656V145.167C52.5459 145.167 52.486 145.167 52.486 145.215C52.486 145.263 52.4201 145.215 52.3003 145.167V144.71ZM52.6656 142.042C52.5854 141.973 52.5198 141.888 52.4725 141.794C52.4252 141.699 52.3972 141.595 52.3902 141.489C52.4615 141.485 52.5283 141.453 52.5758 141.399L52.8513 141.862L52.6656 142.042ZM52.3902 143.328V143.052L52.486 142.871L52.7555 142.961V143.052L52.5758 143.238L52.3902 143.328ZM53.031 145.076L52.8513 145.167V144.71H53.1268L53.031 145.076ZM52.9411 142.673C53.0609 142.553 53.1088 142.475 53.0789 142.445C53.0489 142.415 53.1867 142.397 53.4921 142.397L53.2166 142.673H52.9411ZM52.9411 142.949H53.1268V143.412H52.9411V142.949ZM53.1268 143.779L53.2166 143.869C53.2145 143.881 53.2154 143.894 53.2192 143.906C53.2229 143.917 53.2295 143.928 53.2383 143.937C53.2471 143.946 53.2579 143.952 53.2697 143.956C53.2816 143.96 53.2942 143.961 53.3064 143.959L52.9411 144.055L53.1268 143.779ZM52.9411 144.235H53.2166C53.2145 144.223 53.2154 144.21 53.2192 144.198C53.2229 144.187 53.2295 144.176 53.2383 144.167C53.2471 144.158 53.2579 144.151 53.2697 144.148C53.2816 144.144 53.2942 144.143 53.3064 144.145L53.6718 144.235V144.331L53.5819 144.512C53.5368 144.479 53.4843 144.457 53.4291 144.449C53.3738 144.44 53.3174 144.445 53.2645 144.464C53.2114 144.484 53.154 144.491 53.0975 144.484C53.041 144.476 52.9872 144.455 52.9411 144.421V144.235ZM53.6478 141.802L53.007 141.898V141.435L53.4681 141.622L53.6478 141.802ZM53.3723 144.746C53.4981 144.746 53.558 144.776 53.558 144.836C53.574 144.965 53.542 145.096 53.4681 145.203H53.1926L53.2825 145.022L53.3723 144.746ZM53.3004 143.604C53.3004 143.544 53.3783 143.544 53.528 143.604C53.6777 143.664 53.7616 143.731 53.7616 143.791H53.5759L53.4861 143.881L53.3004 143.604ZM53.3903 142.961H53.7616V143.328H53.3903V142.961ZM53.9412 142.318C53.9068 142.316 53.8732 142.307 53.8423 142.292C53.8114 142.276 53.784 142.255 53.7616 142.228L53.5759 142.042H53.8993L53.9412 142.318ZM53.9412 143.971L53.8514 143.881V143.604C54.0089 143.583 54.169 143.615 54.3066 143.694L54.2167 143.971H53.9412ZM54.8575 144.614C54.7049 144.612 54.5527 144.598 54.4024 144.572C54.2501 144.544 54.096 144.528 53.9412 144.524L53.8514 144.434L53.9412 144.157C53.9412 144.217 54.049 144.247 54.2646 144.247C54.4683 144.244 54.6711 144.276 54.8635 144.343L54.8575 144.614ZM53.8514 144.71H54.0371V144.89H53.8514V144.71ZM54.2167 142.042C54.3168 142.035 54.4157 142.067 54.4922 142.132V142.403H54.1269V142.036L54.2167 142.042ZM54.1269 142.871L54.4922 142.961V143.052C54.4922 143.118 54.4323 143.148 54.3066 143.148H54.1269V142.871ZM54.5821 144.71L54.4922 144.89H54.1988V144.71H54.5821ZM54.4982 144.073V143.887H54.6839V143.797C54.7183 143.799 54.7519 143.808 54.7828 143.823C54.8137 143.839 54.8411 143.86 54.8635 143.887V144.073H54.4982ZM54.8635 143.334H55.3247V143.52H54.8635V143.334ZM55.2288 143.154L54.9593 142.781L55.2288 142.601L55.5043 142.691L55.69 143.058L55.4145 143.154H55.2288ZM55.69 144.44V144.896C55.6121 144.901 55.5354 144.917 55.4624 144.944C55.3872 144.971 55.3086 144.987 55.2288 144.992V144.53L55.69 144.44ZM56.241 144.62C56.1927 144.567 56.1263 144.535 56.0553 144.53C55.984 144.525 55.9172 144.493 55.8696 144.44V144.163H56.241V144.62Z" fill="white"/>
<path d="M75.5129 125.578V125.909H75.5968C75.653 125.911 75.7081 125.926 75.7585 125.951C76.0034 125.995 76.2528 126.01 76.5011 125.993H77.1C77.184 125.999 77.2681 125.984 77.3455 125.951C77.3871 125.94 77.4304 125.938 77.4728 125.946C77.5151 125.953 77.5554 125.969 77.5911 125.993C77.6392 125.952 77.6693 125.894 77.6749 125.831C77.6866 125.742 77.715 125.656 77.7587 125.578C77.701 125.578 77.6439 125.566 77.5911 125.542C77.5137 125.509 77.4295 125.495 77.3455 125.5H76.9323L76.4412 125.578C76.2886 125.579 76.1363 125.593 75.9861 125.62C75.8278 125.655 75.6626 125.641 75.5129 125.578Z" fill="white"/>
<path d="M76.2914 124.449C76.2682 124.398 76.2559 124.343 76.2555 124.287L75.9261 124.365H75.8423V124.618H76.3334C76.3337 124.559 76.3193 124.501 76.2914 124.449Z" fill="white"/>
<path d="M88.4008 84.6847C89.6904 85.0159 90.9084 85.5821 91.9941 86.3551C91.9941 85.3637 91.9941 84.3722 92.024 83.3808C89.9155 82.8256 88.0321 81.6241 86.6366 79.9439C85.241 78.2636 84.4027 76.1884 84.2386 74.0075C85.6342 73.8808 87.041 74.0333 88.3774 74.4562C89.7139 74.8791 90.9534 75.5639 92.024 76.471C91.9503 74.7142 91.7783 72.963 91.509 71.2255C88.9303 72.1311 86.1009 71.9888 83.6254 70.8289C81.15 69.6691 79.2249 67.5838 78.2617 65.0187C80.5956 64.0819 83.1877 64.02 85.5633 64.8443C87.939 65.6686 89.9391 67.3239 91.1975 69.5071C90.3281 65.0159 88.7341 60.6971 86.4784 56.7209C84.3464 52.9655 82.0526 49.3604 79.7709 45.7553C76.7765 41.0145 75.2913 35.1262 75.3991 29.0695C75.3991 28.8532 75.6267 28.4386 75.7584 28.4326C76.6987 28.3966 76.8424 27.4713 76.8424 26.6781C76.8424 24.0764 76.7765 21.4687 76.6867 18.867C76.6867 17.8996 76.0399 17.4189 74.9619 17.4189H62.2057C61.1278 17.4189 60.5109 17.8996 60.481 18.867C60.3911 21.4687 60.3133 24.0764 60.3253 26.6781C60.3253 27.4713 60.475 28.3966 61.4092 28.4326C61.541 28.4326 61.7746 28.8532 61.7686 29.0695C61.8764 35.1262 60.4151 41.0145 57.3967 45.7553C55.115 49.3604 52.8213 52.9655 50.6893 56.7209C46.919 63.4456 44.9892 71.0514 45.0957 78.7663C45.0957 89.2452 45.515 99.7301 45.8743 110.203C45.9521 112.606 46.3713 118.014 46.8564 123.578C46.9662 123.572 47.0761 123.572 47.1858 123.578C47.5199 123.596 47.8446 123.695 48.1321 123.866C48.5692 124.089 48.9286 124.251 49.2041 124.359C49.5896 124.499 49.9928 124.584 50.4018 124.612C50.7741 124.643 51.1441 124.697 51.5097 124.774C52.0705 124.835 52.6345 124.863 53.1986 124.858C53.7985 124.863 54.3983 124.835 54.9952 124.774L55.9055 124.69C56.141 124.677 56.3741 124.636 56.6002 124.569C56.8472 124.51 57.0835 124.413 57.3009 124.281C56.821 123.814 56.406 123.285 56.0672 122.707C55.9186 122.447 55.714 122.223 55.4683 122.052C55.1163 121.726 54.8349 121.332 54.6419 120.892C54.4873 120.529 54.3514 120.158 54.2346 119.781C54.1577 119.506 54.0471 119.241 53.9053 118.994C53.29 118.211 52.9173 117.265 52.8333 116.272C52.7774 115.995 52.7235 115.665 52.6716 115.28C52.6117 114.896 52.5877 114.679 52.5877 114.619C52.59 114.398 52.604 114.178 52.6296 113.958C52.6296 113.682 52.6716 113.436 52.6716 113.213C52.6678 113.088 52.6538 112.964 52.6296 112.841C52.6023 112.721 52.5882 112.598 52.5877 112.474V110.738C52.582 110.418 52.5398 110.099 52.462 109.788C52.3821 109.421 52.3419 109.047 52.3422 108.671C52.354 108.466 52.3944 108.264 52.462 108.07C52.5422 107.831 52.6382 107.599 52.7494 107.373C52.8257 107.097 52.9846 106.852 53.2046 106.67C53.3934 106.529 53.5938 106.405 53.8035 106.297C53.8498 106.247 53.9081 106.209 53.973 106.187C54.0379 106.165 54.1073 106.159 54.1748 106.171C54.3254 106.201 54.4815 106.187 54.6239 106.129L54.9533 105.967C55.0831 105.909 55.2243 105.88 55.3665 105.883C55.6008 105.886 55.835 105.872 56.0672 105.841C56.2439 105.816 56.4219 105.802 56.6002 105.799C56.7398 105.801 56.8774 105.832 57.005 105.888C57.1325 105.945 57.2474 106.027 57.3428 106.129C57.5468 106.346 57.767 106.547 58.0016 106.73C58.1653 106.84 58.3452 106.923 58.5346 106.976C58.7263 107.03 58.9059 107.253 59.0736 107.637C59.226 107.834 59.338 108.058 59.403 108.298L59.7264 109.29C59.8251 109.483 59.9092 109.684 59.9779 109.891C60.0374 110.106 60.0637 110.328 60.0558 110.552C60.057 110.758 60.0998 110.963 60.1815 111.152C60.2595 111.32 60.3023 111.502 60.3073 111.687C60.3092 111.937 60.3353 112.187 60.3852 112.432C60.4397 112.703 60.4678 112.979 60.469 113.255C60.469 113.7 60.469 114.121 60.4271 114.535C60.3852 114.95 60.3852 115.376 60.3852 115.815C60.3852 116.037 60.3852 116.284 60.4271 116.56C60.4418 116.794 60.5138 117.021 60.6367 117.221C60.7443 117.44 60.7997 117.68 60.7984 117.924C60.8193 118.253 60.9027 118.575 61.0439 118.873C61.1136 119.018 61.1698 119.169 61.2116 119.324C61.252 119.481 61.3061 119.634 61.3733 119.781C61.5251 120.027 61.6496 120.289 61.7446 120.562C61.8007 120.761 61.8987 120.945 62.0321 121.103L63.1041 122.172C63.3447 122.53 63.6517 122.838 64.0084 123.079C64.1607 123.085 64.3126 123.099 64.4635 123.121C64.6398 123.149 64.818 123.163 64.9965 123.163L66.1464 123.079C66.7103 123.021 67.2798 123.049 67.8352 123.163C68.4467 123.279 69.0743 123.279 69.6858 123.163C69.8813 123.111 70.0824 123.083 70.2846 123.079C70.4867 123.078 70.6878 123.052 70.8835 123.001C71.2668 123.001 71.7878 122.971 72.4466 122.917C72.9381 122.861 73.4343 122.861 73.9258 122.917C74.2552 122.917 74.5846 122.917 74.914 122.959C75.2434 123.001 75.5728 123.001 75.9021 123.001C76.0529 122.999 76.2035 123.013 76.3513 123.043C76.5042 123.067 76.6605 123.053 76.8065 123.001C76.9709 122.998 77.1349 122.984 77.2975 122.959C77.496 122.931 77.6961 122.917 77.8964 122.917H78.4953C78.6888 122.855 78.8913 122.827 79.0942 122.833H79.6272C79.8101 122.833 79.992 122.861 80.1662 122.917L80.8249 123.001H81.4777C81.6993 123.001 82.0766 123.001 82.5497 123.079C83.0228 123.157 83.4301 123.193 83.7056 123.248L83.9511 123.41L82.9629 123.494L82.7174 123.909L82.5497 124.071C82.4211 124.079 82.2927 124.052 82.1784 123.993C82.1204 123.965 82.057 123.95 81.9928 123.95C81.9285 123.95 81.8651 123.965 81.8071 123.993C81.7292 124.044 81.6412 124.077 81.5492 124.091C81.4571 124.104 81.3633 124.097 81.2741 124.071C81.2159 124.044 81.1525 124.03 81.0884 124.03C81.0243 124.03 80.961 124.044 80.9028 124.071C80.6604 124.015 80.4086 124.015 80.1662 124.071C79.9697 124.137 79.7697 124.194 79.5673 124.239C79.2376 124.223 78.9074 124.252 78.5851 124.323H77.8844C77.8148 124.324 77.746 124.338 77.6822 124.366C77.6184 124.394 77.5609 124.435 77.5131 124.485L77.8425 124.569H78.3336C78.5369 124.585 78.7413 124.557 78.9325 124.485H79.6751C79.8326 124.55 80.0023 124.578 80.1722 124.569V124.732L80.0883 124.816L79.7589 124.9H79.2619L78.2797 125.062L78.4414 125.23L78.5252 125.477L78.2797 125.561L78.5252 125.807H78.9325C79.0499 125.759 79.1785 125.744 79.3038 125.765C79.566 125.788 79.83 125.774 80.0883 125.723C80.1722 125.72 80.2559 125.734 80.3339 125.765C80.5343 125.791 80.7379 125.777 80.9327 125.723C80.9327 125.777 81.0465 125.807 81.2621 125.807C81.3229 125.752 81.3976 125.716 81.4779 125.701C81.5582 125.686 81.641 125.694 81.7173 125.723C82.1183 125.77 82.5245 125.742 82.915 125.639L82.9989 125.561H83.6576L84.0649 125.639L83.9032 125.891C83.6644 125.92 83.4294 125.974 83.2025 126.054C83.0809 126.112 82.9479 126.142 82.8132 126.142C82.6785 126.142 82.5455 126.112 82.424 126.054C82.3132 126.059 82.2031 126.073 82.0946 126.096C81.9752 126.106 81.8611 126.15 81.7652 126.222L81.5137 126.384V126.63L81.5975 126.715C81.6701 126.705 81.7438 126.72 81.8071 126.757C81.8071 126.757 81.8969 126.757 82.0107 126.715C82.1637 126.722 82.3169 126.708 82.4659 126.672C82.6131 126.639 82.7641 126.625 82.915 126.63H83.6576V126.715L83.5738 126.883L83.4121 127.129H83.3283V126.961L82.8312 127.207L82.7533 127.375H82.2563V127.207H82.1724C82.0582 127.207 81.9455 127.18 81.843 127.129C81.7923 127.102 81.7357 127.088 81.6783 127.088C81.621 127.088 81.5644 127.102 81.5137 127.129L81.1064 127.207L80.6093 127.291H79.705L79.6212 127.538C79.5186 127.647 79.3941 127.733 79.2559 127.79C79.1977 127.817 79.1343 127.831 79.0702 127.831C79.0061 127.831 78.9428 127.817 78.8846 127.79C78.7016 127.849 78.5217 127.917 78.3456 127.994C78.2055 128.066 78.0529 128.108 77.8964 128.121C77.666 128.175 77.4261 128.175 77.1957 128.121C77.0007 128.066 76.7993 128.038 76.5968 128.036C76.2988 128.094 75.996 128.122 75.6925 128.121C75.3616 128.12 75.0311 128.146 74.7044 128.199C74.5379 128.201 74.3718 128.215 74.2073 128.241C74.0453 128.27 73.8809 128.284 73.7162 128.283C73.4407 128.283 73.1653 128.283 72.8958 128.325C72.6263 128.367 72.3448 128.397 72.0693 128.451C71.6754 128.533 71.2739 128.573 70.8715 128.571C70.3309 128.587 69.7932 128.657 69.2666 128.781L67.7873 129.028H67.1884C66.8293 129.02 66.4708 129.06 66.1224 129.148C65.8469 129.232 65.5235 129.328 65.2181 129.442C64.8042 129.583 64.3766 129.68 63.9425 129.731C63.4812 129.783 63.026 129.88 62.583 130.019C62.4363 130.069 62.2827 130.095 62.1279 130.097C61.9747 130.101 61.823 130.13 61.6787 130.181C61.4032 130.236 61.0799 130.308 60.7744 130.392C60.469 130.476 60.0857 130.542 59.7024 130.596C59.3218 130.652 58.9362 130.666 58.5526 130.638C58.1669 130.61 57.7794 130.624 57.3967 130.68C57.0135 130.734 56.6302 130.8 56.2469 130.884C55.8636 130.969 55.4504 131.035 55.0132 131.089C54.7007 131.149 54.3795 131.149 54.067 131.089C53.6981 131.035 53.3258 131.009 52.953 131.011C52.6341 131.014 52.3166 131.055 52.0068 131.131C51.695 131.218 51.3635 131.203 51.0606 131.089C50.4516 131.002 49.8507 130.865 49.2639 130.68C48.6947 130.48 48.1437 130.23 47.617 129.935L47.5631 129.899C47.9464 134.057 48.3057 137.65 48.5153 139.29C49.0483 143.569 51.0007 146.501 54.2646 147.618C58.9658 149.355 63.8467 149.577 68.7276 149.697C73.5905 149.577 78.4893 149.355 83.1905 147.618C86.4544 146.483 88.4128 143.569 88.9458 139.29C89.5087 134.766 91.2634 115.394 91.4371 110.239C91.6088 105.32 91.7705 100.393 91.9222 95.458C90.3718 94.1866 89.2164 92.4966 88.5924 90.5876C87.9684 88.6786 87.9019 86.6304 88.4008 84.6847ZM56.4206 81.0195C56.4966 80.8811 56.5936 80.7554 56.708 80.6469L56.9955 80.3585C57.1572 80.1963 57.3668 80.004 57.5944 79.7577C57.8123 79.5734 57.9932 79.3491 58.1274 79.0967C58.413 78.8144 58.7172 78.5514 59.0377 78.3096C59.3353 78.0811 59.6667 77.9006 60.0198 77.7749C60.2394 77.6654 60.4767 77.5962 60.7205 77.5706C60.9903 77.5365 61.2543 77.4658 61.5051 77.3603C61.6113 77.3083 61.7084 77.2393 61.7925 77.156C61.8767 77.0727 61.9738 77.0037 62.08 76.9517C62.3555 76.8375 62.589 76.7594 62.7807 76.6993C63.0188 76.631 63.2528 76.5488 63.4814 76.453C63.5221 76.4047 63.5802 76.3744 63.6431 76.3689C63.7296 76.361 63.8134 76.3343 63.8886 76.2907C64.0948 76.1838 64.3175 76.1127 64.5474 76.0804C64.7694 76.055 64.9894 76.0148 65.2061 75.9603C65.4201 75.8985 65.6423 75.8702 65.8649 75.8762C66.1629 75.8188 66.4658 75.7906 66.7692 75.792C66.8939 75.7958 67.0181 75.8099 67.1405 75.8341L67.6735 75.9603H67.7574C67.9646 76.0034 68.1658 76.072 68.3563 76.1646C68.5427 76.2548 68.7483 76.2981 68.9551 76.2907C69.1789 76.2825 69.4017 76.3235 69.6079 76.4109C69.7602 76.4842 69.8997 76.5816 70.0211 76.6993C70.2529 76.8224 70.4567 76.9922 70.62 77.198C70.6878 77.294 70.7177 77.4117 70.7039 77.5285C70.7008 77.6712 70.7294 77.8129 70.7877 77.9431C70.8678 78.058 70.936 78.1808 70.9913 78.3096L71.1171 78.6821C71.1709 79.0104 71.1709 79.3453 71.1171 79.6736C70.9458 80.0205 70.7455 80.3521 70.5182 80.665C70.4656 80.7121 70.4229 80.7693 70.3924 80.8332C70.3582 80.8929 70.3159 80.9475 70.2667 80.9954C70.1697 81.0724 70.0574 81.1278 69.9373 81.1577C69.7988 81.2067 69.6628 81.2629 69.5301 81.3259L69.1588 81.6984C69.0506 81.8133 68.9253 81.9106 68.7874 81.9868L67.5538 82.4796L66.5656 82.7319L64.3198 83.519L63.1699 84.0177C62.9578 84.0988 62.7366 84.1533 62.5112 84.18C62.3694 84.2254 62.2312 84.2817 62.098 84.3482L61.7686 84.5104C61.6222 84.5624 61.4686 84.5908 61.3134 84.5946C61.2447 84.5951 61.1768 84.6098 61.114 84.6377C61.0512 84.6656 60.9947 84.7062 60.9481 84.7568C60.8015 84.8395 60.6631 84.9361 60.5349 85.0452C60.4074 85.1571 60.269 85.2558 60.1216 85.3396C60.0296 85.3882 59.9334 85.4284 59.8342 85.4598C59.736 85.4961 59.64 85.5382 59.5467 85.586C59.3625 85.6659 59.1617 85.7001 58.9615 85.6854C58.7613 85.6708 58.5676 85.6078 58.3969 85.5019C58.2947 85.4494 58.1822 85.4207 58.0675 85.4177C57.9531 85.4184 57.8401 85.3916 57.7381 85.3396C57.5848 85.2427 57.4687 85.0966 57.4087 84.925C57.3576 84.7693 57.2716 84.6275 57.1572 84.5104C56.9782 84.3434 56.839 84.138 56.7499 83.9096C56.696 83.7413 56.6362 83.5791 56.5823 83.4109C56.5284 83.2426 56.4745 83.0564 56.4206 82.81C56.4213 82.7077 56.3922 82.6074 56.3367 82.5216C56.2806 82.4361 56.2514 82.3356 56.2529 82.2332C56.2715 81.8243 56.3276 81.418 56.4206 81.0195ZM74.387 98.4443C74.3091 98.6125 74.2373 98.7507 74.1834 98.8589C74.14 98.9348 74.1115 99.0185 74.0995 99.1052C74.0991 99.1378 74.0913 99.1698 74.0768 99.199C74.0623 99.2281 74.0414 99.2535 74.0157 99.2735C73.9153 99.4957 73.7775 99.6989 73.6084 99.8743C73.5971 100.033 73.5544 100.189 73.4827 100.331C73.3988 100.523 73.3329 100.673 73.279 100.782C73.2074 100.97 73.0772 101.13 72.9077 101.238L72.3747 101.611C72.0454 101.773 71.7399 101.911 71.4644 102.019C71.0645 102.168 70.6514 102.279 70.2307 102.35C70.016 102.408 69.7943 102.436 69.572 102.434C69.3518 102.435 69.1326 102.464 68.9192 102.518C68.5898 102.572 68.2724 102.614 67.967 102.638C67.645 102.674 67.3277 102.745 67.0208 102.849L65.3379 103.257L63.9784 103.588L63.158 103.756C62.8579 103.813 62.5531 103.841 62.2477 103.84H61.4272C60.9564 103.952 60.4738 104.007 59.9899 104.002C59.4796 104.005 58.9696 103.977 58.4627 103.918C58.089 103.901 57.7178 103.847 57.3548 103.756L56.4924 103.425C56.3 103.354 56.0982 103.312 55.8935 103.299C55.6889 103.291 55.4868 103.25 55.2947 103.179C55.0387 103.077 54.7922 102.952 54.558 102.806C54.3365 102.668 54.1149 102.548 53.8993 102.434C53.6437 102.282 53.3958 102.118 53.1567 101.941C52.9276 101.773 52.7256 101.57 52.5578 101.34C52.2542 101.027 52.0034 100.665 51.8152 100.271C51.6535 99.6099 51.5157 99.1292 51.4079 98.8228C51.2709 98.3264 51.2143 97.8111 51.2402 97.2966C51.2524 96.8935 51.2945 96.4918 51.366 96.0949C51.4064 95.7102 51.5033 95.3336 51.6535 94.9773C51.7613 94.6469 51.8571 94.3344 51.9409 94.028C52.0165 93.7241 52.1105 93.4251 52.2224 93.1327C52.3302 92.8563 52.4979 92.4718 52.7135 91.9791C52.8895 91.5807 53.0895 91.1934 53.3124 90.8194C53.6418 90.2726 53.9412 89.804 54.2167 89.4194C54.3944 89.0867 54.616 88.7795 54.8755 88.5061C55.0739 88.2416 55.2942 87.9943 55.5342 87.7671C55.5937 87.7123 55.6674 87.6753 55.7468 87.6604C55.8262 87.6455 55.9082 87.6534 55.9834 87.683C56.1584 87.7355 56.3397 87.7638 56.5224 87.7671C56.6995 87.7637 56.8712 87.7049 57.0135 87.5988C57.1026 87.5409 57.2066 87.5101 57.3129 87.5101C57.4192 87.5101 57.5231 87.5409 57.6123 87.5988C57.9733 87.6927 58.3102 87.8627 58.6005 88.0975L58.7682 88.3439C58.9156 88.7716 59.0121 89.2153 59.0556 89.6658C59.0645 90.1229 58.966 90.5758 58.7682 90.9877C58.6463 91.3385 58.4792 91.6718 58.2711 91.9791C58.0495 92.3095 57.8339 92.664 57.6123 93.0486L57.1213 94.3705C56.9379 94.9007 56.8805 95.4665 56.9536 96.0228C56.9416 96.2906 57.0154 96.5552 57.1641 96.778C57.3128 97.0007 57.5286 97.1698 57.78 97.2606C57.9722 97.3287 58.1792 97.3433 58.3789 97.3026C58.6025 97.2855 58.8235 97.2431 59.0377 97.1765L60.4331 96.9301L61.2595 96.7679L61.9961 96.4374L62.7388 96.1851C63.0893 96.0539 63.4473 95.9435 63.8107 95.8546C64.214 95.7509 64.6282 95.6964 65.0444 95.6924C65.3291 95.6913 65.6111 95.6384 65.8769 95.5361C66.1679 95.4097 66.4709 95.3131 66.7812 95.2477L67.44 95.1636L68.1407 95.0374C68.3731 95.0088 68.6071 94.9948 68.8413 94.9954H69.9074C70.2713 94.9942 70.6331 95.0509 70.9793 95.1636C71.168 95.2309 71.3368 95.3445 71.4704 95.4941C71.5925 95.6226 71.7315 95.7338 71.8837 95.8245C72.0785 95.8785 72.2821 95.8928 72.4825 95.8666C72.6575 95.8399 72.836 95.883 72.9796 95.9868C73.1317 96.0775 73.2708 96.1887 73.3928 96.3172C73.7017 96.4638 73.9801 96.6677 74.2133 96.9181C74.4578 97.2203 74.5759 97.6058 74.5427 97.9936C74.5286 98.1508 74.4795 98.3027 74.399 98.4383L74.387 98.4443ZM78.8726 125.531H78.5432L78.7109 125.2H78.9564L79.1181 125.363L78.8726 125.531ZM82.3281 126.354L81.9987 126.522L81.837 126.438C81.8977 126.365 81.9726 126.306 82.0571 126.264C82.1415 126.221 82.2338 126.197 82.3281 126.192V126.354ZM83.3163 126.354H82.6455V126.18L83.2444 126.096C83.2983 126.096 83.3223 126.096 83.3223 126.18L83.3163 126.354ZM75.8303 135.932C75.8432 136.164 75.7847 136.395 75.6626 136.593C75.6522 136.692 75.6259 136.79 75.5847 136.881C75.5396 136.971 75.5112 137.069 75.5009 137.169C75.4004 137.301 75.342 137.46 75.3332 137.626C75.3358 137.755 75.3091 137.882 75.2554 137.999C75.1343 138.249 74.9654 138.474 74.7583 138.66C74.4759 139.108 74.1445 139.523 73.7701 139.897C73.3117 140.404 72.7327 140.787 72.0873 141.009C71.3986 141.255 70.7518 141.52 70.1529 141.796C69.8571 141.948 69.5367 142.046 69.2067 142.084C68.9087 142.109 68.616 142.177 68.3383 142.289C68.0395 142.385 67.7507 142.509 67.4759 142.661C67.2564 142.789 67.0207 142.886 66.7752 142.95C66.3747 142.944 65.9748 142.916 65.5774 142.866C65.1603 142.836 64.7664 142.662 64.4635 142.373C64.2758 142.182 64.0757 142.003 63.8646 141.838C63.6839 141.672 63.5444 141.467 63.4574 141.237C63.3936 141.094 63.3649 140.937 63.3736 140.781C63.3793 140.624 63.3507 140.468 63.2897 140.324C63.2249 140.083 63.1967 139.834 63.2059 139.585V139.338C63.2657 138.621 63.5228 137.935 63.9485 137.356C64.0532 137.195 64.1492 137.028 64.236 136.857C64.3228 136.688 64.4187 136.523 64.5234 136.364C64.7989 135.92 65.1223 135.469 65.4696 135C65.8153 134.547 66.2493 134.169 66.7453 133.889C66.5958 133.797 66.4282 133.74 66.2542 133.72C66.0865 133.668 65.9907 133.518 65.9667 133.27C65.9456 133.16 65.9626 133.047 66.015 132.948C66.0673 132.85 66.1517 132.772 66.2542 132.729C66.362 132.675 66.4877 132.621 66.6255 132.567C66.7632 132.513 66.883 132.453 66.9908 132.399C67.2449 132.257 67.5271 132.173 67.8173 132.152H68.4161C68.5043 132.103 68.6027 132.074 68.7036 132.068C68.8306 132.061 68.9557 132.034 69.0749 131.99C69.5662 131.93 70.0629 131.93 70.5541 131.99L72.0394 132.399C72.235 132.45 72.436 132.478 72.6382 132.483C72.8404 132.488 73.0414 132.516 73.2371 132.567C73.5126 132.623 73.7582 132.677 73.9737 132.729C74.1953 132.783 74.4409 132.843 74.7164 132.897C74.9918 132.951 75.3452 133.282 75.6207 133.889C75.7847 134.308 75.8699 134.754 75.8722 135.205C75.8319 135.443 75.8218 135.685 75.8423 135.926L75.8303 135.932ZM79.7769 127.76L79.8607 127.508H80.274L80.7651 127.43L81.0166 127.508L81.2621 127.76H79.7769ZM81.2621 127.508C81.214 127.467 81.1838 127.408 81.1783 127.345H81.4478C81.5344 127.334 81.618 127.306 81.6933 127.261L81.2621 127.508ZM83.8912 126.907C83.7834 126.907 83.7295 126.907 83.7295 126.949C83.7295 126.991 83.6756 126.949 83.5678 126.907V126.498H83.8912V126.907ZM83.484 126.168L83.5678 125.999L83.8912 126.168H83.484ZM85.2087 124.101H85.2926C85.337 124.098 85.3816 124.104 85.4238 124.118C85.466 124.132 85.5048 124.155 85.5381 124.185V124.431H85.2087V124.101ZM85.2087 124.846L85.5381 124.924V125.008C85.5381 125.062 85.4842 125.092 85.3764 125.092H85.2087V124.846ZM85.3764 125.585L85.2926 125.837H85.0411L84.9572 125.753V125.507C85.1049 125.481 85.2569 125.507 85.3884 125.579L85.3764 125.585ZM84.2206 123.524L84.6338 123.686L84.8015 123.854L84.2026 123.939L84.2206 123.524ZM84.2625 124.473C84.2625 124.443 84.3583 124.431 84.6338 124.431L84.3883 124.678H84.1427C84.2625 124.587 84.3044 124.521 84.2745 124.491L84.2625 124.473ZM84.1427 124.924H84.3044V125.339H84.1427V124.924ZM84.3044 125.669L84.3883 125.753C84.3861 125.765 84.3868 125.777 84.3903 125.788C84.3937 125.799 84.3998 125.809 84.4081 125.817C84.4164 125.826 84.4265 125.832 84.4377 125.835C84.4488 125.839 84.4606 125.839 84.4721 125.837L84.1427 125.915L84.3044 125.669ZM83.8134 123.524L84.0589 123.939L83.8912 124.101C83.8198 124.039 83.7614 123.964 83.7192 123.879C83.6771 123.795 83.6521 123.702 83.6457 123.608C83.6814 123.611 83.7173 123.607 83.7513 123.595C83.7852 123.584 83.8166 123.566 83.8433 123.542L83.8134 123.524ZM83.8134 124.515V124.599L83.7295 124.678H83.3163C83.1764 124.683 83.0371 124.656 82.909 124.599V124.515L83.0707 124.347H83.1546L83.484 124.431C83.5928 124.496 83.7167 124.531 83.8433 124.533L83.8134 124.515ZM82.3281 124.347H82.7414L82.6575 124.599L82.3281 124.678V124.347ZM81.34 124.347H82.0826L82.1664 124.515L81.9987 124.599L81.6694 124.678H81.0705C81.0614 124.591 81.0349 124.507 80.9926 124.431L81.34 124.347ZM79.8607 125.381C79.7533 125.409 79.6425 125.423 79.5314 125.423C79.5853 125.369 79.6152 125.327 79.6152 125.296C79.6152 125.266 79.6152 125.23 79.699 125.176H80.1063C80.1544 125.217 80.1846 125.276 80.1901 125.339C80.0825 125.347 79.9761 125.368 79.8727 125.399L79.8607 125.381ZM80.1901 124.515H80.6034V124.762H80.4357L80.1901 124.515ZM80.4357 125.423L80.6034 125.176L80.9327 125.092L81.0944 125.254C81.142 125.298 81.1718 125.358 81.1783 125.423H80.4357ZM81.6694 125.176L81.2621 125.092V125.008L81.4238 124.846H82.1664L82.0826 125.008L81.837 125.254L81.6694 125.176ZM82.412 125.423H82.0826C82.0969 125.341 82.1419 125.268 82.2084 125.218L82.412 125.008V125.423ZM82.5797 125.254C82.5754 125.158 82.5983 125.062 82.6455 124.978C82.6994 124.9 82.7294 124.882 82.7294 124.936L82.8132 125.266L82.5797 125.254ZM82.909 123.77L83.0707 123.686H83.2444L83.49 123.939L83.4061 124.185L83.2444 124.101L82.9929 124.017L82.8312 124.101L82.909 123.77ZM83.1546 125.339H83.0707L82.909 125.254V125.092C83.0168 125.092 83.0707 125.092 83.0707 125.05C83.0707 125.008 83.1007 125.008 83.1546 125.008V125.339ZM83.4001 125.254L83.3163 125.008L83.4001 124.924H83.5678L83.4001 125.254ZM83.999 125.008L83.8373 125.176L83.6696 125.254V125.008L83.7535 124.846L83.999 124.924V125.008ZM84.2445 126.811L84.0828 126.889V126.48H84.3284L84.2445 126.811ZM84.6578 126.889H84.4122L84.4961 126.727L84.5739 126.48C84.6877 126.48 84.7416 126.48 84.7416 126.558C84.7516 126.623 84.7482 126.688 84.7317 126.752C84.7153 126.815 84.686 126.874 84.6458 126.925L84.6578 126.889ZM84.8255 126.15L84.7416 126.312C84.7003 126.283 84.6528 126.264 84.6029 126.257C84.5529 126.249 84.502 126.254 84.4542 126.27C84.3164 126.27 84.2206 126.27 84.1667 126.228V126.066H84.4122C84.4101 126.054 84.4108 126.042 84.4142 126.031C84.4177 126.02 84.4238 126.01 84.4321 126.001C84.4403 125.993 84.4505 125.987 84.4616 125.983C84.4728 125.98 84.4846 125.979 84.4961 125.981L84.8255 126.066V126.15ZM84.7416 125.651L84.6578 125.735L84.4961 125.489C84.4961 125.435 84.562 125.435 84.6997 125.489C84.8374 125.543 84.9033 125.597 84.9033 125.651H84.7416ZM84.9033 125.236H84.5739V124.906H84.9033V125.236ZM84.7416 124.083H85.0411V124.377C85.0093 124.376 84.9782 124.368 84.9494 124.355C84.9206 124.342 84.8948 124.323 84.8734 124.299L84.7416 124.083ZM85.1549 126.642H84.9872V126.48H85.1549V126.642ZM85.5621 126.642H85.3165V126.48H85.6399L85.5621 126.642ZM85.8915 126.396C85.7547 126.394 85.6185 126.38 85.4842 126.354C85.348 126.328 85.2097 126.314 85.071 126.312L84.9872 126.228L85.071 125.981C85.071 126.036 85.1668 126.066 85.3585 126.066C85.5395 126.065 85.7195 126.093 85.8915 126.15V126.396ZM85.8915 125.897H85.5621V125.735H85.7298V125.651C85.7926 125.657 85.8507 125.687 85.8915 125.735V125.897ZM85.8915 125.405V125.236H86.3047V125.405H85.8915ZM86.6341 126.642C86.5643 126.644 86.4954 126.659 86.4305 126.684C86.3634 126.71 86.2926 126.724 86.2209 126.727V126.312L86.6341 126.228V126.642ZM86.3885 125.074H86.2388L85.9933 124.744L86.2388 124.581L86.4844 124.66L86.6521 124.99L86.3885 125.074ZM87.1252 126.396C87.0844 126.348 87.0263 126.318 86.9635 126.312C86.9312 126.311 86.8995 126.303 86.8706 126.288C86.8417 126.273 86.8162 126.253 86.7958 126.228V125.981H87.1252V126.396Z" fill="white"/>
<path d="M77.2554 126.679L77.0099 126.763H76.5967L76.9261 127.171H77.6687C77.7226 127.171 77.7405 127.135 77.7106 127.051C77.6956 127.017 77.6916 126.979 77.6991 126.942C77.7066 126.906 77.7253 126.872 77.7525 126.847L77.2554 126.679Z" fill="white"/>
<path d="M77.1597 124.365H76.6626V124.696L76.992 124.618L77.1597 124.365Z" fill="white"/>
<path d="M75.5967 127.009V127.171L75.7584 127.339L76.1716 127.255C76.2255 127.201 76.2554 127.189 76.2554 127.213C76.2554 127.237 76.2554 127.213 76.3333 127.171L76.1716 126.925H75.7584C75.7392 126.95 75.7147 126.97 75.6868 126.985C75.6589 126.999 75.6281 127.008 75.5967 127.009Z" fill="white"/>
<path d="M79.5853 126.924C79.7818 126.878 79.9824 126.852 80.1841 126.846H80.5974V126.516H80.268C79.9643 126.523 79.6608 126.495 79.3637 126.432L78.9504 126.516L78.2917 126.678L78.0461 126.762V126.924L78.13 127.093L78.9504 127.008C79.1647 127.006 79.3778 126.978 79.5853 126.924Z" fill="white"/>
<path d="M72.3867 136.79C72.2931 136.735 72.2083 136.666 72.1352 136.586C72.0961 136.538 72.0451 136.501 71.9873 136.479C71.9295 136.457 71.8669 136.45 71.8058 136.46C71.7452 136.471 71.6826 136.466 71.6246 136.445C71.5666 136.424 71.5154 136.388 71.4764 136.34L70.9854 135.925L70.3865 135.595L69.8894 135.432C69.4861 135.187 69.0416 135.018 68.5779 134.934C68.4122 135.098 68.2978 135.306 68.2485 135.534C68.1934 135.73 68.1652 135.932 68.1646 136.135C68.1609 136.338 68.1328 136.54 68.0808 136.736C68.0218 136.864 67.9931 137.004 67.9969 137.145C67.9975 137.314 67.9712 137.482 67.9191 137.643C67.9141 137.782 67.9001 137.921 67.8772 138.058C67.8484 138.221 67.8343 138.386 67.8352 138.551V139.212C67.8352 139.434 67.973 139.542 68.2485 139.542C68.4856 139.426 68.732 139.329 68.9851 139.254C69.2398 139.177 69.4881 139.081 69.7277 138.965C69.8269 138.859 69.9566 138.785 70.099 138.755C70.2612 138.719 70.4142 138.649 70.5482 138.551C70.6328 138.479 70.7304 138.424 70.8356 138.389L71.2069 138.22C71.2957 138.172 71.3937 138.143 71.4944 138.136C71.6302 138.116 71.7582 138.06 71.8657 137.974C71.9498 137.938 72.0224 137.88 72.0753 137.806C72.123 137.73 72.1948 137.673 72.2789 137.643C72.3867 137.529 72.4706 137.451 72.5245 137.397C72.5784 137.343 72.5784 137.229 72.5245 137.067C72.5125 136.961 72.4637 136.863 72.3867 136.79Z" fill="white"/>
<path d="M24.033 38.3283C23.9893 38.4743 23.9771 38.6279 23.997 38.7789C24.0124 38.8504 24.0058 38.9249 23.978 38.9925C23.9501 39.0601 23.9025 39.1177 23.8413 39.1575C23.7156 39.2897 23.6257 39.3497 23.5838 39.3497C23.5662 39.3487 23.5486 39.3513 23.5321 39.3575C23.5156 39.3638 23.5006 39.3734 23.488 39.3858C23.4571 39.3973 23.4231 39.3973 23.3922 39.3858H23.2664L23.0748 39.2596C23.0159 39.2169 22.9426 39.1992 22.8708 39.2105C22.799 39.2217 22.7346 39.261 22.6915 39.3197C22.6775 39.3266 22.6621 39.3302 22.6466 39.3302C22.631 39.3302 22.6156 39.3266 22.6016 39.3197C22.6016 39.3197 22.5238 39.3197 22.44 39.3197C22.3844 39.3607 22.3173 39.3828 22.2483 39.3828C22.1794 39.3828 22.1122 39.3607 22.0567 39.3197C21.9303 39.2963 21.8139 39.2349 21.723 39.1437C21.6321 39.0525 21.5709 38.9358 21.5476 38.809C21.4645 38.6388 21.4215 38.4517 21.4219 38.2622C21.4226 38.0746 21.3795 37.8894 21.2961 37.7214C21.2063 37.4631 21.1224 37.1686 21.0386 36.8262C20.9583 36.5119 20.916 36.1891 20.9128 35.8648V34.8794C20.9111 33.9806 20.9751 33.0829 21.1044 32.1936C21.1883 31.5927 21.2841 31.0339 21.3919 30.5052C21.4997 29.9764 21.5895 29.4296 21.6734 28.8768C21.6734 28.8348 21.7512 28.5343 21.901 27.9816C22.0507 27.4288 22.2064 26.7799 22.3741 26.1249C22.4579 25.7884 22.5358 25.458 22.6016 25.1395C22.6534 24.8458 22.7274 24.5566 22.8232 24.2743C22.9071 23.9799 22.9909 23.6734 23.0748 23.4451C23.1586 23.0185 23.2544 22.6159 23.3622 22.2434C23.47 21.8709 23.5658 21.4563 23.6497 21.0417C23.6712 20.8696 23.7032 20.6991 23.7455 20.531C23.7873 20.3627 23.8193 20.1922 23.8413 20.0202C23.9564 19.7566 24.0311 19.4771 24.0629 19.1911C24.0629 18.9327 24.1168 18.6383 24.1587 18.2958C24.1997 18.0981 24.2218 17.8969 24.2246 17.6949V16.9919C24.2259 16.6809 24.1937 16.3707 24.1288 16.0666C24.0623 15.7882 23.9191 15.5342 23.7156 15.3336C23.5799 15.203 23.4191 15.1016 23.243 15.0355C23.0669 14.9693 22.8793 14.9399 22.6915 14.949C22.4399 14.949 22.1764 14.949 21.901 14.9791C21.6255 15.0091 21.338 15.0331 21.0386 15.0752C20.7701 15.1547 20.492 15.1971 20.2121 15.2014C19.9512 15.2043 19.6924 15.2489 19.4455 15.3336C19.2498 15.4058 19.0749 15.5255 18.9365 15.6821C18.8129 15.8278 18.6624 15.9482 18.4933 16.0366C18.4558 16.074 18.4135 16.1064 18.3676 16.1327C18.3177 16.1528 18.2727 16.1836 18.2358 16.2228C18.152 16.313 17.9424 16.5112 17.601 16.8237C17.3549 17.1013 17.0118 17.2734 16.6428 17.3044C16.4579 17.3188 16.2724 17.2858 16.1038 17.2082L15.5648 16.9198C15.3911 16.8778 15.1995 16.6675 14.9659 16.2829C14.886 16.1705 14.8421 16.0364 14.8402 15.8984C14.8386 15.7695 14.8163 15.6416 14.7743 15.5198C14.7297 15.4177 14.7192 15.3039 14.7443 15.1954C14.7614 15.09 14.7714 14.9836 14.7743 14.8769V14.8168C14.7964 14.3671 14.8936 13.9244 15.0617 13.507C15.1838 13.0819 15.4151 12.6965 15.7325 12.3894C16.0824 12.0804 16.4662 11.8124 16.8764 11.5902C17.2923 11.3578 17.7435 11.1954 18.2119 11.1095C18.4837 11.0308 18.7596 10.9666 19.0383 10.9173C19.2985 10.8738 19.5549 10.8095 19.8049 10.725C19.945 10.6596 20.0946 10.617 20.248 10.5988H20.7631H21.1104L21.4578 10.5628H21.7812C21.9103 10.5564 22.0392 10.5789 22.1585 10.6289C22.4998 10.713 22.7993 10.7791 23.0508 10.8211C23.3298 10.8692 23.6057 10.9334 23.8773 11.0134C24.1767 11.0975 24.4761 11.1937 24.7696 11.3018C25.1054 11.4243 25.4267 11.5835 25.7278 11.7765C25.8285 11.8781 25.9345 11.9744 26.0452 12.0649C26.1671 12.1687 26.2951 12.265 26.4285 12.3533C26.5864 12.4692 26.7346 12.5978 26.8717 12.7379C26.9555 12.864 27.0633 13.0323 27.1891 13.2486C27.351 13.5311 27.4796 13.8316 27.5724 14.1439C27.7106 14.5538 27.7754 14.9851 27.764 15.4177C27.764 15.5078 27.764 15.7181 27.8299 16.0606C27.8645 16.3136 27.8845 16.5684 27.8898 16.8237C27.9423 17.1843 27.9423 17.5506 27.8898 17.9112C27.8288 18.2908 27.7967 18.6744 27.7939 19.0589C27.7925 19.415 27.7503 19.7698 27.6682 20.1164C27.5868 20.4432 27.5228 20.7741 27.4765 21.1078C27.3927 21.7867 27.3029 22.5078 27.219 23.2769C27.1453 23.9935 26.9968 24.7004 26.7758 25.3859C26.569 26.0208 26.4265 26.675 26.3506 27.3386C26.2633 28.0123 26.1129 28.6761 25.9015 29.3215C25.7757 29.7901 25.638 30.2888 25.4883 30.8236C25.3385 31.3584 25.2008 31.9172 25.075 32.518C24.9493 33.1189 24.8115 33.5515 24.6618 34.0802C24.5121 34.609 24.3923 35.1137 24.3085 35.5824C24.2179 35.9763 24.1757 36.3799 24.1827 36.7841C24.1679 37.3016 24.1179 37.8176 24.033 38.3283ZM50.0723 26.7017C50.0304 26.7017 49.9645 26.7438 49.8806 26.8279C49.7968 26.912 49.7309 26.9601 49.689 26.9601H49.4375C49.2795 26.9521 49.1256 26.9068 48.9883 26.8279C48.8502 26.764 48.7229 26.6789 48.611 26.5756C48.415 26.2575 48.2639 25.9138 48.1619 25.5541C48.078 25.2116 48.0121 24.9533 47.9702 24.7249C47.8836 24.5016 47.8194 24.2701 47.7786 24.0339C47.7386 23.8119 47.7186 23.5866 47.7187 23.361C47.7187 23.1086 47.7187 22.682 47.7187 22.0872C47.7187 21.4923 47.7187 21.0657 47.7187 20.8074C47.4121 21.0072 47.0822 21.1686 46.7365 21.288C46.3885 21.4039 46.0565 21.5634 45.7484 21.7627C45.5457 21.8618 45.3328 21.9383 45.1136 21.991C44.8747 22.0472 44.6405 22.1215 44.4129 22.2134C44.1973 22.2975 44.0176 22.3636 43.8679 22.4056C43.6781 22.466 43.4969 22.5509 43.3289 22.658C43.08 22.8019 42.8117 22.9092 42.5324 22.9764C42.2532 23.047 41.9851 23.1562 41.7359 23.3009C41.4316 23.4677 41.1129 23.6065 40.7837 23.7155C40.4803 23.8159 40.1825 23.9323 39.8913 24.064C39.6251 24.1328 39.3748 24.2533 39.1547 24.4185C38.9555 24.5733 38.7304 24.6913 38.4899 24.767C38.325 24.8351 38.1548 24.8894 37.9809 24.9292C37.7597 24.9792 37.5448 25.0538 37.3401 25.1515C37.2766 25.1935 37.2053 25.2221 37.1305 25.2357C37.0413 25.2362 36.9533 25.2567 36.873 25.2957C36.4478 25.4219 35.9866 25.5842 35.4716 25.7764C35.0684 25.9462 34.6387 26.0438 34.202 26.0648C33.7584 26.0889 33.3179 25.9779 32.9383 25.7464C32.8122 25.6636 32.6957 25.5668 32.591 25.458C32.4842 25.349 32.3657 25.2523 32.2376 25.1696C31.975 24.898 31.7309 24.6089 31.507 24.3043C31.2641 23.9895 31.0402 23.6604 30.8363 23.3189C30.7593 23.0265 30.7171 22.726 30.7105 22.4237V21.4623C30.7486 21.2896 30.8243 21.1275 30.9321 20.9876C31.0346 20.8166 31.1529 20.6557 31.2854 20.5069C31.7101 20.1791 32.2148 19.9716 32.7467 19.9061L33.13 19.876L33.5132 19.84C34.0448 19.8381 34.5718 19.7426 35.0703 19.5576C35.6478 19.3459 36.2117 19.0991 36.7592 18.8185L38.1606 18.1155L39.4362 17.4786L40.1249 17.0881C40.5907 16.8183 41.0705 16.5736 41.5622 16.355C42.0668 16.1785 42.5385 15.9186 42.9576 15.5859C43.4136 15.2361 43.9055 14.936 44.4248 14.6906C44.6764 14.5224 44.9459 14.3662 45.2214 14.216C45.4968 14.0658 45.7424 13.9276 45.952 13.7954C46.2934 13.5851 46.6108 13.4048 46.9102 13.2546C47.1951 13.1113 47.4711 12.9508 47.7367 12.7739L48.4972 12.2331L49.2638 11.6924C49.3057 11.4761 49.3596 11.2117 49.4255 10.8932C49.4914 10.5748 49.5573 10.2203 49.6471 9.83574C49.7342 9.44056 49.7863 9.03842 49.8028 8.63402C49.8028 8.22544 49.8567 7.85291 49.8986 7.51643C49.9431 7.11751 49.9551 6.71561 49.9345 6.31472C49.9069 5.86315 49.8306 5.41591 49.707 4.98082C49.6231 4.55422 49.5573 4.1937 49.5153 3.89928L49.3716 3.00401C49.314 2.42801 49.4309 1.84797 49.707 1.33964C49.8749 1.13513 50.0776 0.962201 50.3059 0.828915C50.6181 0.65325 50.9447 0.504505 51.282 0.384282C51.613 0.260466 51.9535 0.164007 52.3001 0.0958713C52.5721 0.0384444 52.8487 0.00626292 53.1266 -0.000265579C53.5678 -0.0219622 54.0095 0.0329205 54.4321 0.161965C54.7811 0.303676 55.1126 0.485121 55.4203 0.702735C55.955 1.02029 56.3874 1.48541 56.666 2.04264C56.9036 2.58292 57.1037 3.13904 57.2648 3.70701C57.2624 3.94272 57.2825 4.17813 57.3247 4.41001C57.3638 4.68753 57.3433 4.97022 57.2648 5.23919C57.2227 5.92499 57.1367 6.60736 57.0073 7.2821C56.8816 7.91901 56.7738 8.60398 56.6899 9.32501C56.6715 9.64812 56.6295 9.96944 56.5642 10.2864C56.4743 10.755 56.3905 11.2838 56.3066 11.8847C56.2228 12.3954 56.127 12.8821 56.0192 13.3507C55.9114 13.8194 55.8215 14.204 55.7317 14.4984C55.5644 15.0629 55.4403 15.6394 55.3604 16.2228C55.2706 16.8237 55.2107 17.2923 55.1688 17.6288C55.1688 17.761 55.1568 17.9613 55.1328 18.2297C55.1328 18.4881 55.1328 18.7224 55.1328 18.9327C55.0909 19.4014 55.061 19.7979 55.037 20.1344C55.0131 20.4709 55.037 20.8254 55.037 21.252C55.037 21.5464 55.037 21.8528 55.037 22.0812C55.0172 22.317 54.9852 22.5516 54.9412 22.7842C54.8514 23.2108 54.7915 23.5112 54.7495 23.6794L54.498 24.4005C54.4222 24.5182 54.311 24.6087 54.1806 24.6588L53.7314 24.785L53.4799 25.0434L53.2224 25.2957C53.1493 25.3728 53.0643 25.4377 52.9709 25.488C52.9415 25.5263 52.9001 25.5536 52.8535 25.5656C52.8068 25.5776 52.7575 25.5735 52.7134 25.5541C52.671 25.5333 52.6227 25.528 52.5769 25.539C52.531 25.5499 52.4903 25.5765 52.4618 25.6142L52.1025 25.7764L51.7851 25.9387C51.671 26.0196 51.5398 26.073 51.4018 26.0949C51.2922 26.1126 51.1855 26.1449 51.0844 26.191C51.0203 26.2151 50.9657 26.2594 50.9287 26.3172C50.9029 26.3654 50.8707 26.4099 50.8329 26.4494L50.5454 26.5756L50.2579 26.7017H50.0723ZM32.2436 11.9447C32.2001 11.7513 32.1974 11.551 32.2356 11.3565C32.2737 11.1619 32.3519 10.9776 32.4652 10.8151C32.7252 10.4236 33.0375 10.0698 33.3935 9.76363L34.3457 9.01256C34.6305 8.794 34.9285 8.59333 35.238 8.41171C35.5145 8.27288 35.7807 8.11424 36.0345 7.93703C36.2875 7.75672 36.5537 7.59603 36.831 7.45635C37.0407 7.33017 37.3461 7.16794 37.7533 6.97566C38.1606 6.78339 38.5259 6.62717 38.8672 6.49498C39.2086 6.36279 39.6937 6.26665 40.3345 6.05035C40.8546 5.87671 41.3846 5.73426 41.9215 5.62374L42.9396 5.40743C43.2771 5.33708 43.6195 5.29289 43.9637 5.27524C44.4599 5.23313 44.9587 5.23313 45.4549 5.27524C45.8942 5.30744 46.3305 5.3717 46.7605 5.46752C46.8348 5.48154 46.9051 5.51201 46.9662 5.5567C47.0273 5.60139 47.0778 5.65919 47.1138 5.72588C47.1455 5.77493 47.1593 5.83349 47.1527 5.89157C47.1462 5.94965 47.1197 6.00365 47.0779 6.04434L47.018 6.30271C46.9761 6.34477 46.9761 6.40485 47.018 6.48897C47.0506 6.54837 47.071 6.61377 47.0779 6.68124L47.1438 6.9997C47.17 7.04973 47.1837 7.1054 47.1837 7.16193C47.1837 7.21845 47.17 7.27413 47.1438 7.32416C47.0815 7.40258 47.0273 7.48714 46.9821 7.57652C46.9019 7.73492 46.8589 7.90961 46.8563 8.08725L46.7904 8.4057C46.7867 8.4645 46.7659 8.52091 46.7305 8.56793C46.6873 8.63395 46.6644 8.71126 46.6647 8.79025C46.6385 8.85493 46.5949 8.91107 46.5389 8.95248C46.4797 8.98775 46.435 9.04319 46.4131 9.1087C46.3233 9.19883 46.2814 9.25891 46.2814 9.30097V9.43316C46.2451 9.50533 46.2132 9.57956 46.1856 9.65548C46.1594 9.73198 46.1274 9.80631 46.0897 9.8778C45.9055 9.97452 45.6983 10.0182 45.4909 10.004C45.2204 10.0033 44.9515 10.0459 44.6943 10.1302C44.5079 10.2249 44.3041 10.2802 44.0955 10.2924C43.8619 10.2924 43.7062 10.2924 43.6223 10.2924L42.73 10.4847C42.6043 10.5267 42.3767 10.6168 42.0593 10.743C41.7419 10.8692 41.5382 10.9533 41.4604 10.9954L40.5681 11.3138C40.2618 11.4154 39.9652 11.5441 39.6817 11.6984C39.2086 11.9147 38.7894 12.113 38.4061 12.2992C38.0228 12.4855 37.5976 12.7138 37.1305 12.9722C36.9028 13.0715 36.6893 13.2008 36.4957 13.3567C36.3896 13.4562 36.2708 13.5411 36.1423 13.6091C35.9128 13.7181 35.665 13.7833 35.4117 13.8014H35.1602C35.041 13.833 34.9165 13.8391 34.7949 13.8194C34.7119 13.7886 34.6253 13.7684 34.5373 13.7593C34.3724 13.6912 34.2022 13.6369 34.0283 13.5971C33.7279 13.5159 33.4468 13.3749 33.2018 13.1825C32.9729 13.0439 32.7583 12.8829 32.561 12.7018C32.4543 12.6081 32.3703 12.4912 32.3153 12.36C32.2603 12.2288 32.2358 12.0868 32.2436 11.9447ZM38.8313 42.4201C38.7211 42.2689 38.6548 42.0901 38.6397 41.9034C38.6007 41.6731 38.5807 41.44 38.5798 41.2064V39.9266C38.583 39.6492 38.603 39.3723 38.6397 39.0974C38.6816 38.7549 38.7475 38.3944 38.8313 38.0098C39.0469 37.409 39.2385 36.9343 39.4302 36.5738C39.5436 36.3202 39.6715 36.0734 39.8135 35.8347C40.0342 35.3533 40.301 34.8945 40.61 34.4648C40.9274 34.0141 41.2089 33.5575 41.5323 33.0888C41.7357 32.7566 41.9598 32.4376 42.203 32.1335C42.4306 31.833 42.6582 31.5326 42.8678 31.1721C43.0445 30.95 43.2047 30.715 43.3469 30.4691L43.7182 29.7661C43.8439 29.5558 43.9937 29.2674 44.1613 28.9069C44.2596 28.6412 44.4322 28.4096 44.6584 28.2399C44.8799 28.0797 45.1543 28.0109 45.425 28.0477C45.4635 28.067 45.4978 28.094 45.5256 28.1271C45.5534 28.1602 45.5742 28.1985 45.5867 28.2399C45.595 28.2823 45.6136 28.322 45.6407 28.3555C45.6678 28.389 45.7028 28.4154 45.7424 28.4322C45.7718 28.4536 45.8085 28.4624 45.8444 28.4568C45.8803 28.4511 45.9125 28.4315 45.934 28.4022C45.9759 28.3361 46.0179 28.3481 46.0598 28.4322C46.1017 28.5163 46.1556 28.6125 46.2215 28.7206C46.2874 28.8288 46.3353 28.9249 46.3832 29.009C46.4311 29.0931 46.5269 29.1352 46.5688 29.1352C46.6108 29.1352 46.6766 29.2013 46.7605 29.3275C46.8115 29.4713 46.8756 29.6101 46.9521 29.7421C46.9921 29.8024 47.0187 29.8706 47.0301 29.9422C47.0414 30.0137 47.0373 30.0869 47.018 30.1567L46.9521 30.6434C46.9365 30.7638 46.8818 30.8757 46.7964 30.9618C46.6842 31.1008 46.5878 31.252 46.509 31.4124C46.5956 31.4978 46.6921 31.5724 46.7964 31.6348C46.9297 31.7169 47.0677 31.7912 47.2096 31.8571C47.5031 31.9893 47.8684 32.1335 48.2876 32.3077C48.672 32.4629 49.0361 32.6647 49.3716 32.9086C49.4837 32.9615 49.5901 33.0259 49.689 33.1008C49.8869 33.2456 50.1022 33.3648 50.3298 33.4554C50.5906 33.5688 50.8282 33.7297 51.0305 33.93C51.2564 34.0758 51.4437 34.2745 51.5761 34.5089C51.7086 34.7434 51.7824 35.0066 51.7911 35.2759C51.7918 35.448 51.7717 35.6195 51.7312 35.7867C51.6833 35.9549 51.6414 36.1051 51.5994 36.2313C51.4994 36.7072 51.2948 37.1547 51.0006 37.5412C50.6955 37.9053 50.3544 38.2375 49.9825 38.5326C49.8099 38.6733 49.6278 38.8018 49.4375 38.9171C49.2878 39.0012 49.0662 39.1515 48.7727 39.3618C48.524 39.557 48.2573 39.7281 47.9762 39.8725C47.6528 40.0467 47.3234 40.215 46.9881 40.3832C46.5629 40.5995 46.1137 40.8339 45.6526 41.0862C45.1661 41.353 44.6979 41.6521 44.2512 41.9815C44.0356 42.1077 43.784 42.2459 43.4846 42.3961C43.2149 42.529 42.96 42.6901 42.724 42.8768C42.4534 43.0739 42.1518 43.2242 41.8317 43.3214C41.31 43.4628 40.7603 43.4628 40.2387 43.3214C39.9437 43.3014 39.6582 43.2087 39.4074 43.0515C39.1567 42.8943 38.9485 42.6774 38.8014 42.4201H38.8313ZM41.4125 39.0553C41.3706 39.1394 41.3706 39.2055 41.4125 39.2476C41.4544 39.2897 41.5203 39.3738 41.7299 39.3738C42.0197 39.3878 42.3078 39.3213 42.5623 39.1815C42.7719 39.0553 43.0055 38.9051 43.263 38.7369C43.5047 38.6356 43.7389 38.5171 43.9637 38.3824C44.184 38.258 44.396 38.1195 44.5985 37.9678C44.9304 37.7494 45.2484 37.5107 45.5507 37.2528C45.8628 37.0033 46.1607 36.7365 46.4431 36.4536C46.5737 36.3179 46.7116 36.1895 46.8563 36.0691C46.9191 36.0252 46.9715 35.968 47.0098 35.9016C47.0481 35.8351 47.0714 35.761 47.0779 35.6845C47.0702 35.5287 47.0272 35.3766 46.9521 35.2399C46.8654 35.0678 46.7589 34.9065 46.6347 34.7592C46.5092 34.613 46.4026 34.4515 46.3173 34.2785C46.1805 34.0878 46.0305 33.9071 45.8681 33.7378C45.6585 33.5034 45.4909 33.3232 45.3591 33.197L45.1734 33.0648C44.8706 33.2412 44.6091 33.4809 44.4069 33.7678C44.1913 34.0682 43.9817 34.3687 43.7721 34.597C43.596 34.8427 43.436 35.0996 43.293 35.3661C43.1107 35.6951 42.9108 36.0141 42.6941 36.3214C42.4253 36.7661 42.1813 37.2255 41.9634 37.6974C41.7424 38.1338 41.5581 38.5881 41.4125 39.0553Z" fill="white"/>
<path d="M9.10296 73.0824C8.91132 73.2747 8.69572 73.485 8.45018 73.7133C8.22551 73.9261 7.96626 74.0988 7.68362 74.224C7.53413 74.492 7.33008 74.7254 7.08473 74.909C6.83715 75.0852 6.60836 75.2865 6.40201 75.5099C6.12245 75.7512 5.85654 76.0079 5.6055 76.279C5.4301 76.4845 5.22879 76.6663 5.00662 76.8197C4.5874 77.0841 4.19214 77.3545 3.80886 77.6189L3.3597 78.0755C3.32951 78.1067 3.2891 78.1259 3.24591 78.1296C3.2236 78.1301 3.2017 78.1357 3.18195 78.1462C3.1622 78.1566 3.14514 78.1715 3.13212 78.1897C2.79725 78.3605 2.42324 78.4393 2.04815 78.418L1.79662 78.2738C1.72707 78.2201 1.66105 78.1619 1.59899 78.0996C1.52616 78.0639 1.44992 78.0357 1.37142 78.0154C1.30667 78.0047 1.24637 77.9755 1.19774 77.9313C1.11045 77.8856 1.03447 77.8209 0.975392 77.7419C0.916317 77.6628 0.87565 77.5715 0.856379 77.4747C0.835594 77.4001 0.796469 77.3319 0.742592 77.2764C0.674567 77.1976 0.616255 77.1108 0.568917 77.018C0.478374 76.9127 0.420138 76.7833 0.40123 76.6455C0.376798 76.5307 0.34274 76.4181 0.299421 76.309C0.299421 76.267 0.25151 76.1948 0.155689 76.0807C0.076892 76.0034 0.0262692 75.9019 0.011958 75.7923C-0.0265484 75.4653 0.0124385 75.1339 0.125745 74.8249C0.240794 74.5094 0.400103 74.212 0.598861 73.9416C0.599323 73.9193 0.604976 73.8973 0.615371 73.8775C0.625766 73.8576 0.640617 73.8405 0.658749 73.8275C0.658749 73.7854 0.658749 73.7674 0.658749 73.7674C0.658749 73.7674 0.658749 73.7674 0.658749 73.7133C0.704695 73.5347 0.805217 73.375 0.946211 73.2567C1.07738 73.1531 1.17527 73.0131 1.22769 72.8541L1.37142 72.5416C1.4158 72.4253 1.483 72.319 1.56905 72.2292L2.3416 71.5022C2.45126 71.3555 2.57568 71.2206 2.71291 71.0996C2.81406 71.0208 2.90113 70.9253 2.97043 70.8172L3.28184 70.5047C3.39747 70.3867 3.50174 70.2579 3.59326 70.1202L3.70705 70.006C3.83534 69.7557 3.9987 69.525 4.19214 69.3211C4.30055 69.1752 4.42512 69.0422 4.56345 68.9245C4.73113 68.7743 4.89283 68.6181 5.04854 68.4678C5.20425 68.3176 5.49171 68.0052 5.70132 67.7528C5.91093 67.5005 6.09059 67.3082 6.24031 67.152C6.42163 66.9685 6.58414 66.7672 6.72541 66.5511C6.89309 66.2867 7.03682 66.0764 7.15061 65.9503C7.24868 65.8052 7.36324 65.6722 7.49197 65.5537C7.52732 65.479 7.57376 65.4101 7.62972 65.3494C7.6907 65.2939 7.73963 65.2264 7.77345 65.1511C7.79877 65.0943 7.83789 65.0447 7.88723 65.0069C7.93051 64.987 7.96924 64.9584 8.00102 64.9228C8.06321 64.8367 8.1117 64.7414 8.14475 64.6404C8.19865 64.4902 8.24656 64.376 8.2825 64.2979C8.38493 64.0851 8.50938 63.8837 8.6538 63.6971C8.79956 63.4843 8.96176 63.2834 9.13889 63.0962C9.20745 63.0303 9.26417 62.9531 9.30658 62.8679C9.35227 62.7832 9.41087 62.7061 9.48026 62.6396C9.5609 62.4221 9.67619 62.2191 9.82162 62.0387L10.2708 61.4739C10.4604 61.225 10.6306 60.9619 10.7798 60.6868C10.9639 60.3741 11.1068 60.0388 11.205 59.6894C11.2829 59.461 11.5284 58.8542 11.9476 57.8868C12.0287 57.6807 12.1227 57.48 12.2291 57.2859C12.3429 57.0756 12.4567 56.8774 12.5705 56.6851C12.643 56.5749 12.709 56.4606 12.7681 56.3426C12.828 56.2304 12.8939 56.1163 12.9657 56.0001C13.075 55.7467 13.199 55.4999 13.337 55.2611C13.4751 55.0222 13.5991 54.7754 13.7084 54.522C13.7822 54.442 13.8302 54.3415 13.8461 54.2336C13.8617 54.1261 13.9122 54.0269 13.9898 53.9512C14.0996 53.717 14.2277 53.492 14.3731 53.2782C14.5032 53.1089 14.6175 52.9279 14.7145 52.7375C14.7923 52.5452 14.8762 52.3529 14.972 52.1366C15.0743 51.9331 15.1989 51.7417 15.3433 51.5658C15.4617 51.357 15.5937 51.1563 15.7386 50.9649L16.1937 50.3641L16.8764 49.5109C16.8964 49.4509 16.9367 49.3999 16.9902 49.3667C17.0408 49.3301 17.0802 49.2802 17.104 49.2225C17.3558 48.8968 17.6453 48.6023 17.9664 48.3452C18.4065 48.016 18.9104 47.7827 19.4456 47.6602C19.6424 47.6182 19.8434 47.6 20.0445 47.6062C20.2615 47.6577 20.4654 47.7539 20.6434 47.8886L21.0147 48.2611L21.38 48.6336C21.4775 48.8287 21.5635 49.0293 21.6375 49.2345C21.7241 49.4529 21.7727 49.6846 21.7813 49.9195C21.7633 50.2336 21.6434 50.5332 21.4399 50.7727C21.3291 51.1541 21.1658 51.5181 20.9548 51.8542C20.7093 52.2748 20.4937 52.6173 20.302 52.8817C20.1104 53.146 19.793 53.3744 19.5654 53.5666C19.3305 53.782 19.1287 54.031 18.9665 54.3057C18.779 54.5724 18.6429 54.872 18.5653 55.1889C18.4874 55.4533 18.4156 55.6997 18.3377 55.928C18.2598 56.1563 18.188 56.4027 18.1101 56.6671C18.0312 56.8573 17.9924 57.0619 17.9963 57.2679C17.9935 57.4693 17.9755 57.6701 17.9424 57.8688C17.9442 58.0706 17.9241 58.2721 17.8825 58.4696C17.8466 58.6559 17.8167 58.8482 17.7987 59.0705C17.7807 59.2928 17.7508 59.449 17.7149 59.6353V60.0379C17.6729 60.2301 17.649 60.4164 17.625 60.6387C17.6091 60.8157 17.5625 60.9885 17.4873 61.1494C17.3832 61.5361 17.2593 61.9172 17.116 62.2911C16.9842 62.6335 16.8585 62.9941 16.7447 63.3726C16.7087 63.4868 16.6728 63.6009 16.6309 63.7151C16.603 63.813 16.5649 63.9076 16.5171 63.9975C16.4573 64.1618 16.3724 64.3159 16.2656 64.4541C16.1741 64.5639 16.0881 64.6782 16.0081 64.7966C15.9721 64.8747 15.9302 64.9528 15.8943 65.025C15.8583 65.0971 15.8164 65.1812 15.7805 65.2533C15.7492 65.3179 15.7212 65.3841 15.6966 65.4516C15.6655 65.5301 15.6162 65.6001 15.5529 65.6558C15.5195 65.7195 15.4915 65.7858 15.4691 65.8541C15.4445 65.9216 15.4165 65.9878 15.3852 66.0524C15.2476 66.2348 15.0954 66.4056 14.9301 66.5631C14.7774 66.6941 14.66 66.8614 14.5887 67.0498C14.5068 67.2372 14.4107 67.418 14.3012 67.5906C14.2188 67.6798 14.1447 67.7763 14.0797 67.879C14.0109 67.9787 13.9348 68.0731 13.8521 68.1614C13.6964 68.3537 13.5467 68.5339 13.3969 68.7022C13.24 68.8795 13.0677 69.0423 12.8819 69.1889C12.81 69.267 12.7442 69.3391 12.6843 69.4172C12.6244 69.4953 12.5585 69.5674 12.4866 69.6455C12.295 69.8318 12.1453 69.994 12.0315 70.1262C11.9177 70.2584 11.768 70.4206 11.5763 70.6129C11.397 70.7565 11.2343 70.9197 11.0912 71.0996C10.9229 71.3098 10.743 71.5104 10.5523 71.7005L9.98332 72.2713C9.80628 72.4529 9.61828 72.6235 9.42037 72.782C9.36475 72.8332 9.31639 72.8918 9.27664 72.9562C9.22554 73.007 9.16696 73.0495 9.10296 73.0824ZM2.06013 76.7897L2.22782 76.9039L2.3955 76.7296L2.79076 76.5614H2.99438V76.5073L2.82071 76.1648L2.22183 76.5614L2.06013 76.7897ZM2.51528 77.0721L2.2877 77.4747L2.51528 77.5888L2.79675 77.7571L3.198 77.3004L2.79675 76.9099L2.51528 77.0721ZM3.02433 75.8223V76.0506L3.13811 76.1047L3.2519 76.0506L3.42558 75.8764H3.59326L3.53337 75.7082L3.2519 75.6481L3.02433 75.8223ZM3.62321 75.5339L3.90468 75.4197L4.07836 75.0232L4.87487 74.7348L4.81498 74.4524L4.5874 74.3382L3.98852 74.8489L3.93462 74.7949L3.87474 75.0232L3.64716 75.2515L3.62321 75.5339ZM4.13225 76.0506L3.79089 75.9906L3.85078 76.279L3.59326 76.7296L3.70705 76.7897L4.10231 76.5073L4.04841 76.309L4.13225 76.0506ZM4.41972 75.594V75.6481H4.5874L4.76108 75.4197L4.98865 75.1914L4.76108 75.1373L4.41972 75.594ZM5.33002 73.8275L5.10244 74.17L5.38391 74.4524L5.61149 74.2841L5.77918 73.9957L5.89296 73.8275L6.23432 73.6532L6.12054 73.485H5.69533L5.33002 73.8275ZM5.38391 75.1373L5.4438 75.2515L5.61149 75.1914L5.83906 74.9631L6.06664 74.8489L5.89296 74.6807L5.83906 74.7348L5.77918 74.6807L5.67138 74.6206L5.38391 75.1373ZM6.12054 73.0824H6.34811L6.57569 72.9683L7.25841 72.3674L6.97694 72.1992L6.68947 72.6498L6.29421 72.764L6.00675 73.0524L6.12054 73.0824ZM6.29421 74.7348L6.57569 74.3983L6.4619 74.17L6.12054 74.6206L6.29421 74.7348ZM6.86315 73.9957H7.03084L7.14462 73.7674L7.09072 73.5992L6.80326 73.7674L6.86315 73.9957ZM7.25841 73.5992L7.3722 73.6532L7.71356 73.5391L7.94113 73.3708L8.16871 73.0283L8.45018 72.8541L8.56397 72.5717L8.96522 72.3434L9.19279 72.0009L9.13291 71.6584H8.90533L8.38431 72.103L8.27052 72.2172L8.21063 72.3313L8.27052 72.4996L7.98306 72.788L7.76147 72.5597L7.47401 72.6738L7.30632 72.9562L7.36022 73.0704L7.81537 72.9022L7.92916 72.9562L7.86927 73.0163L7.30632 73.4129L7.25841 73.5992ZM7.59977 71.6043L7.48598 71.8867L7.77345 72.0009L8.22261 71.7185L8.51007 71.4301L8.45018 71.1477L8.16871 71.376L7.59977 71.6043ZM8.90533 71.2017H8.96522L9.30658 70.9734L9.07901 70.8593L8.79154 71.0876L8.90533 71.2017ZM9.30658 70.691L9.53416 70.8593L9.76173 70.5769L9.64794 70.3485L9.30658 70.691ZM9.36048 71.4902L9.58805 71.6584L9.92942 71.4301L9.64794 71.1477L9.36048 71.4902ZM9.87552 69.8378L9.98332 70.006L10.0432 69.952L10.3247 69.4953L10.2708 69.3811L9.87552 69.8378ZM10.157 70.5769L10.0432 70.8593L10.2109 70.9734L10.7798 70.5769L10.9535 70.1202L10.7798 70.006L10.157 70.5769ZM10.666 68.9245L10.6121 69.0927L10.7798 69.3211L11.0673 68.8644L10.666 68.9245ZM11.0074 68.3537L11.235 68.5219L11.5224 68.0112L11.2949 67.9571L11.0074 68.3537ZM11.4626 69.4352L11.3488 69.3211H11.1811L11.1212 69.7236L11.235 69.7777L11.4626 69.4352ZM11.5763 67.7288L11.8039 67.6146H11.9776L12.1453 67.3262L12.2052 66.8696L12.3728 66.6413L12.4327 66.1846L12.0315 66.5271L11.75 66.8696V67.0979L11.5823 67.3262L11.4685 67.5546L11.5763 67.7288ZM12.0315 68.8644L12.3728 68.4078L12.0315 68.3537L11.8039 68.6361L11.5224 68.6962L11.6362 68.9245L12.0315 68.8644ZM11.8638 68.1794L11.9177 68.1254L12.0854 67.843L11.75 67.9571L11.8638 68.1794ZM12.828 66.7554L12.4866 67.7288L12.7681 67.897L13.1095 67.2121L13.5646 66.7554L13.3969 66.5271L12.828 66.7554ZM12.8819 66.2988L13.1694 66.3589L13.4508 66.0704L13.6245 65.6198L13.3969 65.3915L13.2233 65.788L13.1694 65.9022L13.1095 65.9623L12.9418 66.0164L12.8819 66.2988ZM20.9608 76.6215C20.9616 76.7357 20.9798 76.8492 21.0147 76.9579C21.0356 77.0031 21.0464 77.0523 21.0464 77.1021C21.0464 77.152 21.0356 77.2012 21.0147 77.2463C20.9755 77.4416 20.8772 77.62 20.7332 77.7571C20.6163 77.835 20.4783 77.8749 20.338 77.8712C20.165 77.8693 19.9926 77.8512 19.8229 77.8172L19.5115 77.703L19.2001 77.5888C19.1068 77.5446 19.0108 77.5065 18.9126 77.4747C18.8164 77.443 18.7223 77.4048 18.6311 77.3605C18.3129 77.2399 18.0079 77.0869 17.7208 76.9039C17.6269 76.8151 17.5223 76.7384 17.4094 76.6755C17.2956 76.6143 17.1908 76.5374 17.098 76.4472C16.8823 76.2638 16.682 76.0628 16.4991 75.8464L16.1877 75.3296C16.0861 75.1688 16.0018 74.9976 15.9362 74.8189L15.7625 73.9657C15.7646 73.9061 15.7544 73.8468 15.7326 73.7914C15.7211 73.7359 15.7211 73.6787 15.7326 73.6232V73.3047C15.6917 73.156 15.6715 73.0023 15.6727 72.8481C15.6725 72.6963 15.6544 72.545 15.6188 72.3974C15.5786 72.2878 15.5583 72.1718 15.5589 72.055C15.5586 71.9387 15.5404 71.8232 15.505 71.7125C15.5148 71.5704 15.5148 71.4279 15.505 71.2859C15.4843 71.1245 15.4743 70.9619 15.475 70.7992C15.4755 70.5985 15.4655 70.3979 15.4451 70.1983C15.4451 69.97 15.4451 69.6996 15.4451 69.3992C15.4154 69.1579 15.4751 68.9142 15.6128 68.7142C15.8209 68.5656 16.07 68.4857 16.3255 68.4859C16.6376 68.4468 16.9542 68.4651 17.2597 68.54C17.3666 68.5393 17.4697 68.5802 17.5472 68.6541C17.5792 68.6909 17.6178 68.7215 17.661 68.7442C17.7101 68.7798 17.7492 68.8274 17.7747 68.8824C17.8663 68.9801 17.9504 69.0846 18.0263 69.1949C18.0997 69.2973 18.1677 69.4036 18.2299 69.5133C18.2726 69.6055 18.3105 69.6997 18.3437 69.7957C18.3796 69.9099 18.4156 70.0241 18.4575 70.1382C18.5653 70.5949 18.6611 70.9734 18.7389 71.2799C18.8168 71.5863 18.8348 71.9228 18.9066 72.3073C18.9486 72.4575 18.9845 72.6077 19.0204 72.758C19.0564 72.9082 19.0983 73.0644 19.1342 73.2146C19.2407 73.6402 19.4146 74.0459 19.6492 74.4163C19.6823 74.4851 19.7203 74.5514 19.763 74.6146C19.799 74.6687 19.8349 74.7348 19.8768 74.8129C19.95 74.9938 20.0445 75.1652 20.1583 75.3236C20.1858 75.3879 20.2243 75.4469 20.2721 75.4979C20.3182 75.5479 20.3566 75.6046 20.3859 75.6661C20.5229 75.8508 20.6752 76.0236 20.841 76.1828C20.8955 76.2438 20.9437 76.3103 20.9847 76.3811C21.0254 76.4411 21.0539 76.5084 21.0686 76.5794L20.9608 76.6215ZM37.4899 79.1811C37.4444 79.3605 37.3781 79.534 37.2923 79.6978C37.2077 79.8766 37.0826 80.0329 36.9269 80.1545H36.8671C36.7064 80.2763 36.5633 80.4199 36.4418 80.5811C36.3309 80.7341 36.2067 80.8768 36.0705 81.0077L35.3878 81.6086C35.1594 81.8025 34.9127 81.9735 34.6512 82.1193C34.4396 82.2847 34.2003 82.4108 33.9445 82.4918C33.6571 82.5879 33.3456 82.6721 33.0642 82.7502C32.7328 82.8988 32.3904 83.0214 32.0401 83.1167L30.9022 83.4291C30.4596 83.4533 30.0213 83.5299 29.5966 83.6575C29.5394 83.6456 29.4803 83.6456 29.423 83.6575C29.3701 83.6802 29.3127 83.6905 29.2553 83.6875L28.3749 83.8317C28.0834 83.8939 27.7812 83.8836 27.4946 83.8017C27.4406 83.8241 27.3824 83.8345 27.3241 83.8321C27.2657 83.8296 27.2086 83.8144 27.1567 83.7875C27.1048 83.7606 27.0594 83.7227 27.0236 83.6764C26.9878 83.63 26.9626 83.5764 26.9496 83.5193C26.8544 83.2346 26.8058 82.9363 26.8059 82.636C26.8059 82.2935 26.8059 81.9991 26.8358 81.7528C26.8511 81.531 26.8791 81.3103 26.9197 81.0918C26.9511 80.8855 27.0075 80.6837 27.0873 80.491C27.1652 80.3167 27.243 80.1365 27.3149 79.9502C27.4056 79.4819 27.5399 79.0233 27.7162 78.5802C27.8589 78.1882 28.029 77.8067 28.2252 77.4386C28.3225 77.3312 28.3996 77.2071 28.4528 77.0721C28.5306 76.8979 28.6025 76.7176 28.6804 76.5313C28.7582 76.3451 28.8241 76.1588 28.878 75.9845C28.9355 75.821 29.0015 75.6606 29.0756 75.5039L29.3032 75.0472C29.3827 74.8511 29.4506 74.6504 29.5068 74.4464C29.558 74.2415 29.624 74.0407 29.7044 73.8455C29.7763 73.467 29.8482 73.1125 29.9021 72.794C29.956 72.4756 30.0219 72.1571 30.0997 71.8507C30.1169 71.7037 30.1552 71.56 30.2135 71.4241C30.2633 71.2787 30.3213 71.1362 30.3872 70.9975C30.3946 70.9405 30.4146 70.886 30.4457 70.8378C30.4769 70.7896 30.5184 70.7491 30.5672 70.7191C30.616 70.6891 30.6709 70.6705 30.7279 70.6646C30.7848 70.6587 30.8423 70.6657 30.8962 70.685C31.1839 70.7512 31.455 70.8759 31.6927 71.0515C31.8183 71.1436 31.9242 71.2601 32.0041 71.394C32.0749 71.5188 32.1615 71.634 32.2617 71.7365C32.5763 71.832 32.8409 72.0478 32.9983 72.3374C33.0656 72.4426 33.1672 72.5211 33.2858 72.5597C33.3439 72.5852 33.3946 72.625 33.4334 72.6754C33.4721 72.7258 33.4975 72.7852 33.5073 72.8481C33.552 73.0742 33.552 73.3069 33.5073 73.5331C33.4714 73.8775 33.4534 74.1059 33.4534 74.218C33.4527 74.298 33.4321 74.3764 33.3935 74.4464L33.2858 74.6687C33.4279 74.7449 33.5787 74.8034 33.7349 74.8429C33.8906 74.879 34.0583 74.921 34.2499 74.9571C34.3405 74.9893 34.4354 75.0075 34.5314 75.0112C34.6296 75.0172 34.7264 75.0375 34.8189 75.0712C35.0776 75.1715 35.3415 75.2578 35.6094 75.3296C35.8793 75.3992 36.1452 75.4834 36.4059 75.582C36.5197 75.6601 36.6275 75.7382 36.7173 75.8103C36.8346 75.9214 36.923 76.0596 36.9749 76.2129C37.0527 76.3631 37.1246 76.5253 37.2024 76.6936C37.2803 76.8618 37.3521 77.0661 37.43 77.2944C37.4336 77.3436 37.4437 77.3921 37.4599 77.4386C37.472 77.5223 37.472 77.6073 37.4599 77.691L37.4899 79.1811ZM36.4119 59.6293C36.4487 59.597 36.4889 59.5688 36.5317 59.5451C36.5737 59.5231 36.6121 59.4948 36.6455 59.461C36.748 59.3939 36.8443 59.3175 36.9329 59.2327C37.0382 59.1286 37.1524 59.0341 37.2743 58.9503C37.4474 58.7659 37.6497 58.6116 37.8732 58.4937C38.0126 58.3725 38.1653 58.2677 38.3283 58.1812C38.5559 58.043 38.7835 57.9228 39.011 57.8087L39.2386 57.6945L39.4662 57.5804C39.6159 57.5022 39.8255 57.4121 40.0651 57.298C40.3046 57.1838 40.5202 57.1057 40.664 57.0696C40.9275 56.9915 41.2029 56.9074 41.4844 56.8113C41.7659 56.7151 42.0474 56.631 42.3109 56.5529C42.5744 56.4748 42.8199 56.3726 43.2751 56.2404C43.7302 56.1083 44.1674 55.9641 44.5806 55.8138C44.7559 55.743 44.9361 55.6847 45.1196 55.6396C45.2659 55.6119 45.41 55.5738 45.5508 55.5254C45.79 55.4564 46.0408 55.438 46.2874 55.4714C46.4636 55.5055 46.6346 55.5621 46.7965 55.6396C46.9568 55.7213 47.1092 55.8178 47.2516 55.928L47.593 56.2705C47.7156 56.3948 47.8296 56.5273 47.9344 56.6671C47.9896 56.7187 48.0379 56.7772 48.0781 56.8413C48.1161 56.9034 48.1625 56.96 48.2158 57.0095C48.4075 57.1237 48.4853 57.352 48.4434 57.6945C48.4412 57.9061 48.3834 58.1134 48.2757 58.2954C48.1985 58.3721 48.132 58.459 48.0781 58.5537C48.0317 58.6368 47.9633 58.7055 47.8805 58.752L47.6529 58.9803C47.479 59.1558 47.2764 59.3001 47.054 59.407C46.8476 59.5198 46.6477 59.6442 46.4551 59.7795C46.3054 59.8576 46.1377 59.9297 45.9461 60.0078L45.3472 60.2361L44.2992 60.6627L43.2451 61.0893C42.9816 61.1675 42.7061 61.2636 42.4247 61.3778C42.1444 61.4889 41.8457 61.546 41.5443 61.546C41.4107 61.5541 41.2767 61.5541 41.1431 61.546C40.9514 61.546 40.7658 61.546 40.5442 61.546C40.3226 61.546 40.0172 61.6301 39.7477 61.6842C39.5044 61.7315 39.2543 61.7315 39.011 61.6842H38.502C38.3133 61.6574 38.1218 61.6574 37.9331 61.6842C37.7628 61.715 37.5883 61.715 37.418 61.6842C37.1893 61.6314 36.981 61.5123 36.8191 61.3417C36.4846 61.0245 36.2724 60.5989 36.2203 60.14C36.1085 60.4484 35.9947 60.7429 35.8789 61.0233C35.7652 61.3115 35.6692 61.6065 35.5914 61.9065C35.5183 62.1016 35.4622 62.3026 35.4238 62.5074C35.3965 62.6794 35.317 62.8389 35.1962 62.964C35.0374 63.1349 34.9205 63.3407 34.8548 63.5649C34.777 63.8112 34.7231 64.0095 34.6871 64.1657C34.63 64.3148 34.5619 64.4594 34.4835 64.5983C34.3878 64.7728 34.3038 64.9535 34.232 65.1391C34.1472 65.3154 34.0512 65.486 33.9445 65.6498C33.8727 65.764 33.7768 65.9142 33.663 66.1065L33.4055 66.7073C33.3097 66.9357 33.2438 67.0919 33.2079 67.164C33.182 67.4382 33.0662 67.696 32.8785 67.897C32.7173 68.0304 32.5352 68.136 32.3395 68.2095C32.2004 68.2852 32.0383 68.3066 31.8844 68.2696C31.6875 68.2277 31.4867 68.2075 31.2855 68.2095H30.6866C30.5105 68.2081 30.3364 68.2472 30.1776 68.3236C30.0383 68.3988 29.8763 68.4202 29.7224 68.3837C29.6421 68.3447 29.5541 68.3242 29.4649 68.3236C29.3761 68.325 29.2882 68.3065 29.2074 68.2696C29.1066 68.2025 29.0124 68.126 28.9259 68.0412L28.6983 67.8129C28.6036 67.7064 28.5358 67.5787 28.5007 67.4404L28.3031 66.8996C28.2009 66.7317 28.1242 66.5494 28.0755 66.3589C27.9943 66.0534 27.9739 65.7349 28.0156 65.4215L28.1294 64.2799C28.1653 64.0516 28.2252 63.679 28.3031 63.2524C28.3691 62.828 28.4631 62.4085 28.5845 61.9966C28.6205 61.8825 28.6624 61.7623 28.6983 61.6301C28.7343 61.4979 28.7762 61.3717 28.8121 61.2576C28.8511 61.1362 28.8792 61.0115 28.896 60.8851C28.9124 60.76 28.9426 60.637 28.9858 60.5185L29.1535 59.6593C29.1894 59.473 29.2194 59.2808 29.2373 59.0945C29.2553 58.9082 29.2852 58.71 29.3212 58.4937C29.3571 58.2773 29.387 58.1211 29.411 57.9529C29.437 57.7485 29.4831 57.5472 29.5487 57.352C29.5999 57.1555 29.63 56.9541 29.6386 56.7512C29.6446 56.5207 29.6727 56.2913 29.7224 56.0662C29.7283 55.8634 29.7565 55.6619 29.8063 55.4653C29.8758 55.1487 29.9218 54.8274 29.944 54.504C29.9544 54.2245 29.9925 53.9467 30.0578 53.6748C30.1297 53.3143 30.1895 52.9658 30.2255 52.6233C30.251 52.2612 30.251 51.8978 30.2255 51.5357C30.2255 51.2353 30.2255 51.043 30.2255 50.9709C30.2255 50.7426 30.2075 50.4182 30.1716 49.9976C30.1297 49.583 30.1117 49.3546 30.1117 49.3126C30.0699 49.1051 30.0036 48.9034 29.9141 48.7117C29.8271 48.4422 29.8271 48.1521 29.9141 47.8826C29.9697 47.7229 30.0687 47.5821 30.2 47.4759C30.3312 47.3697 30.4894 47.3025 30.6567 47.2817C30.7363 47.281 30.8145 47.2603 30.8842 47.2216C30.9358 47.1922 30.9929 47.1738 31.0519 47.1675C31.2293 47.1264 31.4136 47.1264 31.5909 47.1675C31.8526 47.1733 32.1115 47.222 32.3575 47.3117L32.8965 47.51L33.4355 47.7083C33.7859 47.7683 34.1292 47.865 34.4596 47.9967C34.6363 48.0877 34.7996 48.203 34.9446 48.3392C35.1123 48.4894 35.2381 48.6036 35.316 48.6817C35.3938 48.7598 35.4238 48.7538 35.5375 48.91C35.6513 49.0662 35.7771 49.2405 35.9088 49.4508C36.0406 49.6611 36.1544 49.8594 36.2502 50.0516L36.4478 50.4542C36.5227 50.6707 36.6211 50.8783 36.7413 51.0731C36.8732 51.2702 36.961 51.4936 36.9988 51.728C37.0146 51.9298 37.0426 52.1305 37.0826 52.3289C37.1457 52.6656 37.1758 53.0077 37.1725 53.3503C37.1725 53.7709 37.1725 54.1915 37.1126 54.6061C37.0527 55.0207 37.0347 55.3271 36.9988 55.5194C36.909 55.9611 36.8529 56.4091 36.8311 56.8593C36.8085 57.29 36.7505 57.7181 36.6574 58.1392C36.6542 58.3897 36.6261 58.6393 36.5736 58.8842C36.5137 59.1165 36.4658 59.3649 36.4299 59.6293H36.4119ZM32.6629 79.127C32.5842 79.0102 32.5179 78.8853 32.4653 78.7545L32.2677 78.3279C32.2222 78.2209 32.1549 78.1247 32.07 78.0455C31.9895 77.9818 31.9206 77.9045 31.8664 77.8172C31.7506 77.705 31.6189 77.723 31.4711 77.8712C31.4352 77.9493 31.3633 78.1116 31.2735 78.3579C31.1947 78.5537 31.1286 78.7544 31.0759 78.9588C30.9965 79.0795 30.9472 79.2175 30.9322 79.3614C30.9118 79.521 30.8632 79.6756 30.7884 79.818C30.6939 79.953 30.6361 80.1104 30.6207 80.2747C30.6264 80.3306 30.6264 80.387 30.6207 80.4429C30.6149 80.5008 30.6149 80.5592 30.6207 80.6171C30.6207 80.7674 30.7166 80.8455 30.9082 80.8455C31.013 80.8568 31.1171 80.8749 31.2196 80.8995C31.4007 80.9342 31.5879 80.9155 31.7586 80.8455C31.9056 80.7891 32.0479 80.7208 32.1838 80.6412L32.5551 80.4429C32.6768 80.3655 32.8103 80.3087 32.9504 80.2747C33.0642 80.2326 33.0821 80.0644 33.0103 79.7579L32.6629 79.127Z" fill="white"/>
</g>
<defs>
<clipPath id="clip0_496_1211">
<rect width="92" height="163" fill="white"/>
</clipPath>
</defs>
</svg>
