<svg width="17" height="16" viewBox="0 0 17 16" fill="none" xmlns="http://www.w3.org/2000/svg">
<path d="M14.1514 6.66675C14.1514 11.3334 8.15137 15.3334 8.15137 15.3334C8.15137 15.3334 2.15137 11.3334 2.15137 6.66675C2.15137 5.07545 2.78351 3.54933 3.90873 2.42411C5.03394 1.29889 6.56007 0.666748 8.15137 0.666748C9.74267 0.666748 11.2688 1.29889 12.394 2.42411C13.5192 3.54933 14.1514 5.07545 14.1514 6.66675Z" stroke="#A67C52" stroke-width="1.33333" stroke-linecap="round" stroke-linejoin="round"/>
<path d="M8.15137 8.66675C9.25594 8.66675 10.1514 7.77132 10.1514 6.66675C10.1514 5.56218 9.25594 4.66675 8.15137 4.66675C7.0468 4.66675 6.15137 5.56218 6.15137 6.66675C6.15137 7.77132 7.0468 8.66675 8.15137 8.66675Z" stroke="#A67C52" stroke-width="1.33333" stroke-linecap="round" stroke-linejoin="round"/>
</svg>
