<svg width="17" height="16" viewBox="0 0 17 16" fill="none" xmlns="http://www.w3.org/2000/svg">
<g clip-path="url(#clip0_496_1022)">
<path d="M14.8181 11.28V13.28C14.8188 13.4657 14.7808 13.6494 14.7064 13.8195C14.632 13.9897 14.5229 14.1424 14.3861 14.2679C14.2493 14.3934 14.0878 14.489 13.9119 14.5485C13.736 14.6079 13.5497 14.63 13.3647 14.6133C11.3133 14.3904 9.34274 13.6894 7.6114 12.5667C6.00062 11.5431 4.63496 10.1774 3.6114 8.56665C2.48472 6.82745 1.78357 4.84731 1.56474 2.78665C1.54808 2.60229 1.56999 2.41649 1.62907 2.24107C1.68815 2.06564 1.78312 1.90444 1.90791 1.76773C2.03271 1.63102 2.18461 1.52179 2.35393 1.447C2.52326 1.37221 2.7063 1.33349 2.8914 1.33332H4.8914C5.21494 1.33013 5.5286 1.4447 5.77391 1.65567C6.01923 1.86664 6.17946 2.15961 6.22474 2.47998C6.30915 3.12003 6.4657 3.74847 6.6914 4.35332C6.7811 4.59193 6.80051 4.85126 6.74734 5.10057C6.69417 5.34988 6.57065 5.57872 6.3914 5.75998L5.54474 6.60665C6.49377 8.27568 7.87571 9.65761 9.54474 10.6067L10.3914 9.75998C10.5727 9.58074 10.8015 9.45722 11.0508 9.40405C11.3001 9.35088 11.5595 9.37029 11.7981 9.45998C12.4029 9.68568 13.0314 9.84224 13.6714 9.92665C13.9952 9.97234 14.291 10.1355 14.5024 10.385C14.7138 10.6345 14.8262 10.953 14.8181 11.28Z" stroke="#A67C52" stroke-width="1.33333" stroke-linecap="round" stroke-linejoin="round"/>
</g>
<defs>
<clipPath id="clip0_496_1022">
<rect width="16" height="16" fill="white" transform="translate(0.151367)"/>
</clipPath>
</defs>
</svg>
