<svg width="146" height="50" viewBox="0 0 146 50" fill="none" xmlns="http://www.w3.org/2000/svg">
<g clip-path="url(#clip0_496_959)">
<path d="M27.0037 14.8625C26.1988 13.4441 25.332 12.063 24.4683 10.713C23.317 8.81835 22.7434 6.62632 22.8183 4.40774C22.8183 4.32375 22.905 4.16822 22.9545 4.16511C23.3074 4.16511 23.3632 3.80428 23.3632 3.50255C23.3632 2.51649 23.3384 1.53353 23.3074 0.550579C23.295 0.183526 23.0629 0 22.6542 0H17.8374C17.4318 0 17.1997 0.183526 17.1873 0.550579C17.1532 1.53353 17.1254 2.51649 17.1285 3.50255C17.1285 3.81361 17.1842 4.15267 17.5371 4.16511C17.5866 4.16511 17.6764 4.32375 17.6733 4.40774C17.7478 6.62628 17.1742 8.8182 16.0233 10.713C15.1627 12.0785 14.2959 13.4441 13.491 14.8625C12.0678 17.4046 11.3384 20.2794 11.3767 23.1958C11.3767 27.1588 11.5377 31.1217 11.6862 35.0846C11.7543 37.0319 12.4168 44.3573 12.6149 46.0682C12.8162 47.6857 13.5437 48.7869 14.7819 49.2161C16.5557 49.8725 18.407 49.9565 20.2427 50C22.0784 49.9565 23.9297 49.8725 25.7035 49.2161C26.9418 48.7869 27.6723 47.6857 27.8705 46.0682C28.0841 44.3573 28.7465 37.0474 28.7992 35.0846C28.9354 31.1217 29.0809 27.1588 29.1087 23.1958C29.15 20.2802 28.4238 17.4054 27.0037 14.8625Z" fill="#D64F4A"/>
<path d="M8.62766 44.7088C7.98521 44.2111 7.25039 43.8472 6.46623 43.6383C5.68206 43.4295 4.86431 43.38 4.06086 43.4927C3.25741 43.6054 2.4844 43.878 1.78711 44.2946C1.08982 44.7112 0.48226 45.2634 0 45.9189C0.642449 46.4166 1.37727 46.7805 2.16144 46.9894C2.9456 47.1982 3.76336 47.2477 4.56681 47.135C5.37026 47.0224 6.14326 46.7497 6.84055 46.3331C7.53784 45.9165 8.1454 45.3643 8.62766 44.7088Z" fill="#D64F4A"/>
<path d="M9.43872 39.5577C9.42766 38.7425 9.25481 37.9377 8.93031 37.1904C8.60581 36.4432 8.13618 35.7685 7.54892 35.2059C6.96166 34.6434 6.26858 34.2042 5.51029 33.9142C4.75199 33.6241 3.94372 33.4891 3.13281 33.5169C3.14387 34.3321 3.31672 35.1369 3.64122 35.8841C3.96572 36.6314 4.43535 37.306 5.02261 37.8686C5.60987 38.4312 6.30295 38.8703 7.06124 39.1604C7.81954 39.4504 8.62781 39.5855 9.43872 39.5577Z" fill="#D64F4A"/>
<path d="M1.7676 29.1247C2.5666 28.9859 3.33008 28.6886 4.0134 28.2499C4.69672 27.8113 5.28618 27.2402 5.74734 26.5701C6.20849 25.8999 6.53208 25.1441 6.69921 24.3469C6.86633 23.5496 6.87363 22.7268 6.72069 21.9267C5.9213 22.0647 5.15735 22.3615 4.4736 22.7999C3.78985 23.2383 3.20005 23.8094 2.73876 24.4798C2.27747 25.1501 1.95397 25.9063 1.78721 26.7039C1.62045 27.5015 1.61378 28.3245 1.7676 29.1247Z" fill="#D64F4A"/>
<path d="M22.1837 39.7568C22.1771 40.5717 22.0086 41.3772 21.6882 42.126C21.3677 42.8747 20.9018 43.5516 20.3177 44.1171C19.7336 44.6826 19.043 45.1253 18.2865 45.4192C17.53 45.7131 16.7226 45.8523 15.9119 45.8287C15.9181 45.0135 16.0863 44.2079 16.4066 43.459C16.7268 42.71 17.1927 42.0329 17.7769 41.4673C18.3611 40.9018 19.0519 40.4591 19.8086 40.1654C20.5653 39.8716 21.3728 39.7327 22.1837 39.7568Z" fill="white"/>
<path d="M14.4877 38.8827C14.0242 38.2135 13.6984 37.458 13.5294 36.6606C13.3604 35.8632 13.3516 35.0399 13.5036 34.239C13.6555 33.4381 13.9652 32.6758 14.4143 31.9968C14.8635 31.3178 15.4431 30.7358 16.1192 30.2849C16.5823 30.9543 16.9078 31.7097 17.0765 32.5071C17.2453 33.3044 17.254 34.1276 17.102 34.9284C16.9501 35.7291 16.6406 36.4914 16.1917 37.1704C15.7428 37.8494 15.1635 38.4315 14.4877 38.8827Z" fill="white"/>
<path d="M45.5559 34.3878C45.5237 34.4882 45.5163 34.595 45.5343 34.6989C45.5435 34.7466 45.5385 34.7961 45.5197 34.8409C45.501 34.8858 45.4694 34.924 45.429 34.9509C45.3454 35.0348 45.2897 35.0784 45.2619 35.0784C45.2506 35.077 45.2391 35.0783 45.2284 35.082C45.2176 35.0858 45.2079 35.092 45.1999 35.1002C45.181 35.1136 45.1581 35.1202 45.1349 35.1188H45.0513L44.9244 35.0348C44.8852 35.0079 44.8371 34.9974 44.7903 35.0055C44.7434 35.0136 44.7016 35.0398 44.6737 35.0784C44.6624 35.0798 44.6509 35.0785 44.6402 35.0747C44.6295 35.071 44.6197 35.0648 44.6118 35.0566C44.5796 35.0389 44.543 35.0313 44.5065 35.0348C44.4704 35.0636 44.4257 35.0793 44.3796 35.0793C44.3335 35.0793 44.2888 35.0636 44.2527 35.0348C44.1695 35.0197 44.0929 34.9795 44.0332 34.9194C43.9734 34.8594 43.9334 34.7824 43.9183 34.6989C43.8631 34.5878 43.8345 34.4653 43.8347 34.3412C43.835 34.216 43.8064 34.0925 43.7512 33.9803C43.6923 33.8124 43.6366 33.6164 43.5809 33.3893C43.5283 33.1861 43.5002 32.9772 43.4973 32.7672V32.1451C43.4981 31.5528 43.5405 30.9614 43.6242 30.3751C43.68 29.9801 43.7419 29.6099 43.8131 29.2553C43.8843 28.9007 43.9462 28.5461 44.0019 28.1822C44.0019 28.1542 44.0514 27.9551 44.1474 27.5911C44.2434 27.2272 44.3517 26.8166 44.457 26.3656C44.5127 26.1416 44.5622 25.9239 44.6056 25.7123C44.6415 25.5196 44.6901 25.3294 44.7511 25.1431C44.8068 24.9471 44.8625 24.7636 44.9182 24.5956C44.974 24.3126 45.039 24.045 45.1071 23.7931C45.1752 23.5411 45.2402 23.2736 45.2959 22.9905C45.3115 22.8775 45.3332 22.7653 45.3609 22.6546C45.4012 22.4586 45.4228 22.3435 45.4228 22.3155C45.5003 22.1419 45.5504 21.9572 45.5714 21.7681C45.5714 21.6001 45.6055 21.4041 45.6333 21.1771C45.6609 21.0451 45.6754 20.9106 45.6767 20.7758V20.2968C45.6794 20.0875 45.6576 19.8787 45.6117 19.6746C45.569 19.49 45.4745 19.3216 45.3392 19.1894C45.2501 19.1039 45.1446 19.0374 45.0291 18.9941C44.9136 18.9508 44.7906 18.9315 44.6675 18.9374C44.5003 18.9374 44.3239 18.9374 44.1412 18.9592C43.9586 18.981 43.7697 18.9934 43.5747 19.0214C43.3978 19.0746 43.2145 19.1028 43.0299 19.1054C42.8583 19.1062 42.6879 19.1345 42.5253 19.1894C42.3963 19.238 42.2814 19.3182 42.1909 19.4227C42.1094 19.5186 42.0094 19.5969 41.8968 19.6529C41.8721 19.6784 41.844 19.7004 41.8133 19.7182C41.7814 19.7329 41.753 19.7541 41.7297 19.7804L41.3087 20.1817C41.1478 20.3589 40.9272 20.4697 40.6895 20.4927C40.5673 20.5018 40.4447 20.4793 40.3335 20.4274C40.2654 20.387 40.1447 20.3216 39.9775 20.2376C39.8661 20.2097 39.7392 20.0697 39.5999 19.8177C39.5479 19.7427 39.5188 19.654 39.5163 19.5626C39.5154 19.4769 39.5008 19.3918 39.4729 19.3107C39.4443 19.2441 39.4368 19.1702 39.4513 19.0992C39.4648 19.0295 39.472 18.9587 39.4729 18.8876V18.8472C39.4886 18.5505 39.5524 18.2585 39.6618 17.9825C39.744 17.7018 39.8964 17.4469 40.1045 17.2421C40.3375 17.0441 40.5919 16.873 40.8629 16.732C41.1379 16.5801 41.436 16.475 41.7452 16.4209C41.9243 16.3682 42.1062 16.3257 42.29 16.2934C42.4611 16.2648 42.6298 16.2232 42.7946 16.169C42.8874 16.1245 42.9867 16.0951 43.0887 16.0819H43.423L43.6552 16.0632C43.779 16.0632 43.8564 16.0414 43.8843 16.0414H44.0948C44.1802 16.0379 44.2655 16.0516 44.3455 16.0819C44.5715 16.141 44.7665 16.1814 44.9337 16.2094C45.1186 16.2417 45.3015 16.2842 45.4816 16.3369C45.6767 16.3929 45.8717 16.4551 46.0698 16.5267C46.2865 16.6084 46.494 16.7126 46.689 16.8378C46.7447 16.8937 46.8159 16.956 46.8995 17.0275C46.9831 17.099 47.0666 17.1613 47.1502 17.2172C47.254 17.2942 47.3523 17.3784 47.4443 17.4692C47.5 17.5532 47.5712 17.6652 47.6548 17.8083C47.7586 17.9949 47.8427 18.1919 47.9056 18.3962C47.997 18.6685 48.0399 18.9549 48.0325 19.2423C48.0325 19.2982 48.048 19.4382 48.0758 19.6622C48.1037 19.8862 48.1161 20.0572 48.1161 20.1692C48.1435 20.4085 48.1362 20.6506 48.0944 20.8878C48.056 21.139 48.0353 21.3926 48.0325 21.6468C48.0313 21.8815 48.0032 22.1153 47.9489 22.3435C47.8932 22.5831 47.8498 22.8008 47.822 22.9968C47.7663 23.4478 47.7105 23.9299 47.6548 24.4308C47.6062 24.9021 47.5086 25.3671 47.3638 25.8181C47.2177 26.2422 47.114 26.6798 47.0543 27.1245C46.9996 27.5688 46.901 28.0064 46.7602 28.431C46.6766 28.7421 46.5837 29.0718 46.4877 29.4233C46.3918 29.7748 46.2989 30.1481 46.2153 30.5431C46.1317 30.8791 46.0389 31.2243 45.9429 31.5758C45.8469 31.9273 45.7665 32.2571 45.7107 32.5681C45.6515 32.824 45.6234 33.0862 45.6271 33.3489C45.6274 33.6964 45.6036 34.0436 45.5559 34.3878ZM62.7277 26.7077C62.6998 26.7077 62.6565 26.7357 62.6008 26.7948C62.545 26.8539 62.5048 26.8788 62.4769 26.8788H62.3098C62.2015 26.8756 62.0954 26.8468 62.0002 26.7948C61.9089 26.7502 61.8244 26.6926 61.7495 26.6237C61.6212 26.4133 61.5223 26.1862 61.4554 25.9487C61.3996 25.7248 61.3563 25.5412 61.3315 25.4013C61.2734 25.2591 61.2309 25.111 61.2046 24.9596C61.1771 24.8129 61.1626 24.664 61.1613 24.5147C61.1613 24.3468 61.1613 24.0668 61.1829 23.6718C61.2046 23.2767 61.2046 22.9968 61.2046 22.8288C61.0007 22.9575 60.7825 23.0619 60.5545 23.1399C60.3259 23.2186 60.1068 23.3229 59.9013 23.4509C59.7675 23.5149 59.6274 23.5649 59.4834 23.6002C59.3263 23.6373 59.1721 23.6862 59.0222 23.7464C58.8798 23.8024 58.7621 23.846 58.6631 23.874C58.5379 23.915 58.4184 23.9714 58.3071 24.0419C58.1423 24.1366 57.9651 24.2078 57.7808 24.2535C57.5972 24.2982 57.421 24.3695 57.2576 24.465C57.06 24.5749 56.8527 24.6666 56.6385 24.7387C56.4383 24.8043 56.2419 24.8812 56.0503 24.9689C55.8759 25.0148 55.712 25.094 55.5674 25.2022C55.4334 25.3035 55.2839 25.3823 55.1247 25.4355C55.0167 25.4802 54.9048 25.5146 54.7904 25.5381C54.6452 25.5729 54.5041 25.6229 54.3694 25.6874C54.3176 25.714 54.2603 25.7278 54.2022 25.7279C54.1438 25.7286 54.0864 25.7436 54.035 25.7714C53.7533 25.8554 53.4468 25.9612 53.1063 26.0825C52.8394 26.1932 52.5557 26.2573 52.2674 26.2722C51.9727 26.2906 51.6796 26.2167 51.4285 26.0607C51.345 26.0053 51.2672 25.9418 51.1963 25.871C51.1257 25.8009 51.0491 25.7374 50.9672 25.6812C50.7924 25.5029 50.63 25.3127 50.4812 25.112C50.3214 24.9035 50.1746 24.6854 50.0416 24.4588C49.9905 24.2658 49.9624 24.0674 49.958 23.8677V23.2456C49.9835 23.1326 50.0331 23.0264 50.1035 22.9346C50.1711 22.8238 50.2488 22.7197 50.3357 22.6235C50.6189 22.414 50.952 22.2831 51.3015 22.244C51.3294 22.244 51.413 22.244 51.5523 22.2222C51.6916 22.2004 51.7752 22.2004 51.8061 22.2004C52.1571 22.198 52.505 22.1338 52.8339 22.0107C53.2133 21.8705 53.5844 21.7085 53.9452 21.5254L54.8739 21.062L55.7222 20.6327C55.8057 20.5767 55.9543 20.4865 56.1648 20.359C56.3753 20.2314 56.688 20.0728 57.109 19.8737C57.446 19.7612 57.7604 19.5895 58.0377 19.3667C58.3373 19.1358 58.6612 18.9386 59.0036 18.7788C59.1736 18.6661 59.3492 18.5622 59.5299 18.4677C59.7094 18.3682 59.8704 18.278 60.0097 18.194C60.2357 18.054 60.4462 17.9327 60.6288 17.8331C60.817 17.7414 60.9989 17.6375 61.1737 17.5221C61.3687 17.379 61.5389 17.2608 61.6783 17.1613L62.1828 16.7973C62.2107 16.6573 62.2448 16.4863 62.2881 16.2685C62.3314 16.0508 62.3779 15.8268 62.4336 15.5748C62.4892 15.3178 62.5244 15.0567 62.5389 14.7941C62.5389 14.5266 62.5729 14.2808 62.6008 14.0538C62.6307 13.7957 62.638 13.5355 62.6224 13.2761C62.6076 12.9688 62.5588 12.6642 62.4769 12.3678C62.4181 12.0878 62.3779 11.8483 62.35 11.6492L62.2664 11.0582C62.2239 10.6802 62.2974 10.2982 62.4769 9.96329C62.5934 9.8245 62.7353 9.7094 62.8949 9.62424C63.0939 9.51083 63.3008 9.41207 63.514 9.32873C63.7322 9.24645 63.9569 9.18297 64.1858 9.13898C64.3653 9.10282 64.5476 9.08201 64.7306 9.07677C65.0214 9.0623 65.3125 9.09807 65.5912 9.18253C65.8198 9.27851 66.0377 9.39841 66.2413 9.54025C66.5941 9.75013 66.8789 10.058 67.0616 10.4268C67.2291 10.7767 67.3708 11.1385 67.4858 11.5093C67.4841 11.6647 67.4975 11.8199 67.526 11.9728C67.5518 12.156 67.5381 12.3427 67.4858 12.5202C67.4612 12.9736 67.4053 13.4246 67.3186 13.8702C67.2319 14.2933 67.1638 14.7443 67.1081 15.2202C67.095 15.4293 67.0671 15.6373 67.0245 15.8424C66.9657 16.1534 66.91 16.5018 66.8542 16.8969C66.7985 17.2328 66.7366 17.5563 66.6654 17.8674C66.5942 18.1784 66.5323 18.4304 66.4766 18.6264C66.3633 18.9986 66.2794 19.3793 66.2258 19.7648C66.1701 20.1599 66.1267 20.4678 66.0989 20.698C66.0989 20.7851 66.0989 20.9095 66.0772 21.0806C66.0555 21.2517 66.0555 21.3917 66.0555 21.5441C66.0308 21.8552 66.0091 22.1133 65.9936 22.3249C65.9782 22.5364 65.972 22.7821 65.972 23.0621C65.972 23.2581 65.972 23.4416 65.9534 23.6096C65.9397 23.7651 65.918 23.9198 65.8884 24.073C65.8327 24.3561 65.7924 24.5521 65.7646 24.6641L65.6283 25.196C65.5765 25.2718 65.5031 25.3304 65.4178 25.3639L65.1237 25.451L64.9566 25.619L64.7894 25.787C64.7397 25.8383 64.6822 25.8813 64.6192 25.9145C64.6002 25.9395 64.5732 25.9572 64.5427 25.9646C64.5123 25.972 64.4802 25.9686 64.452 25.955C64.4234 25.9417 64.3911 25.9388 64.3607 25.9467C64.3302 25.9546 64.3034 25.973 64.2848 25.9985L64.0743 26.1043L63.8638 26.21C63.7883 26.2622 63.703 26.2982 63.6131 26.3158C63.5401 26.3254 63.4691 26.3464 63.4025 26.378C63.3602 26.3953 63.3236 26.4244 63.2973 26.462C63.2818 26.4935 63.2609 26.5219 63.2354 26.546C63.1797 26.574 63.1147 26.602 63.0465 26.63C62.9784 26.658 62.9134 26.686 62.8577 26.7139L62.7277 26.7077ZM50.9641 16.9622C50.9362 16.8359 50.9347 16.7051 50.9597 16.5782C50.9848 16.4513 51.0358 16.331 51.1096 16.225C51.2838 15.9657 51.492 15.7313 51.7287 15.5282C51.9516 15.3602 52.1621 15.1985 52.3479 15.0429C52.5351 14.8965 52.7316 14.7625 52.936 14.6417C53.118 14.5496 53.2938 14.4457 53.4623 14.3306C53.6287 14.2139 53.8036 14.1099 53.9855 14.0195C54.1248 13.9355 54.3291 13.8298 54.6046 13.7085C54.8801 13.5872 55.1123 13.4783 55.3383 13.3974C55.5643 13.3165 55.8831 13.245 56.3042 13.105C56.647 12.9789 56.9975 12.875 57.3536 12.794L58.0254 12.6664C58.2467 12.6207 58.4713 12.5926 58.6971 12.5824C59.0257 12.5544 59.3561 12.5544 59.6846 12.5824C59.9743 12.6011 60.2621 12.6427 60.5452 12.7069C60.5936 12.7166 60.6392 12.737 60.6789 12.7666C60.7185 12.7962 60.7511 12.8342 60.7743 12.8779C60.7959 12.91 60.8059 12.9485 60.8025 12.987C60.7991 13.0256 60.7826 13.0617 60.7557 13.0895L60.7124 13.2574C60.6845 13.2854 60.6845 13.3259 60.7124 13.3819C60.7348 13.4212 60.7495 13.4645 60.7557 13.5094L60.796 13.7209C60.8107 13.7551 60.8164 13.7925 60.8126 13.8295C60.8088 13.8665 60.7956 13.902 60.7743 13.9324C60.7347 13.9848 60.7005 14.0411 60.6722 14.1004C60.6161 14.2035 60.5864 14.3189 60.5855 14.4364L60.5452 14.6479C60.541 14.6865 60.526 14.7232 60.5019 14.7536C60.4741 14.7983 60.4601 14.8503 60.4617 14.9029C60.4435 14.9458 60.4134 14.9826 60.375 15.0087C60.3369 15.0345 60.3078 15.0714 60.2914 15.1145C60.2357 15.1705 60.2078 15.2109 60.2078 15.2389V15.3229C60.1833 15.3709 60.1626 15.4209 60.1459 15.4722C60.1277 15.522 60.1071 15.5707 60.084 15.6184C59.9617 15.6846 59.823 15.7138 59.6846 15.7024C59.5057 15.7027 59.328 15.7321 59.1584 15.7895C59.033 15.8491 58.8975 15.884 58.759 15.8921C58.6073 15.8921 58.5021 15.9139 58.4495 15.9139L57.8613 16.0414C57.7777 16.0694 57.6291 16.1254 57.4186 16.2094C57.2081 16.2934 57.075 16.3494 57.0223 16.3774L56.4342 16.5889C56.2304 16.6546 56.0334 16.7401 55.846 16.844C55.5364 16.9839 55.2578 17.1177 55.0071 17.2421C54.7563 17.3666 54.4839 17.5128 54.1743 17.6807C54.025 17.7467 53.8846 17.8313 53.7564 17.9327C53.687 17.9991 53.6089 18.0556 53.5242 18.1007C53.3727 18.1735 53.2089 18.2167 53.0413 18.2282H52.8741C52.8023 18.2259 52.7313 18.2122 52.6636 18.1878C52.6099 18.1665 52.5537 18.1519 52.4965 18.1442C52.3871 18.0997 52.2742 18.0643 52.159 18.0384C51.9619 17.9825 51.7771 17.8896 51.6142 17.7647C51.4636 17.6759 51.3225 17.5717 51.1932 17.4537C51.1222 17.3935 51.0656 17.3181 51.0276 17.2331C50.9895 17.148 50.971 17.0554 50.9734 16.9622H50.9641ZM55.2981 37.0878C55.2254 36.989 55.1825 36.8714 55.1742 36.7488C55.1471 36.5958 55.1326 36.4407 55.1309 36.2853V35.4423C55.1346 35.2591 55.1491 35.0763 55.1742 34.8949C55.2021 34.6678 55.2423 34.4283 55.2981 34.1763C55.4374 33.7844 55.5643 33.4671 55.6757 33.2276C55.751 33.061 55.8357 32.899 55.9296 32.7423C56.0742 32.4232 56.2494 32.119 56.4527 31.834C56.6632 31.523 56.8676 31.2368 57.0719 30.9288C57.208 30.7135 57.3558 30.5058 57.5146 30.3067C57.6714 30.1069 57.8182 29.8993 57.9542 29.6846C58.0678 29.5374 58.1713 29.3826 58.2637 29.2211C58.3597 29.05 58.4526 28.91 58.5361 28.7545C58.6197 28.599 58.7188 28.4248 58.8457 28.1853C58.91 28.0074 59.0266 27.8533 59.18 27.7436C59.3252 27.6365 59.5063 27.5908 59.6846 27.616C59.7104 27.6283 59.7332 27.646 59.7513 27.6681C59.7695 27.6901 59.7827 27.7159 59.7899 27.7436C59.7965 27.7715 59.8094 27.7976 59.8277 27.8197C59.8459 27.8418 59.869 27.8594 59.8951 27.8711C59.9046 27.8781 59.9154 27.8832 59.9268 27.8859C59.9382 27.8886 59.9501 27.889 59.9617 27.8869C59.9733 27.8849 59.9843 27.8805 59.9942 27.874C60.004 27.8676 60.0125 27.8592 60.019 27.8493C60.0468 27.8058 60.0747 27.8151 60.1056 27.8711C60.1366 27.9271 60.1676 27.9893 60.2109 28.0608C60.2542 28.1324 60.2852 28.1946 60.3131 28.2506C60.3409 28.3066 60.4121 28.3346 60.44 28.3346C60.4678 28.3346 60.5112 28.375 60.5669 28.459C60.5986 28.5558 60.6412 28.6487 60.6938 28.7358C60.7201 28.7757 60.7373 28.8209 60.7442 28.8682C60.7512 28.9155 60.7477 28.9638 60.7341 29.0096L60.6753 29.3238C60.6641 29.4039 60.6272 29.4782 60.57 29.5353C60.4945 29.6313 60.4301 29.7357 60.3781 29.8463C60.4358 29.9028 60.5003 29.9519 60.57 29.9925C60.6381 30.0361 60.731 30.0859 60.8424 30.1418C61.0374 30.2258 61.2758 30.3254 61.5544 30.4529C61.8044 30.5384 62.0433 30.6532 62.2664 30.7951C62.3417 30.8285 62.4124 30.8713 62.4769 30.9226C62.6059 31.0169 62.7464 31.0942 62.8949 31.1528C63.0679 31.2258 63.2256 31.3314 63.3592 31.4639C63.5083 31.5595 63.6319 31.6902 63.7193 31.8447C63.8067 31.9992 63.8552 32.1728 63.8607 32.3504C63.8611 32.4636 63.8476 32.5764 63.8205 32.6863C63.7926 32.8014 63.7647 32.8978 63.7369 32.9818C63.6765 33.2947 63.5475 33.5901 63.3592 33.8466C63.1598 34.0968 62.9346 34.3251 62.6874 34.5278C62.574 34.6204 62.4539 34.7046 62.3283 34.7798C62.2324 34.8358 62.0838 34.9353 61.8888 35.0908C61.724 35.2188 61.5478 35.3313 61.3625 35.4268C61.1551 35.5419 60.9353 35.6539 60.7124 35.7658C60.4338 35.9058 60.1397 36.0769 59.8301 36.2293C59.5082 36.406 59.198 36.6034 58.9014 36.8203C58.759 36.9043 58.5919 36.9976 58.3968 37.0941C58.2187 37.1805 58.0496 37.2847 57.8922 37.4051C57.7149 37.5374 57.5158 37.6375 57.3041 37.7006C56.96 37.7906 56.5987 37.7906 56.2546 37.7006C55.7593 37.5949 55.4343 37.3989 55.295 37.0878H55.2981ZM57.0223 34.8513C56.9914 34.9073 56.9914 34.9509 57.0223 34.9788C57.0533 35.0068 57.0905 35.0628 57.2298 35.0628C57.4205 35.0706 57.6098 35.0265 57.7777 34.9353C57.917 34.8513 58.0873 34.7518 58.239 34.6242C58.3978 34.5583 58.5519 34.4814 58.7002 34.3941C58.8455 34.3096 58.9861 34.2172 59.1212 34.1172C59.5628 33.8434 59.9711 33.5187 60.3378 33.1498C60.4242 33.0601 60.5151 32.975 60.6102 32.8947C60.6519 32.8662 60.6868 32.8289 60.7124 32.7854C60.7381 32.7418 60.754 32.6932 60.7588 32.6428C60.7533 32.5402 60.7247 32.4403 60.6753 32.3504C60.6163 32.2394 60.5458 32.1352 60.4647 32.0393C60.3804 31.9461 60.3095 31.8413 60.2542 31.7283C60.1639 31.6028 60.0657 31.4834 59.9602 31.3705C59.8208 31.2181 59.7094 31.0968 59.6258 31.0128L59.4989 30.9288C59.2984 31.0436 59.126 31.202 58.9943 31.3923C58.855 31.5883 58.7157 31.7718 58.5733 31.9398C58.4596 32.1021 58.3562 32.2714 58.2637 32.4468C58.1411 32.6608 58.0079 32.8685 57.8644 33.0689C57.6862 33.3622 57.525 33.6654 57.3814 33.9772C57.237 34.2538 57.1159 34.542 57.0193 34.8389L57.0223 34.8513Z" fill="#2F6780"/>
<path d="M71.7053 36.5373C71.566 36.6772 71.3957 36.8483 71.2223 37.0007C71.0569 37.1593 70.8652 37.2878 70.6558 37.3802C70.5401 37.5806 70.3828 37.7535 70.1946 37.8873C70.0123 38.0105 69.8432 38.1522 69.69 38.3103C69.4845 38.4899 69.2881 38.6799 69.1018 38.8796C68.9677 39.0345 68.8124 39.1696 68.6405 39.2808C68.331 39.4768 68.04 39.6728 67.7583 39.8718L67.4239 40.2078C67.4017 40.233 67.3707 40.2486 67.3373 40.2513C67.3218 40.2521 67.3066 40.2561 67.2928 40.263C67.2789 40.27 67.2667 40.2798 67.2568 40.2918C67.0116 40.4222 66.7347 40.4804 66.4581 40.4597C66.4065 40.4356 66.3568 40.4076 66.3095 40.3758C66.2574 40.3387 66.2087 40.2971 66.164 40.2513C66.1103 40.2247 66.0543 40.2029 65.9968 40.186C65.9494 40.1783 65.9052 40.1566 65.8699 40.1238C65.8052 40.0901 65.7491 40.0421 65.7056 39.9833C65.6622 39.9246 65.6326 39.8567 65.6192 39.7847C65.6021 39.7299 65.5724 39.6798 65.5325 39.6385C65.4844 39.5801 65.4428 39.5164 65.4087 39.4488C65.3411 39.3717 65.297 39.2767 65.2817 39.1751C65.2643 39.0809 65.2362 38.9891 65.1981 38.9013C65.177 38.8367 65.141 38.7781 65.0929 38.7302C65.0354 38.6747 64.9983 38.6013 64.9876 38.5218C64.9589 38.279 64.9875 38.0329 65.0712 37.8033C65.1553 37.5816 65.2688 37.3723 65.4087 37.1812C65.4093 37.1647 65.4132 37.1485 65.4201 37.1336C65.427 37.1186 65.4368 37.1052 65.4489 37.0941C65.4489 37.0692 65.4489 37.0536 65.4706 37.0536C65.4922 37.0536 65.4922 37.0536 65.4922 37.0101C65.524 36.878 65.5979 36.76 65.7027 36.6741C65.802 36.5943 65.8744 36.4857 65.9102 36.3631C65.938 36.3071 65.9752 36.2293 66.0154 36.1298C66.0509 36.0448 66.1012 35.9668 66.164 35.8996L66.7088 35.349C66.7882 35.2357 66.8795 35.1314 66.9813 35.0379C67.058 34.9843 67.1241 34.9168 67.1763 34.8389L67.4085 34.6056C67.4936 34.5213 67.5713 34.4297 67.6406 34.3318L67.7242 34.2479C67.8217 34.0592 67.9493 33.888 68.1019 33.7408C68.1789 33.6257 68.2704 33.5211 68.3743 33.4298C68.5012 33.3178 68.6189 33.2058 68.7303 33.0907C68.8975 32.9227 69.0585 32.7485 69.2132 32.565C69.368 32.3815 69.5011 32.2353 69.6126 32.1202C69.7481 31.9796 69.8675 31.8241 69.9686 31.6567C70.0955 31.4607 70.2008 31.3052 70.2782 31.1932C70.3514 31.0815 70.4354 30.9773 70.5289 30.8822C70.556 30.8281 70.5916 30.7788 70.6342 30.736C70.6771 30.6923 70.7126 30.6418 70.7394 30.5867C70.7566 30.5441 70.7856 30.5074 70.823 30.4809C70.8544 30.4654 70.8827 30.4443 70.9066 30.4187C70.954 30.3551 70.9896 30.2834 71.0118 30.2072C71.0552 30.0952 71.0892 30.0112 71.1171 29.9552C71.1911 29.7914 71.2825 29.636 71.3895 29.4917C71.4971 29.3272 71.6172 29.1712 71.7486 29.0251C71.7986 28.9754 71.8413 28.9189 71.8755 28.8572C71.9064 28.7941 71.9484 28.7373 71.9994 28.6892C72.0659 28.5505 72.1514 28.4217 72.2532 28.3066C72.3616 28.1666 72.4761 28.0266 72.5875 27.8866C72.7177 27.7185 72.8366 27.5418 72.9435 27.3578C73.0769 27.126 73.1809 26.8784 73.2531 26.6206C73.3088 26.4495 73.4915 25.9985 73.7979 25.2706C73.8597 25.1185 73.93 24.97 74.0085 24.8258C74.092 24.6734 74.1756 24.5147 74.2623 24.3841C74.3161 24.3022 74.3647 24.217 74.4078 24.129C74.4516 24.0424 74.5002 23.9583 74.5533 23.8771C74.6345 23.6894 74.7265 23.5066 74.8288 23.3296C74.9307 23.1518 75.0216 22.9679 75.1012 22.779C75.1576 22.7227 75.1945 22.6496 75.2065 22.5706C75.2157 22.4899 75.253 22.4149 75.3117 22.3591C75.3956 22.1898 75.4929 22.0275 75.6027 21.8738C75.6985 21.7476 75.7834 21.6133 75.8566 21.4726C75.9123 21.3326 75.9742 21.1926 76.0454 21.0495C76.1207 20.9 76.2121 20.7592 76.3178 20.6296C76.4088 20.4862 76.5092 20.3491 76.6181 20.219L76.9555 19.7991L77.457 19.1769C77.4742 19.1334 77.5045 19.0965 77.5437 19.0712C77.5801 19.0437 77.6089 19.0073 77.6273 18.9654C77.8045 18.703 78.0124 18.4628 78.2464 18.25C78.5712 17.9973 78.9475 17.8199 79.3485 17.7305C79.4856 17.6992 79.6259 17.6845 79.7664 17.6869C79.9337 17.7226 80.0912 17.7948 80.2277 17.8985L80.5032 18.1722C80.627 18.2997 80.7168 18.3899 80.7756 18.4459C80.8466 18.5981 80.9096 18.7538 80.9645 18.9125C81.0266 19.0736 81.0622 19.2438 81.0697 19.4164C81.0545 19.646 80.9654 19.8643 80.8159 20.0386C80.7351 20.3215 80.6152 20.5916 80.4599 20.8411C80.2772 21.1522 80.1162 21.4041 79.9769 21.6001C79.7819 21.7961 79.5993 21.964 79.4321 22.104C79.2504 22.2619 79.0947 22.4478 78.9708 22.6546C78.8347 22.8415 78.735 23.0526 78.6767 23.2767C78.6179 23.4758 78.5622 23.6562 78.5065 23.8273C78.4508 23.9984 78.395 24.1788 78.3393 24.3748C78.2849 24.5081 78.2565 24.6506 78.2557 24.7947C78.2539 24.9511 78.2394 25.1072 78.2124 25.2613C78.2168 25.4168 78.2033 25.5723 78.1721 25.7248C78.144 25.8635 78.1233 26.0037 78.1102 26.1447C78.1102 26.2878 78.0731 26.4278 78.0452 26.5677V26.8788C78.017 27.0186 77.9964 27.1598 77.9833 27.3019C77.9708 27.4336 77.9352 27.5621 77.8781 27.6813C77.7945 27.9924 77.7016 28.2724 77.6056 28.5243C77.5097 28.7763 77.4168 29.0438 77.3332 29.3269L77.2465 29.5788C77.2249 29.6516 77.1969 29.7224 77.163 29.7903C77.1183 29.9118 77.0546 30.0252 76.9741 30.1263C76.906 30.2134 76.841 30.2974 76.7853 30.3814L76.7017 30.5493L76.6181 30.7173C76.5936 30.7654 76.5729 30.8153 76.5562 30.8666C76.5312 30.9219 76.4954 30.9716 76.4509 31.0128C76.4265 31.0609 76.4058 31.1108 76.389 31.1621C76.389 31.2026 76.3519 31.2523 76.324 31.3083C76.2237 31.4443 76.1119 31.5713 75.9897 31.6878C75.8763 31.7848 75.789 31.9089 75.7358 32.0486C75.675 32.1861 75.6047 32.3192 75.5253 32.4468C75.4636 32.5123 75.4077 32.5831 75.3582 32.6583C75.3094 32.7341 75.2534 32.8049 75.191 32.8698C75.0796 33.0098 74.965 33.1436 74.8536 33.2711C74.7391 33.402 74.6127 33.5217 74.4759 33.6288C74.4231 33.6821 74.3745 33.7392 74.3304 33.7999C74.2844 33.859 74.2348 33.9151 74.1818 33.9679C74.0425 34.1079 73.9311 34.2261 73.8475 34.3256C73.7639 34.4252 73.6525 34.5434 73.5101 34.6833C73.3778 34.7892 73.2583 34.9103 73.154 35.0442C73.0271 35.1966 72.894 35.3552 72.7547 35.4859L72.3368 35.9089C72.1944 36.0489 72.0551 36.1764 71.9158 36.2884C71.8749 36.3245 71.8394 36.3664 71.8105 36.4128C71.7815 36.4591 71.746 36.501 71.7053 36.5373ZM66.4983 39.2808L66.6253 39.3648L66.7522 39.2373L67.0617 39.1097H67.1856V39.0693L67.0617 38.8142L66.6005 39.1253L66.4983 39.2808ZM66.8358 39.4923L66.6686 39.7847L66.8358 39.8718L67.0463 39.9963L67.3373 39.6603L67.0463 39.3493L66.8358 39.4923ZM67.2134 38.5592V38.7271L67.297 38.7707L67.3806 38.7271L67.5075 38.6027H67.6344L67.5911 38.4752L67.3806 38.4316L67.2134 38.5592ZM67.6344 38.3476L67.8419 38.2637L67.9688 37.9526L68.557 37.7411L68.5136 37.5327L68.3465 37.4456L67.9254 37.8282L67.8852 37.7846L67.8419 37.9526L67.6747 38.1206L67.6344 38.3476ZM68.0121 38.7271L67.7583 38.6867L67.8016 38.8982L67.6344 39.2342L67.718 39.2777L68.0121 39.0662L67.9688 38.8982L68.0121 38.7271ZM68.2226 38.3912V38.4316H68.3465L68.4734 38.2637L68.6405 38.0957L68.4734 38.0521L68.2226 38.3912ZM68.8913 37.0816L68.7241 37.3274L68.9346 37.5389L69.1018 37.4113L69.2287 37.1998L69.3123 37.0723L69.5631 36.9479L69.4795 36.8203H69.1854L68.8913 37.0816ZM68.9346 38.0521L68.9749 38.1361L69.1018 38.0957L69.2721 37.9277L69.4392 37.8437L69.3123 37.7162L69.2721 37.7566L69.2287 37.7162L69.1451 37.6726L68.9346 38.0521ZM69.4795 36.5342H69.6528L69.82 36.4502L70.3246 35.9867L70.1141 35.8591L69.9036 36.1982L69.594 36.2822L69.3835 36.4906L69.4795 36.5342ZM69.6064 37.7566L69.8169 37.5047L69.7333 37.3367L69.4795 37.6726L69.6064 37.7566ZM70.0274 37.2092H70.1512L70.2379 37.0412L70.1946 36.9136L69.9841 37.0412L70.0274 37.2092ZM70.3215 36.9136L70.4051 36.9572L70.6558 36.8732L70.823 36.7457L70.9902 36.4906L71.2007 36.3662L71.2874 36.1547L71.5783 35.9867L71.7486 35.7316L71.7053 35.4797H71.5381L71.1604 35.8187L71.0768 35.9027L71.0335 35.9867L71.0768 36.1111L70.8663 36.3226L70.6992 36.1547L70.4887 36.2386L70.3617 36.4502L70.4051 36.5342L70.7394 36.4066L70.823 36.4502L70.7828 36.4906L70.3617 36.8017L70.3215 36.9136ZM70.5722 35.4361L70.4887 35.6476L70.6992 35.7316L71.0335 35.5232L71.244 35.3117L71.2007 35.1002L70.9902 35.2681L70.5722 35.4361ZM71.5381 35.1437H71.5783L71.8322 34.9726L71.665 34.8886L71.4545 35.0566L71.5381 35.1437ZM71.8322 34.7611L71.9994 34.8886L72.1665 34.6771L72.0829 34.5091L71.8322 34.7611ZM71.8755 35.3521L72.0427 35.4797L72.2934 35.3117L72.0829 35.1002L71.8755 35.3521ZM72.2532 34.1296L72.3368 34.2572L72.377 34.2136L72.5875 33.8777L72.5442 33.7937L72.2532 34.1296ZM72.4606 34.6771L72.377 34.8886L72.504 34.9726L72.925 34.6616L73.0488 34.3256L72.925 34.2416L72.4606 34.6771ZM72.8383 33.4546L72.798 33.5822L72.925 33.7502L73.1324 33.4111L72.8383 33.4546ZM73.0921 33.0316L73.2593 33.1591L73.4698 32.7796L73.3026 32.7361L73.0921 33.0316ZM73.4265 33.8341L73.3429 33.7502H73.216L73.1757 34.0457L73.2593 34.0861L73.4265 33.8341ZM73.5101 32.5681L73.6803 32.4841H73.8475L73.9744 32.2726L74.0146 31.9367L74.1416 31.7656L74.1818 31.4296L73.8908 31.6816L73.6803 31.9367V32.1046L73.5534 32.2726L73.4698 32.4406L73.5101 32.5681ZM73.8475 33.4111L74.0982 33.0752L73.8475 33.0316L73.6803 33.2431L73.4698 33.2867L73.5534 33.4546L73.8475 33.4111ZM73.7206 32.9072L73.7639 32.8636L73.8908 32.6521L73.637 32.7361L73.7206 32.9072ZM74.4357 31.8527L74.1818 32.5681L74.3923 32.6957L74.6462 32.1886L74.9805 31.8527L74.8536 31.6816L74.4357 31.8527ZM74.4759 31.5136L74.6864 31.5572L74.8969 31.3456L75.0238 31.0066L74.8536 30.8386L74.7297 31.1341L74.6864 31.2181L74.6462 31.2617L74.5192 31.3021L74.4759 31.5136ZM80.4877 39.1533C80.4875 39.2389 80.501 39.324 80.528 39.4052C80.5419 39.4387 80.5491 39.4747 80.5491 39.511C80.5491 39.5473 80.5419 39.5833 80.528 39.6168C80.4991 39.7616 80.4267 39.8941 80.3205 39.9963C80.2329 40.0529 80.1306 40.0821 80.0265 40.0803C79.8995 40.0794 79.773 40.0658 79.6488 40.0398L79.4166 39.9558L79.1844 39.8718C79.1169 39.8391 79.0476 39.8101 78.977 39.7847C78.9044 39.7635 78.8339 39.7354 78.7665 39.7008C78.5318 39.6121 78.3067 39.4996 78.0948 39.3648C78.0252 39.2987 77.9471 39.2422 77.8626 39.1968C77.7788 39.1506 77.7017 39.093 77.6335 39.0258C77.4651 38.8856 77.3097 38.7305 77.1691 38.5623L76.9401 38.1828C76.8655 38.0625 76.8023 37.9354 76.7512 37.8033L76.6243 37.1812C76.6276 37.1375 76.6201 37.0937 76.6026 37.0536C76.5866 37.0131 76.5792 36.9697 76.581 36.9261V36.7052C76.5539 36.5953 76.5404 36.4825 76.5407 36.3693C76.5398 36.2549 76.5253 36.1411 76.4974 36.0302C76.4719 35.9467 76.4604 35.8594 76.4633 35.7721C76.4625 35.6863 76.4478 35.6012 76.42 35.5201C76.4201 35.4161 76.4139 35.3122 76.4014 35.209C76.3852 35.0905 76.378 34.9709 76.3797 34.8513C76.3797 34.7082 76.3797 34.5402 76.3581 34.3847C76.3364 34.2292 76.3364 34.0208 76.3364 33.7968C76.3138 33.6158 76.359 33.4329 76.4633 33.2836C76.6165 33.1747 76.7989 33.1151 76.9865 33.1125C77.2183 33.0841 77.4534 33.0989 77.6799 33.156C77.7188 33.155 77.7576 33.1619 77.7938 33.1763C77.8299 33.1908 77.8628 33.2124 77.8904 33.24C77.9152 33.2656 77.9433 33.2875 77.974 33.3053C78.0121 33.3297 78.0414 33.3657 78.0576 33.408C78.1873 33.5502 78.3005 33.7067 78.395 33.8746C78.4277 33.942 78.4557 34.0116 78.4786 34.083L78.5622 34.3381C78.6458 34.674 78.7139 34.9602 78.7727 35.181C78.8315 35.4019 78.8408 35.6601 78.8965 35.94C78.9244 36.052 78.9523 36.1671 78.9832 36.2791L79.0668 36.615C79.142 36.9298 79.2697 37.2296 79.4445 37.5016C79.4697 37.5528 79.4976 37.6026 79.5281 37.6509C79.5592 37.6976 79.5872 37.7464 79.6116 37.7971C79.6669 37.9314 79.7375 38.0587 79.8221 38.1766C79.8434 38.2231 79.8715 38.2661 79.9057 38.3041C79.94 38.3409 79.9682 38.3829 79.9893 38.4285C80.0892 38.5658 80.2022 38.6929 80.3267 38.808C80.3662 38.8545 80.4014 38.9045 80.432 38.9573C80.4618 39.0016 80.4829 39.0512 80.4939 39.1035L80.4877 39.1533ZM92.7064 41.0508C92.6716 41.1826 92.6218 41.31 92.5578 41.4303C92.4958 41.5639 92.4023 41.6803 92.2854 41.7693H92.2513C92.1336 41.8573 92.0293 41.9621 91.9417 42.0804C91.8586 42.1906 91.7675 42.2945 91.6693 42.3914L91.1647 42.8145C90.9939 42.9575 90.8105 43.0845 90.6168 43.194C90.4604 43.3163 90.2831 43.4091 90.0936 43.4677C89.8831 43.5393 89.6664 43.6015 89.4435 43.6575C89.1988 43.7674 88.9463 43.8588 88.6882 43.9312L87.8492 44.1645C87.5217 44.1807 87.1973 44.2371 86.8834 44.3325C86.84 44.3307 86.7968 44.3381 86.7565 44.3542C86.7165 44.3715 86.673 44.3789 86.6295 44.376C86.4902 44.404 86.2735 44.4382 85.9795 44.4818C85.7642 44.527 85.5412 44.5195 85.3294 44.46C85.2879 44.4736 85.2441 44.4782 85.2007 44.4736C85.1573 44.469 85.1154 44.4552 85.0777 44.4332C85.04 44.4112 85.0073 44.3814 84.9819 44.3458C84.9564 44.3102 84.9388 44.2696 84.93 44.2267C84.8593 44.0163 84.8237 43.7956 84.8248 43.5735C84.8248 43.3215 84.8248 43.1038 84.8464 42.9202C84.8567 42.7573 84.8773 42.5952 84.9083 42.435C84.9308 42.2817 84.9735 42.1321 85.0353 41.9902C85.091 41.8657 85.1467 41.732 85.2024 41.592C85.2677 41.2452 85.3662 40.9056 85.4965 40.5779C85.6022 40.2882 85.7284 40.0065 85.8742 39.735C85.945 39.6539 86.0015 39.5614 86.0414 39.4612C86.0971 39.3337 86.1528 39.1999 86.2116 39.06C86.2704 38.92 86.3138 38.7862 86.3571 38.6587C86.3962 38.5358 86.4449 38.4162 86.5026 38.301L86.6729 37.9619C86.7324 37.8111 86.781 37.6562 86.8184 37.4984C86.8572 37.341 86.9058 37.1862 86.9639 37.035C87.0227 36.755 87.0691 36.4937 87.1125 36.2542C87.1558 36.0147 87.2023 35.7845 87.2611 35.5574C87.2746 35.4504 87.3028 35.3457 87.3446 35.2464C87.4004 35.0939 87.4406 34.9882 87.4685 34.9353C87.4748 34.8931 87.4903 34.8527 87.5139 34.8172C87.5374 34.7816 87.5684 34.7516 87.6047 34.7294C87.641 34.7072 87.6817 34.6932 87.7239 34.6884C87.7662 34.6837 87.809 34.6883 87.8492 34.702C88.0607 34.7526 88.2597 34.8457 88.4343 34.9757C88.5283 35.0439 88.6073 35.1307 88.6665 35.2308C88.7197 35.3218 88.783 35.4063 88.8553 35.4828C88.9721 35.5201 89.0803 35.5803 89.1738 35.6598C89.2674 35.7393 89.3443 35.8367 89.4002 35.9462C89.4493 36.0247 89.5236 36.0839 89.6107 36.1142C89.6544 36.1319 89.6927 36.1607 89.722 36.1978C89.7513 36.2349 89.7706 36.279 89.7779 36.3257C89.8076 36.4934 89.8076 36.6651 89.7779 36.8328C89.75 37.0847 89.7376 37.2558 89.7376 37.3398C89.7364 37.3984 89.7215 37.4559 89.6943 37.5078L89.6107 37.6757C89.7174 37.7322 89.8308 37.7751 89.9481 37.8033C90.0596 37.8313 90.1834 37.8593 90.3258 37.8873C90.3923 37.9125 90.4622 37.9272 90.5332 37.9308C90.6051 37.9329 90.6761 37.9465 90.7437 37.9713C90.9362 38.0453 91.1325 38.1087 91.3319 38.161C91.5826 38.2325 91.7808 38.2948 91.9201 38.3507C92.0036 38.4067 92.081 38.4658 92.1522 38.5218C92.2371 38.6031 92.3018 38.7033 92.3411 38.8142C92.3968 38.9293 92.4525 39.0475 92.5082 39.1751C92.564 39.3026 92.6197 39.4488 92.6754 39.6168C92.6764 39.653 92.6838 39.6888 92.6971 39.7225C92.7144 39.7842 92.7217 39.8483 92.7188 39.9123L92.7064 41.0508ZM91.9077 26.5802C91.9316 26.5546 91.9599 26.5335 91.9913 26.518C92.0227 26.5012 92.0509 26.4791 92.0749 26.4527C92.1503 26.4036 92.2208 26.3474 92.2854 26.2847C92.3646 26.2079 92.4495 26.1372 92.5392 26.0732C92.6733 25.9362 92.8292 25.8227 93.0005 25.7372C93.1032 25.6476 93.2153 25.5694 93.3348 25.5039C93.5051 25.4075 93.6722 25.3142 93.8394 25.2302L94.0066 25.1462L94.1737 25.0622C94.2852 25.0062 94.44 24.9347 94.6381 24.8507C94.8362 24.7667 94.9724 24.7107 95.056 24.6827C95.251 24.6267 95.4553 24.5614 95.6751 24.493C95.8949 24.4245 96.0869 24.3592 96.2943 24.3032C96.4336 24.2472 96.6719 24.1695 97.0063 24.0699C97.3406 23.9704 97.6657 23.8677 97.9721 23.7589C98.1016 23.7064 98.2352 23.6648 98.3715 23.6344C98.476 23.6117 98.5793 23.5837 98.681 23.5505C98.8575 23.4971 99.0432 23.4823 99.2259 23.5069C99.3568 23.5324 99.4838 23.5753 99.6035 23.6344C99.7223 23.6943 99.8353 23.7651 99.941 23.846L100.192 24.0979C100.283 24.1954 100.366 24.2993 100.442 24.409C100.484 24.446 100.519 24.489 100.548 24.5365C100.578 24.5822 100.613 24.6239 100.653 24.6609C100.792 24.7449 100.848 24.916 100.82 25.168C100.82 25.3307 100.777 25.4904 100.696 25.6315C100.64 25.6891 100.59 25.7527 100.548 25.8212C100.515 25.8845 100.465 25.9366 100.402 25.9705L100.235 26.1385C100.111 26.2627 99.969 26.3675 99.8141 26.4495C99.6546 26.5306 99.5005 26.6221 99.3528 26.7233C99.2383 26.7793 99.1144 26.8353 98.9751 26.8913L98.5541 27.0592L97.7771 27.3703L97.0001 27.6813C96.8051 27.7373 96.6007 27.8089 96.3809 27.8929C96.1742 27.9759 95.9535 28.0181 95.7308 28.0173C95.6751 28.0173 95.5761 28.0173 95.4368 27.9986C95.298 27.9836 95.1584 27.9764 95.0188 27.9769C94.8207 28.0049 94.6257 28.0391 94.4307 28.0826C94.252 28.1241 94.0669 28.1305 93.8858 28.1013H93.4896C93.3508 28.075 93.2091 28.0687 93.0686 28.0826C92.9423 28.0964 92.8147 28.0891 92.6909 28.0608C92.5144 28.0282 92.3529 27.9399 92.2296 27.8089C91.9747 27.5784 91.81 27.264 91.7653 26.9224C91.6827 27.1463 91.5991 27.3641 91.5145 27.5756C91.43 27.7884 91.3597 28.0066 91.304 28.2288C91.249 28.3657 91.2066 28.5073 91.1771 28.6519C91.1562 28.7782 91.098 28.8952 91.0099 28.9878C90.8912 29.1131 90.8051 29.2659 90.7592 29.4326C90.7035 29.6161 90.6601 29.7623 90.6323 29.8743C90.592 29.9817 90.5433 30.0857 90.4868 30.1854C90.4146 30.3146 90.3515 30.4486 90.2979 30.5867C90.2352 30.7172 90.1649 30.8439 90.0874 30.9662C90.0317 31.0501 89.9605 31.1621 89.8769 31.3021C89.7933 31.4421 89.7593 31.6132 89.6881 31.7656C89.6169 31.918 89.5673 32.0486 89.5395 32.1046C89.5173 32.3204 89.421 32.5217 89.2671 32.6739C89.1473 32.771 89.0137 32.8496 88.8708 32.9072C88.767 32.9616 88.647 32.9759 88.5334 32.9476C88.3817 32.9163 88.2269 32.9028 88.0721 32.9072H87.6511C87.5204 32.9051 87.3911 32.9339 87.2735 32.9912C87.1697 33.0458 87.0496 33.0602 86.936 33.0316C86.8781 33.0036 86.8145 32.9898 86.7503 32.9912C86.6838 32.9919 86.6181 32.9769 86.5583 32.9476C86.4839 32.8986 86.4144 32.8424 86.3509 32.7796C86.2911 32.7236 86.2354 32.6677 86.1838 32.6117C86.1246 32.5343 86.0824 32.4453 86.0599 32.3504C86.0166 32.226 85.9702 32.0922 85.9113 31.9522C85.8378 31.8267 85.7816 31.6917 85.7442 31.551C85.6845 31.3237 85.6708 31.0868 85.7039 30.8542L85.7875 30.0112C85.8154 29.8432 85.8556 29.5882 85.9113 29.2522C85.9635 28.9373 86.0338 28.6257 86.1219 28.319C86.1497 28.235 86.1776 28.1448 86.2085 28.0453C86.2318 27.9527 86.2597 27.8613 86.2921 27.7716C86.3188 27.6818 86.3395 27.5904 86.354 27.4978C86.3656 27.4047 86.3863 27.313 86.4159 27.2241L86.5429 26.602C86.5713 26.4622 86.592 26.321 86.6048 26.1789C86.6189 26.0379 86.6406 25.8977 86.6698 25.759C86.6977 25.619 86.7162 25.4853 86.7317 25.3577C86.7507 25.2071 86.7859 25.0589 86.837 24.916C86.8735 24.763 86.8943 24.6067 86.8989 24.4494C86.9078 24.2802 86.9285 24.1118 86.9608 23.9455C86.963 23.7889 86.9849 23.6332 87.0258 23.482C87.0756 23.2585 87.1107 23.032 87.131 22.8039C87.1388 22.5943 87.1668 22.3859 87.2146 22.1818C87.2704 21.9143 87.3137 21.653 87.3416 21.401C87.3664 21.1343 87.3736 20.8662 87.3632 20.5985C87.3477 20.3745 87.3416 20.2345 87.3416 20.1785C87.3416 20.0075 87.3416 19.7711 87.2982 19.46C87.2549 19.1489 87.258 18.981 87.258 18.953C87.2243 18.8008 87.1745 18.6527 87.1094 18.5113C87.0359 18.3116 87.0283 18.0935 87.0877 17.8891C87.1228 17.7702 87.19 17.6634 87.2818 17.5805C87.3736 17.4976 87.4864 17.4419 87.6078 17.4194C87.6661 17.4182 87.7234 17.4033 87.775 17.3759C87.8144 17.3546 87.8574 17.3409 87.9019 17.3354C88.0305 17.2977 88.1661 17.2903 88.2981 17.3137C88.4922 17.3202 88.6842 17.3558 88.8677 17.4194L89.264 17.5656C89.4477 17.6361 89.5808 17.6859 89.6633 17.7149C89.9215 17.7599 90.1746 17.8307 90.4187 17.9265C90.5485 17.9949 90.6691 18.0795 90.7778 18.1784L91.0502 18.4304C91.078 18.4304 91.1338 18.4895 91.2174 18.6015C91.3009 18.7134 91.3907 18.8472 91.4898 19.0027C91.5821 19.1454 91.6668 19.2928 91.7436 19.4444L91.8891 19.74C91.9462 19.9107 92.0242 20.0737 92.1213 20.2252C92.214 20.3736 92.278 20.5382 92.3101 20.7105C92.3208 20.8528 92.3415 20.9941 92.372 21.1335C92.4166 21.384 92.4373 21.6381 92.434 21.8925C92.434 22.2036 92.4339 22.5146 92.3937 22.8257C92.3535 23.1367 92.338 23.3607 92.3101 23.5007C92.2425 23.8277 92.2001 24.1594 92.1832 24.493C92.1672 24.8122 92.1248 25.1296 92.0563 25.4417C92.0556 25.6259 92.0348 25.8095 91.9944 25.9892C91.9665 26.1883 91.9417 26.3842 91.9015 26.5802H91.9077ZM89.1371 41.0103C89.0802 40.9233 89.0305 40.8317 88.9885 40.7366C88.9482 40.6371 88.8987 40.5313 88.843 40.4255C88.8105 40.3444 88.7596 40.272 88.6944 40.214C88.6365 40.1669 88.5873 40.1101 88.5489 40.046C88.4653 39.962 88.3662 39.9745 88.2548 40.0865C88.2269 40.1456 88.1774 40.2638 88.1093 40.4473C88.051 40.5914 88.0014 40.7389 87.9607 40.889C87.9038 40.9782 87.8678 41.0793 87.8554 41.1845C87.8404 41.3029 87.8048 41.4176 87.7502 41.5236C87.6811 41.6231 87.6385 41.7388 87.6264 41.8595C87.623 41.9026 87.6157 41.9453 87.6047 41.9871C87.5922 42.0274 87.5849 42.0692 87.583 42.1115C87.583 42.2266 87.6542 42.2826 87.7935 42.2826C87.8708 42.29 87.9474 42.3036 88.0226 42.323C88.1567 42.3509 88.2961 42.3368 88.4219 42.2826C88.5294 42.2421 88.633 42.1922 88.7315 42.1333L89.0039 41.9871C89.0948 41.9295 89.194 41.8865 89.298 41.8595C89.3816 41.8315 89.3971 41.704 89.3414 41.48L89.1371 41.0103Z" fill="#2F6780"/>
<path d="M112.181 32.6614C111.998 32.6556 111.814 32.6765 111.636 32.7236C111.494 32.7641 111.342 32.8139 111.172 32.8698C110.962 32.9444 110.744 32.9945 110.522 33.0192C110.287 33.0475 110.055 33.0964 109.828 33.1654C109.755 33.1934 109.678 33.2082 109.599 33.2089C109.52 33.2113 109.442 33.2249 109.367 33.2493L108.906 33.3551C108.726 33.4004 108.545 33.4358 108.361 33.4609C108.166 33.4898 107.969 33.4971 107.773 33.4826C107.577 33.4696 107.38 33.4769 107.185 33.5044C106.99 33.5324 106.792 33.5666 106.597 33.6102C106.402 33.6537 106.191 33.6879 105.977 33.7159C105.818 33.744 105.654 33.744 105.495 33.7159C105.307 33.687 105.118 33.6725 104.928 33.6724C104.765 33.6754 104.603 33.6963 104.445 33.7346C104.286 33.7793 104.117 33.7727 103.962 33.7159C103.647 33.6713 103.337 33.6005 103.033 33.5044C102.743 33.4028 102.463 33.2758 102.195 33.1249C102.111 33.0689 102.006 33.0036 101.885 32.9352C101.641 32.7399 101.431 32.5042 101.266 32.2384C101.123 32.0695 101.028 31.8655 100.99 31.6474C100.97 31.5031 100.935 31.3613 100.885 31.2243C100.829 31.0102 100.829 30.7852 100.885 30.5711C100.912 30.4265 100.97 30.2895 101.055 30.1698C101.138 30.0686 101.244 29.9895 101.365 29.9396C101.427 29.9256 101.49 29.9183 101.554 29.9179C101.713 29.8895 101.875 29.8822 102.037 29.8961C102.207 29.9078 102.372 29.9589 102.52 30.0454C102.746 30.1574 102.925 30.2414 103.068 30.2974C103.267 30.3675 103.476 30.4104 103.687 30.4249C103.878 30.4415 104.068 30.4695 104.256 30.5089C104.541 30.5395 104.827 30.553 105.114 30.5493C105.416 30.5522 105.717 30.5387 106.018 30.5089L106.479 30.4653C106.601 30.4602 106.722 30.4393 106.838 30.4031C106.963 30.3722 107.083 30.3229 107.194 30.2569C106.953 30.0181 106.745 29.7482 106.575 29.4544C106.502 29.3223 106.403 29.2068 106.284 29.1153C106.103 28.9509 105.96 28.7494 105.863 28.5243C105.783 28.3385 105.712 28.1485 105.652 27.9551C105.614 27.8148 105.558 27.6799 105.485 27.5538C105.17 27.1549 104.981 26.6709 104.94 26.1634C104.909 26.0234 104.882 25.8523 104.854 25.6563C104.826 25.4604 104.813 25.3453 104.813 25.3204C104.815 25.2071 104.822 25.0939 104.835 24.9813C104.835 24.8414 104.854 24.7138 104.854 24.6018C104.853 24.5382 104.847 24.4747 104.835 24.4121C104.821 24.3498 104.814 24.2862 104.813 24.2223V23.3296C104.81 23.1659 104.789 23.0031 104.748 22.8443C104.707 22.6574 104.687 22.4665 104.687 22.2751C104.692 22.169 104.713 22.0642 104.748 21.964C104.79 21.8418 104.84 21.7223 104.897 21.6063C104.934 21.4659 105.014 21.3408 105.126 21.2486C105.224 21.1773 105.328 21.1138 105.436 21.0588C105.459 21.0329 105.489 21.0133 105.522 21.0018C105.555 20.9904 105.59 20.9876 105.625 20.9935C105.702 21.0086 105.782 21.0021 105.857 20.9749L106.024 20.8878C106.09 20.8597 106.162 20.846 106.234 20.8473C106.353 20.8491 106.472 20.8418 106.59 20.8256C106.681 20.8127 106.772 20.8055 106.863 20.8038C106.934 20.8048 107.004 20.8205 107.069 20.8499C107.134 20.8793 107.193 20.9219 107.24 20.9749C107.347 21.0849 107.46 21.1888 107.578 21.2859C107.662 21.3417 107.754 21.3837 107.85 21.4103C107.949 21.4383 108.039 21.5534 108.123 21.7494C108.201 21.8489 108.259 21.9631 108.293 22.0854L108.46 22.5924C108.508 22.6935 108.551 22.7974 108.587 22.9034C108.616 23.013 108.63 23.1261 108.627 23.2394C108.627 23.3462 108.648 23.4519 108.689 23.5505C108.73 23.6362 108.752 23.7294 108.754 23.8242C108.755 23.9517 108.769 24.0788 108.795 24.2037C108.823 24.343 108.837 24.4846 108.838 24.6267C108.838 24.8507 108.838 25.0684 108.816 25.28C108.795 25.4915 108.795 25.7092 108.795 25.9363C108.795 26.0631 108.802 26.1898 108.816 26.3158C108.824 26.4346 108.86 26.5497 108.921 26.6517C108.977 26.7628 109.005 26.8853 109.005 27.0095C109.016 27.1779 109.059 27.3427 109.132 27.4947C109.166 27.57 109.194 27.648 109.216 27.728C109.237 27.808 109.265 27.886 109.299 27.9613C109.377 28.0866 109.44 28.2201 109.488 28.3595C109.516 28.462 109.566 28.5567 109.637 28.6363L110.181 29.1838C110.305 29.3654 110.462 29.5226 110.643 29.6473C110.72 29.6486 110.798 29.6559 110.875 29.669C110.965 29.682 111.056 29.6892 111.147 29.6908L111.735 29.6473C112.023 29.6171 112.313 29.6318 112.596 29.6908C112.908 29.7477 113.228 29.7477 113.54 29.6908C113.636 29.6645 113.735 29.6498 113.834 29.6473C113.934 29.6461 114.033 29.6315 114.128 29.6037C114.323 29.6037 114.59 29.6037 114.924 29.5633C115.176 29.5345 115.43 29.5345 115.682 29.5633C115.85 29.5633 116.017 29.5633 116.187 29.585C116.357 29.6068 116.521 29.6037 116.689 29.6037C116.766 29.6042 116.844 29.6115 116.921 29.6255C116.998 29.6408 117.077 29.6332 117.15 29.6037C117.235 29.6018 117.319 29.5955 117.404 29.585C117.501 29.5711 117.599 29.5638 117.698 29.5633H118.007C118.102 29.533 118.202 29.5183 118.301 29.5197H118.574C118.666 29.5195 118.758 29.5342 118.846 29.5633L119.181 29.6037H119.493C119.605 29.6037 119.787 29.6193 120.038 29.6473C120.289 29.6752 120.487 29.7032 120.626 29.7312L120.753 29.8152L120.249 29.8588L120.122 30.0703L120.038 30.1543C119.972 30.1581 119.907 30.143 119.849 30.1107C119.82 30.0964 119.787 30.089 119.755 30.089C119.722 30.089 119.69 30.0964 119.66 30.1107C119.621 30.1372 119.576 30.1548 119.529 30.1624C119.482 30.1699 119.434 30.1671 119.388 30.1543C119.358 30.1404 119.326 30.1332 119.294 30.1332C119.261 30.1332 119.229 30.1404 119.199 30.1543C119.075 30.1255 118.946 30.1255 118.821 30.1543C118.738 30.1823 118.639 30.2103 118.527 30.2383C118.358 30.2304 118.188 30.245 118.023 30.2818H117.667C117.631 30.2821 117.596 30.2897 117.564 30.3042C117.531 30.3186 117.502 30.3396 117.478 30.3658L117.645 30.4062H117.899C117.999 30.4128 118.099 30.399 118.193 30.3658H118.564C118.645 30.397 118.732 30.4108 118.818 30.4062V30.4902L118.775 30.5338L118.608 30.5742H118.357L117.852 30.6613L117.936 30.7453L117.979 30.8697L117.852 30.9133L117.979 31.0408H118.19C118.249 31.0138 118.315 31.0062 118.379 31.019C118.511 31.0289 118.644 31.0216 118.775 30.9973C118.818 30.9943 118.862 31.0018 118.902 31.019C119 31.029 119.1 31.0217 119.196 30.9973C119.196 31.0253 119.252 31.0408 119.363 31.0408C119.394 31.0124 119.432 30.9933 119.473 30.9856C119.514 30.9779 119.556 30.9819 119.595 30.9973C119.803 31.0225 120.013 31.0077 120.214 30.9537L120.255 30.9133H120.589L120.8 30.9537L120.716 31.0812C120.595 31.0958 120.475 31.1239 120.36 31.1652C120.298 31.1953 120.229 31.2109 120.16 31.2109C120.091 31.2109 120.023 31.1953 119.961 31.1652C119.933 31.1652 119.877 31.1652 119.793 31.187C119.734 31.1937 119.676 31.215 119.626 31.2492L119.499 31.3363V31.4607L119.54 31.5043C119.598 31.5043 119.633 31.5043 119.645 31.5261C119.657 31.5478 119.694 31.5261 119.75 31.5043C119.828 31.5085 119.906 31.5011 119.982 31.4825C120.058 31.4651 120.136 31.4578 120.214 31.4607H120.589V31.5043L120.549 31.5883L120.465 31.7158H120.422V31.6318L120.171 31.7562L120.128 31.8402H119.877V31.7283H119.837C119.778 31.7286 119.719 31.7147 119.667 31.6878C119.641 31.6739 119.612 31.6667 119.583 31.6667C119.554 31.6667 119.525 31.6739 119.499 31.6878L119.289 31.7283L119.038 31.7718H118.564L118.524 31.8962C118.471 31.9518 118.407 31.9953 118.335 32.0238C118.306 32.0376 118.274 32.0448 118.241 32.0448C118.208 32.0448 118.176 32.0376 118.147 32.0238C118.063 32.0518 117.97 32.0891 117.874 32.1295C117.802 32.1653 117.723 32.1864 117.642 32.1917C117.525 32.22 117.403 32.22 117.286 32.1917C117.185 32.1658 117.081 32.1522 116.976 32.1513C116.824 32.1799 116.67 32.1934 116.515 32.1917C116.346 32.1925 116.177 32.207 116.011 32.2353C115.926 32.2348 115.843 32.2421 115.76 32.2571C115.676 32.2706 115.591 32.2779 115.506 32.2788C115.366 32.2788 115.226 32.2851 115.088 32.2975C114.946 32.313 114.806 32.3348 114.667 32.3628C114.463 32.4058 114.256 32.4266 114.048 32.425C113.772 32.4336 113.497 32.4691 113.228 32.5308L112.472 32.6583L112.181 32.6614ZM104.324 15.2731C104.38 15.102 104.43 14.9403 104.47 14.7879C104.511 14.6367 104.56 14.4882 104.618 14.343C104.674 14.2031 104.758 14.0071 104.869 13.752C104.962 13.5494 105.065 13.3521 105.179 13.161C105.346 12.881 105.488 12.6415 105.64 12.4456C105.731 12.2763 105.844 12.1203 105.977 11.9821C106.078 11.8461 106.19 11.7191 106.312 11.6026C106.343 11.5742 106.381 11.5551 106.422 11.5474C106.463 11.5397 106.505 11.5437 106.544 11.559C106.632 11.5862 106.724 11.6009 106.816 11.6026C106.907 11.6008 106.995 11.5703 107.067 11.5155C107.111 11.4879 107.162 11.4733 107.214 11.4733C107.266 11.4733 107.317 11.4879 107.361 11.5155C107.545 11.5651 107.717 11.6519 107.866 11.7706L107.949 11.8981C108.026 12.1163 108.076 12.3429 108.098 12.5731C108.103 12.8058 108.052 13.0362 107.949 13.245C107.889 13.4247 107.805 13.5953 107.699 13.752C107.584 13.9231 107.473 14.1035 107.361 14.3026L107.11 14.9776C107.019 15.2484 106.99 15.5369 107.027 15.8206C107.023 15.9553 107.061 16.0879 107.136 16.1996C107.211 16.3112 107.319 16.3963 107.445 16.4427C107.534 16.4814 107.633 16.4964 107.73 16.4862C107.844 16.4781 107.957 16.4573 108.067 16.424L108.779 16.2965L109.2 16.2125L109.578 16.0445L109.955 15.917C110.133 15.8492 110.315 15.7931 110.5 15.749C110.703 15.6964 110.91 15.6682 111.119 15.665C111.278 15.6599 111.435 15.624 111.581 15.5593C111.735 15.4882 111.897 15.434 112.064 15.3975L112.401 15.3571L112.757 15.2918C112.875 15.2782 112.994 15.272 113.113 15.2731H113.661C113.846 15.2715 114.03 15.2998 114.206 15.3571C114.301 15.3929 114.387 15.4504 114.457 15.5251C114.518 15.5914 114.589 15.648 114.667 15.693C114.762 15.7209 114.863 15.7284 114.961 15.7148C115.051 15.7028 115.141 15.725 115.215 15.777C115.293 15.8226 115.363 15.8803 115.422 15.9481C115.582 16.016 115.725 16.1166 115.843 16.2436C115.969 16.3969 116.029 16.5936 116.011 16.7911C116.009 16.8787 115.988 16.9649 115.949 17.043L115.843 17.2546C115.821 17.2937 115.806 17.3371 115.8 17.3821C115.799 17.3981 115.795 17.4138 115.789 17.4283C115.782 17.4427 115.772 17.4556 115.76 17.4661C115.707 17.5807 115.636 17.6858 115.549 17.7772C115.543 17.857 115.522 17.9351 115.487 18.0073C115.444 18.1069 115.41 18.1846 115.382 18.2406C115.344 18.3359 115.278 18.4173 115.193 18.4739C115.094 18.5424 115.004 18.6077 114.918 18.6637C114.751 18.7477 114.608 18.8161 114.457 18.8721C114.256 18.948 114.049 19.0053 113.837 19.0432C113.727 19.0706 113.614 19.0842 113.5 19.0836C113.387 19.0843 113.275 19.0989 113.166 19.1272C112.998 19.1552 112.834 19.1769 112.683 19.1894C112.518 19.2065 112.356 19.242 112.2 19.2951L111.339 19.5067L110.646 19.6746L110.225 19.7586C110.073 19.7884 109.918 19.803 109.763 19.8022H109.346C109.104 19.86 108.857 19.8882 108.609 19.8861C108.349 19.8859 108.09 19.8714 107.832 19.8426C107.641 19.8335 107.451 19.8054 107.265 19.7586L106.801 19.5751C106.702 19.5374 106.597 19.5164 106.491 19.5129C106.385 19.5072 106.281 19.4852 106.182 19.4476C106.05 19.3963 105.924 19.3327 105.804 19.2578C105.693 19.1894 105.581 19.124 105.47 19.0681C105.34 18.9906 105.214 18.9065 105.092 18.8161C104.98 18.7273 104.88 18.6226 104.798 18.505C104.643 18.3448 104.515 18.1598 104.42 17.9576C104.337 17.6185 104.266 17.3728 104.21 17.2172C104.142 16.9629 104.113 16.6995 104.126 16.4365C104.132 16.2279 104.153 16.02 104.188 15.8144C104.21 15.6288 104.256 15.4469 104.324 15.2731ZM112.559 5.568C112.661 5.59178 112.759 5.62726 112.853 5.67376C112.945 5.71644 113.046 5.73771 113.147 5.73597C113.247 5.73149 113.348 5.74797 113.442 5.78437C113.535 5.82078 113.621 5.87632 113.692 5.94749C113.807 6.01073 113.907 6.09766 113.986 6.20256C114.021 6.25127 114.036 6.31109 114.029 6.37054C114.026 6.44321 114.04 6.51557 114.07 6.58206C114.113 6.64038 114.148 6.70418 114.175 6.7718C114.19 6.81224 114.209 6.87757 114.24 6.96155C114.262 7.12906 114.258 7.29888 114.231 7.46547C114.146 7.6422 114.048 7.81177 113.936 7.9725C113.911 7.99734 113.889 8.02561 113.871 8.05649C113.857 8.08848 113.836 8.11707 113.81 8.14047C113.761 8.18106 113.704 8.21074 113.642 8.22757C113.57 8.2507 113.5 8.27876 113.432 8.31156L113.243 8.50131C113.187 8.55882 113.124 8.60805 113.054 8.6475L112.435 8.90257L111.934 9.027L110.797 9.40649L110.209 9.66156C110.102 9.70361 109.989 9.73182 109.875 9.74555C109.803 9.76868 109.733 9.79674 109.664 9.82954L109.497 9.91352C109.426 9.93806 109.352 9.95169 109.277 9.95396C109.242 9.95444 109.207 9.96213 109.174 9.97656C109.142 9.991 109.113 10.0119 109.089 10.0379C109.014 10.08 108.944 10.129 108.878 10.1841C108.815 10.2417 108.745 10.2918 108.671 10.3335C108.623 10.3581 108.573 10.3789 108.522 10.3957L108.377 10.4579C108.283 10.5008 108.18 10.5196 108.077 10.5125C107.975 10.5055 107.875 10.4728 107.788 10.4174C107.737 10.39 107.68 10.3751 107.621 10.3739C107.562 10.3742 107.504 10.3604 107.451 10.3335C107.373 10.2841 107.314 10.2095 107.284 10.1219C107.26 10.0419 107.216 9.96917 107.157 9.91041C107.066 9.8295 106.995 9.7283 106.95 9.6149C106.919 9.53092 106.891 9.44693 106.863 9.36295C106.835 9.27896 106.807 9.17942 106.779 9.06744C106.781 9.01477 106.767 8.96283 106.739 8.91813C106.71 8.87498 106.695 8.82396 106.696 8.77193C106.705 8.56251 106.733 8.35435 106.779 8.14981C106.819 8.07923 106.869 8.01522 106.928 7.96006L107.073 7.81386C107.157 7.72987 107.262 7.63033 107.383 7.51835C107.495 7.42464 107.588 7.30937 107.655 7.17929C107.799 7.03536 107.953 6.90228 108.117 6.78114C108.27 6.66364 108.44 6.57029 108.621 6.50429C108.733 6.44856 108.853 6.41378 108.977 6.40164C109.114 6.38393 109.249 6.34838 109.377 6.29588C109.431 6.26788 109.481 6.23227 109.525 6.19012C109.567 6.14636 109.616 6.11053 109.671 6.08436C109.788 6.03573 109.908 5.99316 110.03 5.95682C110.151 5.92084 110.269 5.87826 110.386 5.82929C110.408 5.80617 110.438 5.79182 110.469 5.78885C110.514 5.78262 110.557 5.76784 110.596 5.7453C110.701 5.69146 110.814 5.65571 110.931 5.63954C111.043 5.62634 111.155 5.60556 111.265 5.57733C111.374 5.54559 111.488 5.53091 111.602 5.53378C111.755 5.50674 111.909 5.49321 112.064 5.49334C112.127 5.4936 112.19 5.5009 112.252 5.51512C112.324 5.51512 112.413 5.54933 112.525 5.57733L112.559 5.568ZM116.707 35.8187C116.677 35.943 116.663 36.0704 116.664 36.1982C116.67 36.316 116.64 36.4329 116.58 36.5341C116.573 36.5858 116.559 36.6362 116.537 36.6835C116.515 36.7296 116.502 36.779 116.497 36.8297C116.446 36.8975 116.417 36.9786 116.413 37.063C116.413 37.1287 116.398 37.1937 116.37 37.2527C116.31 37.3809 116.225 37.4953 116.119 37.5886C115.975 37.8148 115.806 38.0236 115.614 38.2108C115.38 38.4702 115.084 38.666 114.754 38.78C114.404 38.9075 114.076 39.0413 113.766 39.1813C113.616 39.2607 113.452 39.3103 113.283 39.3275C113.133 39.342 112.985 39.3776 112.844 39.4332C112.692 39.4832 112.545 39.5467 112.404 39.623C112.291 39.6884 112.171 39.7386 112.045 39.7723C111.838 39.7698 111.631 39.7553 111.426 39.7288C111.213 39.7131 111.012 39.6241 110.856 39.4768C110.745 39.3648 110.649 39.2715 110.565 39.2031C110.47 39.1186 110.398 39.0117 110.355 38.892C110.323 38.8185 110.308 38.7388 110.311 38.6587C110.316 38.5799 110.302 38.5011 110.271 38.4285C110.238 38.3049 110.223 38.177 110.228 38.049V37.9215C110.258 37.5549 110.389 37.2038 110.606 36.9074C110.66 36.8269 110.708 36.7427 110.751 36.6555C110.796 36.5688 110.846 36.4847 110.9 36.4035C111.049 36.1632 111.21 35.9307 111.383 35.7067C111.568 35.475 111.8 35.2852 112.064 35.1499C111.987 35.1047 111.901 35.0761 111.813 35.0659C111.728 35.039 111.679 34.9612 111.664 34.8326C111.655 34.7769 111.664 34.7196 111.691 34.6699C111.718 34.6203 111.761 34.5812 111.813 34.5589C111.869 34.5309 111.93 34.5029 112.002 34.4749C112.073 34.4469 112.135 34.4189 112.19 34.3909C112.32 34.3173 112.463 34.2737 112.611 34.2634H112.902C112.948 34.2381 112.999 34.2232 113.051 34.2199C113.116 34.216 113.179 34.2024 113.24 34.1794C113.491 34.1514 113.744 34.1514 113.995 34.1794L114.751 34.3909C114.852 34.4169 114.956 34.4305 115.06 34.4314C115.165 34.4334 115.269 34.448 115.37 34.4749L115.747 34.5589C115.859 34.5869 115.986 34.6149 116.125 34.6429C116.264 34.6709 116.435 34.8389 116.586 35.1499C116.666 35.3639 116.707 35.5903 116.707 35.8187ZM114.323 37.3274C114.368 37.3029 114.418 37.2891 114.469 37.2869C114.538 37.2746 114.603 37.2446 114.658 37.1998C114.7 37.1825 114.737 37.1534 114.763 37.1158C114.789 37.0783 114.826 37.0491 114.868 37.0318L114.995 36.9043C115.022 36.8753 115.022 36.8193 114.995 36.7363C114.977 36.6934 114.947 36.6567 114.908 36.6306C114.863 36.6007 114.821 36.5652 114.785 36.5248C114.765 36.4999 114.739 36.481 114.71 36.47C114.68 36.459 114.648 36.4564 114.618 36.4626C114.586 36.469 114.554 36.4666 114.524 36.4556C114.494 36.4446 114.467 36.4255 114.447 36.4004L114.196 36.1889L113.902 36.0209L113.652 35.9369C113.445 35.8116 113.217 35.7252 112.98 35.6818C112.894 35.7667 112.835 35.8748 112.81 35.9929C112.783 36.0945 112.77 36.199 112.769 36.304C112.768 36.4091 112.754 36.5136 112.726 36.615C112.697 36.6815 112.683 36.7539 112.686 36.8265C112.685 36.9123 112.67 36.9974 112.642 37.0785C112.642 37.1495 112.634 37.2203 112.621 37.29C112.608 37.3734 112.602 37.4577 112.602 37.542V37.881C112.602 37.993 112.67 38.049 112.81 38.049C112.932 37.9884 113.059 37.9394 113.19 37.9028C113.32 37.8628 113.446 37.8128 113.568 37.7535C113.619 37.6998 113.685 37.6629 113.757 37.6477C113.839 37.628 113.917 37.5921 113.986 37.542C114.03 37.5047 114.08 37.4762 114.135 37.458L114.323 37.3274ZM117.305 31.1248C117.347 31.1271 117.389 31.1208 117.428 31.1061C117.45 31.099 117.472 31.097 117.494 31.1003C117.516 31.1035 117.537 31.1119 117.555 31.1248C117.58 31.1036 117.596 31.0734 117.599 31.0408C117.603 30.996 117.617 30.9526 117.639 30.9133C117.61 30.9131 117.582 30.9067 117.555 30.8946C117.515 30.8774 117.472 30.8699 117.428 30.8728H117.221L116.967 30.9133C116.89 30.9136 116.814 30.9209 116.738 30.935C116.66 30.9506 116.58 30.943 116.506 30.9133V31.1061H116.546C116.576 31.1063 116.606 31.1138 116.633 31.1279C116.758 31.1472 116.884 31.1534 117.01 31.1466L117.305 31.1248ZM116.84 31.7469C116.868 31.7189 116.884 31.7096 116.884 31.7251C116.884 31.7407 116.899 31.7251 116.924 31.7034L116.84 31.5789H116.633C116.61 31.603 116.579 31.6174 116.546 31.6194V31.7283L116.633 31.8122L116.84 31.7469ZM116.673 30.3969H116.924C116.924 30.3679 116.917 30.3393 116.905 30.3129C116.891 30.2873 116.883 30.2584 116.884 30.2289L116.716 30.2694H116.673V30.3969ZM117.602 31.7034C117.63 31.7034 117.636 31.6816 117.62 31.6412C117.613 31.6233 117.612 31.6038 117.616 31.5851C117.619 31.5663 117.629 31.5491 117.642 31.5354L117.391 31.4514L117.264 31.4918H117.054L117.224 31.7034H117.602ZM117.097 30.2694V30.4373L117.264 30.3969L117.348 30.2694H117.097ZM119.112 31.5354V31.3674H118.945C118.789 31.3712 118.633 31.3566 118.481 31.3239L118.273 31.3674L117.936 31.4514L117.812 31.4918V31.5789L117.852 31.6629L118.273 31.6194C118.378 31.617 118.482 31.6035 118.583 31.5789C118.685 31.554 118.788 31.5394 118.893 31.5354H119.112ZM118.063 30.8604L118.147 30.6924H118.273L118.357 30.7764L118.23 30.8604H118.063ZM118.862 30.6924C118.885 30.7147 118.899 30.7445 118.902 30.7764C118.845 30.776 118.789 30.7833 118.735 30.7982C118.679 30.8107 118.622 30.8169 118.564 30.8168C118.592 30.7888 118.608 30.7702 118.608 30.7546C118.608 30.7391 118.623 30.7204 118.651 30.6924H118.862ZM118.735 31.8713H118.945L119.196 31.8309L119.323 31.8713L119.447 31.9989H118.688L118.735 31.8713ZM119.029 30.4809L118.902 30.3534H119.112V30.4809H119.029ZM119.112 30.6924L119.28 30.6489L119.363 30.7329C119.388 30.754 119.404 30.7842 119.407 30.8168H119.029L119.112 30.6924ZM119.363 30.4373C119.359 30.3935 119.345 30.3511 119.323 30.3129L119.49 30.2694H119.868L119.911 30.3534L119.828 30.3969L119.657 30.4373H119.363ZM119.447 31.8713C119.434 31.8611 119.424 31.8482 119.418 31.8338C119.411 31.8193 119.407 31.8034 119.407 31.7874H119.53C119.575 31.7833 119.618 31.7695 119.657 31.7469L119.447 31.8713ZM119.868 30.6084L119.741 30.7329L119.657 30.6924L119.447 30.6489V30.6084L119.53 30.5213H119.911L119.868 30.6084ZM119.741 31.3239C119.806 31.2495 119.897 31.2037 119.995 31.1963V31.2834L119.828 31.3674L119.741 31.3239ZM119.868 30.8168C119.876 30.7755 119.898 30.7382 119.93 30.7111L120.035 30.6084V30.8168H119.868ZM120.162 30.3969L119.995 30.4373V30.2694H120.205L120.162 30.3969ZM120.245 30.7329H120.112C120.112 30.6808 120.127 30.6298 120.156 30.5867C120.184 30.5431 120.199 30.5369 120.199 30.5649L120.245 30.7329ZM120.456 31.1559C120.461 31.1554 120.467 31.1561 120.472 31.158C120.477 31.1599 120.482 31.1628 120.485 31.1667C120.489 31.1705 120.492 31.1752 120.494 31.1803C120.496 31.1854 120.497 31.1909 120.496 31.1963V31.2834H120.162V31.1963L120.456 31.1559ZM120.456 29.9334L120.58 30.0579L120.54 30.1854L120.453 30.1729L120.326 30.1325L120.242 30.1729L120.286 30.005L120.369 29.9645L120.456 29.9334ZM120.58 30.3129C120.633 30.3392 120.691 30.353 120.75 30.3534V30.3969L120.707 30.4373H120.496C120.425 30.4403 120.354 30.4264 120.289 30.3969V30.3534L120.372 30.2694H120.422L120.58 30.3129ZM120.289 30.7329V30.6706C120.345 30.6706 120.372 30.6706 120.372 30.6489C120.372 30.6271 120.372 30.6302 120.413 30.6302V30.7951H120.372L120.289 30.7329ZM120.54 30.7329L120.496 30.6084L120.54 30.5649H120.623L120.54 30.7329ZM120.623 31.1124L120.79 31.1963H120.58L120.623 31.1124ZM120.623 31.3674H120.79V31.5789C120.735 31.5789 120.707 31.5852 120.707 31.5976C120.707 31.5976 120.679 31.5976 120.623 31.5789V31.3674ZM120.79 30.1418C120.754 30.1103 120.724 30.0717 120.703 30.0285C120.682 29.9852 120.669 29.9381 120.666 29.8899C120.699 29.887 120.729 29.8713 120.75 29.8463L120.877 30.0579L120.79 30.1418ZM120.666 30.7329V30.6084L120.707 30.5213L120.834 30.5649V30.6084L120.75 30.6924L120.666 30.7329ZM120.976 31.5354L120.892 31.5789V31.3674H121.016L120.976 31.5354ZM120.933 30.4373C120.988 30.3814 121.01 30.3471 120.995 30.3316C120.979 30.316 121.044 30.3129 121.183 30.3129L121.06 30.4373H120.933ZM120.933 30.5649H121.016V30.7951H120.933V30.5649ZM121.016 30.9444L121.06 30.9879C121.06 31.0159 121.06 31.0284 121.1 31.0284L120.933 31.0719L121.016 30.9444ZM120.933 31.1559H121.041C121.041 31.1279 121.041 31.1124 121.081 31.1124L121.252 31.1559V31.1963L121.208 31.2834C121.187 31.2677 121.163 31.2575 121.137 31.2537C121.111 31.2499 121.084 31.2526 121.06 31.2617C121.035 31.2699 121.01 31.2722 120.984 31.2684C120.959 31.2647 120.935 31.2549 120.914 31.2399L120.933 31.1559ZM121.27 30.0174L120.976 30.0579V29.8619L121.183 29.949L121.27 30.0174ZM121.143 31.3674C121.199 31.3674 121.227 31.3674 121.227 31.4079C121.233 31.4683 121.218 31.529 121.183 31.5789H121.041L121.081 31.4918L121.143 31.3674ZM121.1 30.8604C121.1 30.8324 121.137 30.8324 121.205 30.8604C121.273 30.8884 121.31 30.9164 121.31 30.9444H121.227L121.183 30.9879L121.1 30.8604ZM121.143 30.5493H121.31V30.7173H121.143V30.5493ZM121.394 30.2383C121.378 30.2376 121.362 30.2336 121.348 30.2267C121.334 30.2197 121.321 30.2099 121.31 30.1978L121.227 30.1107H121.394V30.2383ZM121.394 30.9973L121.354 30.9568V30.8293C121.425 30.821 121.498 30.8351 121.561 30.8697L121.521 30.9973H121.394ZM121.815 31.3083C121.744 31.3074 121.674 31.3001 121.604 31.2865C121.535 31.2753 121.464 31.2691 121.394 31.2679L121.354 31.2243L121.394 31.0968C121.394 31.1248 121.443 31.1403 121.543 31.1403C121.635 31.1407 121.727 31.1543 121.815 31.1808V31.3083ZM121.354 31.3519H121.437V31.4359H121.351L121.354 31.3519ZM121.521 30.1263C121.544 30.1247 121.567 30.1278 121.589 30.1352C121.61 30.1427 121.631 30.1545 121.648 30.1698V30.2974H121.478V30.1729L121.521 30.1263ZM121.478 30.5058L121.648 30.5493V30.5929C121.648 30.6209 121.62 30.6333 121.561 30.6333H121.478V30.5058ZM121.688 31.3519L121.648 31.4359H121.521V31.3519H121.688ZM121.648 31.0408V30.9568H121.731V30.9133C121.764 30.9162 121.794 30.9318 121.815 30.9568V31.1061L121.648 31.0408ZM121.815 30.7017H122.025V30.7857H121.815V30.7017ZM121.982 30.6178L121.858 30.4498L121.982 30.3658L122.109 30.4062L122.193 30.5773L122.066 30.6178H121.982ZM122.193 31.2088V31.4203C122.157 31.4213 122.121 31.4287 122.087 31.4421C122.053 31.453 122.018 31.4593 121.982 31.4607V31.2523L122.193 31.2088ZM122.443 31.2928C122.433 31.2807 122.42 31.2709 122.406 31.2639C122.391 31.257 122.376 31.253 122.36 31.2523C122.327 31.2494 122.297 31.2338 122.276 31.2088V31.0812H122.443V31.2928Z" fill="#2F6780"/>
<path d="M135.498 36.5995C135.314 36.5936 135.131 36.6146 134.953 36.6617C134.814 36.7021 134.659 36.7519 134.492 36.8079C134.281 36.881 134.063 36.9311 133.842 36.9572C133.607 36.9852 133.375 37.0342 133.148 37.1034C133.074 37.1303 132.995 37.145 132.916 37.1469C132.838 37.148 132.761 37.1617 132.687 37.1874L132.226 37.2931C132.045 37.3382 131.862 37.3735 131.678 37.3989C131.483 37.4279 131.286 37.4352 131.09 37.4207C130.894 37.4077 130.698 37.415 130.505 37.4425C130.307 37.4704 130.112 37.5047 129.916 37.5482C129.721 37.5918 129.508 37.626 129.297 37.654C129.138 37.6821 128.974 37.6821 128.814 37.654C128.627 37.6251 128.438 37.6105 128.248 37.6104C128.085 37.6139 127.923 37.6347 127.765 37.6726C127.606 37.7173 127.437 37.7108 127.282 37.654C126.967 37.6099 126.656 37.5391 126.353 37.4425C126.063 37.3413 125.782 37.2143 125.514 37.063C125.428 37.007 125.323 36.9416 125.205 36.8732C124.96 36.679 124.75 36.4432 124.586 36.1764C124.446 36.006 124.352 35.8025 124.313 35.5854C124.291 35.4414 124.256 35.2998 124.208 35.1624C124.152 34.9482 124.152 34.7233 124.208 34.5091C124.234 34.3649 124.291 34.228 124.375 34.1079C124.457 34.0061 124.564 33.9269 124.685 33.8777C124.747 33.8636 124.81 33.8563 124.874 33.8559C125.033 33.8275 125.195 33.8202 125.357 33.8341C125.527 33.8444 125.693 33.8956 125.839 33.9835C126.062 34.0954 126.245 34.1794 126.384 34.2354C126.584 34.3052 126.792 34.3481 127.003 34.3629C127.194 34.3792 127.383 34.4073 127.57 34.4469C127.856 34.4775 128.143 34.4911 128.431 34.4874C128.732 34.4901 129.034 34.4766 129.335 34.4469L129.796 34.4034C129.916 34.3967 130.036 34.3758 130.152 34.3412C130.279 34.3107 130.4 34.2603 130.511 34.1919C130.269 33.9555 130.06 33.6864 129.892 33.3924C129.819 33.2597 129.719 33.1441 129.598 33.0534C129.419 32.8873 129.275 32.6862 129.177 32.4624C129.097 32.2765 129.028 32.0865 128.969 31.8931C128.929 31.7529 128.872 31.6181 128.799 31.4918C128.485 31.0922 128.296 30.6086 128.254 30.1014C128.226 29.9614 128.198 29.7903 128.171 29.5944C128.143 29.3984 128.127 29.2833 128.127 29.2553C128.123 29.1465 128.124 29.0374 128.13 28.9287C128.144 28.8027 128.152 28.676 128.152 28.5492C128.152 28.4854 128.144 28.4217 128.13 28.3595C128.116 28.2972 128.109 28.2336 128.109 28.1697V27.2739C128.107 27.1102 128.086 26.9474 128.047 26.7886C128.006 26.6017 127.985 26.4108 127.985 26.2194C127.99 26.1132 128.011 26.0085 128.047 25.9083C128.088 25.7861 128.136 25.6666 128.192 25.5506C128.23 25.4099 128.312 25.2847 128.424 25.1929C128.522 25.1215 128.626 25.0581 128.734 25.0031C128.757 24.9769 128.787 24.9571 128.82 24.9457C128.853 24.9342 128.888 24.9315 128.923 24.9378C129 24.9531 129.079 24.9455 129.152 24.916C129.211 24.8911 129.263 24.86 129.322 24.832C129.389 24.8037 129.46 24.79 129.533 24.7916C129.652 24.7934 129.771 24.7861 129.889 24.7698C129.979 24.7569 130.07 24.7496 130.161 24.748C130.232 24.7495 130.302 24.7651 130.367 24.794C130.431 24.8228 130.49 24.8643 130.539 24.916C130.642 25.0293 130.755 25.1334 130.876 25.2271C130.959 25.285 131.051 25.3282 131.149 25.3546C131.245 25.3826 131.337 25.4946 131.421 25.6937C131.499 25.7928 131.556 25.9072 131.588 26.0296L131.755 26.5366C131.805 26.6371 131.847 26.7411 131.882 26.8477C131.914 26.9567 131.929 27.0701 131.926 27.1837C131.924 27.2906 131.945 27.3966 131.987 27.4947C132.027 27.5806 132.048 27.6739 132.049 27.7684C132.052 27.8961 132.066 28.0231 132.093 28.1479C132.121 28.2872 132.135 28.4289 132.136 28.571C132.136 28.7949 132.136 29.0127 132.114 29.2242C132.093 29.4357 132.093 29.6535 132.093 29.8774C132.093 30.0042 132.1 30.1309 132.114 30.2569C132.119 30.3773 132.156 30.4943 132.22 30.596C132.275 30.7071 132.304 30.8296 132.303 30.9537C132.313 31.122 132.355 31.2869 132.427 31.439C132.462 31.5144 132.491 31.5924 132.514 31.6723C132.533 31.7519 132.561 31.8291 132.597 31.9025C132.673 32.0298 132.736 32.1641 132.786 32.3037C132.813 32.4051 132.863 32.4988 132.932 32.5775L133.477 33.128C133.602 33.3099 133.759 33.4671 133.941 33.5915C134.018 33.5928 134.094 33.6001 134.17 33.6133C134.26 33.6252 134.351 33.6314 134.442 33.632L135.031 33.5915C135.319 33.5487 135.612 33.5498 135.9 33.5946C136.213 33.6546 136.535 33.6546 136.848 33.5946C136.943 33.5706 137.041 33.5571 137.139 33.5542C137.238 33.5532 137.337 33.5386 137.433 33.5106C137.631 33.5106 137.897 33.5106 138.231 33.4702C138.482 33.4414 138.736 33.4414 138.987 33.4702C139.154 33.4702 139.324 33.4702 139.491 33.492C139.659 33.5137 139.829 33.5106 139.996 33.5106C140.073 33.511 140.15 33.5183 140.225 33.5324C140.303 33.548 140.384 33.5404 140.457 33.5106C140.541 33.5087 140.625 33.5025 140.708 33.492C140.811 33.4773 140.914 33.47 141.018 33.4702H141.312C141.407 33.4399 141.506 33.4252 141.606 33.4267H141.878C141.971 33.4262 142.063 33.4409 142.151 33.4702L142.488 33.5106H142.822C142.937 33.5106 143.116 33.5106 143.37 33.5542C143.624 33.5977 143.816 33.6102 143.959 33.6382L144.082 33.7222L143.581 33.7657L143.454 33.9772L143.37 34.0612C143.305 34.0654 143.239 34.0503 143.181 34.0177C143.152 34.0036 143.12 33.9963 143.087 33.9963C143.054 33.9963 143.022 34.0036 142.993 34.0177C142.953 34.0434 142.908 34.0606 142.861 34.0681C142.814 34.0756 142.766 34.0733 142.72 34.0612C142.691 34.0473 142.658 34.0401 142.626 34.0401C142.593 34.0401 142.561 34.0473 142.531 34.0612C142.406 34.0324 142.276 34.0324 142.151 34.0612C142.067 34.0892 141.971 34.1172 141.86 34.1452C141.69 34.1382 141.521 34.1518 141.355 34.1856H140.999C140.963 34.1857 140.927 34.1935 140.894 34.2085C140.861 34.2235 140.831 34.2454 140.807 34.2727L140.977 34.3132H141.228C141.333 34.3223 141.439 34.3085 141.538 34.2727H141.915C141.995 34.3045 142.081 34.3183 142.166 34.3132V34.3972L142.126 34.4407L141.959 34.4811H141.705L141.2 34.5682L141.287 34.6522L141.327 34.7767L141.163 34.8389L141.29 34.9633H141.501C141.56 34.9385 141.626 34.932 141.689 34.9446C141.823 34.9548 141.957 34.9474 142.089 34.9229C142.132 34.9199 142.176 34.9274 142.216 34.9446C142.314 34.9546 142.414 34.9472 142.51 34.9229C142.51 34.9509 142.565 34.9633 142.677 34.9633C142.708 34.936 142.745 34.9178 142.786 34.9107C142.826 34.9035 142.868 34.9078 142.906 34.9229C143.113 34.9482 143.323 34.9334 143.525 34.8793L143.568 34.8389H143.903L144.113 34.8793L144.03 35.0068C143.907 35.0212 143.787 35.0494 143.671 35.0908C143.608 35.1194 143.541 35.1342 143.472 35.1342C143.404 35.1342 143.337 35.1194 143.274 35.0908C143.246 35.0908 143.188 35.0908 143.104 35.1126C143.044 35.1178 142.986 35.1393 142.937 35.1748L142.81 35.2588V35.3863L142.853 35.4299C142.889 35.4258 142.926 35.4323 142.959 35.4485C142.959 35.4485 143.008 35.4486 143.064 35.4299C143.141 35.4343 143.218 35.427 143.293 35.4081C143.369 35.3911 143.447 35.3838 143.525 35.3863H143.903V35.4299L143.863 35.5139L143.776 35.6414H143.736V35.5543L143.485 35.6818L143.442 35.7658H143.188V35.6818H143.147C143.089 35.6818 143.032 35.6679 142.98 35.6414C142.954 35.6275 142.925 35.6203 142.895 35.6203C142.865 35.6203 142.836 35.6275 142.81 35.6414L142.603 35.6818L142.349 35.7254H141.887L141.847 35.8498C141.793 35.9055 141.728 35.949 141.655 35.9774C141.626 35.9912 141.595 35.9984 141.562 35.9984C141.53 35.9984 141.499 35.9912 141.47 35.9774C141.376 36.0079 141.284 36.0432 141.194 36.0831C141.122 36.1185 141.045 36.1396 140.965 36.1453C140.847 36.1735 140.724 36.1735 140.606 36.1453C140.505 36.1174 140.401 36.1038 140.296 36.1049C140.144 36.1333 139.99 36.1469 139.835 36.1453C139.666 36.1458 139.497 36.1604 139.33 36.1889C139.245 36.1884 139.16 36.1957 139.077 36.2107C138.994 36.2231 138.91 36.2293 138.826 36.2293C138.687 36.2293 138.547 36.2293 138.405 36.2511C138.262 36.2729 138.126 36.2884 137.987 36.3164C137.783 36.3575 137.576 36.3784 137.368 36.3786C137.093 36.3874 136.819 36.4228 136.551 36.4844L135.795 36.6119L135.498 36.5995ZM127.647 19.2143C127.703 19.0463 127.753 18.8845 127.796 18.7321C127.835 18.5809 127.884 18.4324 127.941 18.2873C127.997 18.1473 128.081 17.9514 128.192 17.6963C128.284 17.4936 128.388 17.2963 128.502 17.1053C128.669 16.8253 128.811 16.5858 128.963 16.3898C129.054 16.2214 129.166 16.0656 129.297 15.9263C129.394 15.7923 129.503 15.6674 129.622 15.5531C129.653 15.5251 129.691 15.5065 129.731 15.4993C129.772 15.4922 129.813 15.4968 129.851 15.5126C129.941 15.5389 130.034 15.5525 130.127 15.5531C130.217 15.5524 130.305 15.523 130.378 15.4691C130.422 15.4415 130.473 15.4269 130.525 15.4269C130.577 15.4269 130.628 15.4415 130.672 15.4691C130.856 15.5188 131.027 15.6056 131.176 15.7242L131.26 15.8486C131.335 16.067 131.384 16.2936 131.406 16.5236C131.413 16.7572 131.363 16.9891 131.26 17.1986C131.197 17.3778 131.112 17.5482 131.006 17.7056C130.895 17.8736 130.783 18.0571 130.672 18.2562L130.418 18.9312C130.326 19.202 130.298 19.4905 130.334 19.7742C130.331 19.909 130.37 20.0415 130.446 20.153C130.521 20.2646 130.629 20.3496 130.755 20.3963C130.85 20.4294 130.951 20.4369 131.05 20.4181C131.163 20.4101 131.275 20.3892 131.384 20.3559L132.099 20.2283L132.52 20.1443L132.898 19.9764L133.275 19.8488C133.453 19.781 133.635 19.7249 133.82 19.6809C134.022 19.628 134.23 19.5998 134.439 19.5969C134.599 19.5913 134.757 19.5554 134.904 19.4911C135.052 19.4253 135.206 19.3753 135.365 19.3418L135.699 19.3014L136.058 19.236C136.176 19.2212 136.295 19.2139 136.414 19.2143H136.959C137.144 19.2136 137.328 19.243 137.504 19.3014C137.601 19.3362 137.688 19.3938 137.758 19.4693C137.819 19.5363 137.89 19.593 137.968 19.6373C138.069 19.6674 138.174 19.6749 138.278 19.6591C138.322 19.6522 138.366 19.6542 138.41 19.6649C138.453 19.6756 138.493 19.6947 138.529 19.7213C138.607 19.7663 138.678 19.823 138.739 19.8893C138.898 19.9643 139.04 20.07 139.157 20.2003C139.22 20.2763 139.268 20.364 139.297 20.4585C139.326 20.553 139.337 20.6524 139.327 20.7509C139.326 20.8389 139.304 20.9254 139.262 21.0029L139.157 21.2144C139.135 21.2535 139.121 21.297 139.117 21.3419C139.114 21.3746 139.098 21.4047 139.074 21.4259C139.022 21.5403 138.952 21.6454 138.866 21.737C138.859 21.8172 138.837 21.8954 138.801 21.9672C138.761 22.0667 138.724 22.1445 138.696 22.2004C138.659 22.2963 138.593 22.378 138.507 22.4337L138.235 22.6235C138.067 22.7075 137.925 22.7759 137.773 22.8319C137.573 22.908 137.365 22.9653 137.154 23.003C137.045 23.0302 136.933 23.0438 136.82 23.0434C136.706 23.0443 136.593 23.0589 136.482 23.087C136.315 23.115 136.154 23.1367 136 23.1492C135.835 23.167 135.673 23.2024 135.517 23.2549L134.656 23.4665L133.966 23.6344L133.545 23.7184C133.393 23.7481 133.238 23.7627 133.083 23.762H132.662C132.422 23.82 132.176 23.8482 131.929 23.846C131.669 23.8458 131.41 23.8313 131.152 23.8024C130.96 23.7939 130.771 23.7658 130.585 23.7184L130.146 23.5505C130.046 23.5135 129.942 23.4925 129.836 23.4882C129.73 23.4826 129.626 23.4605 129.526 23.4229C129.395 23.3716 129.268 23.3081 129.149 23.2332C129.037 23.1647 128.923 23.0994 128.811 23.0434C128.681 22.966 128.555 22.8819 128.434 22.7915C128.321 22.7027 128.222 22.5979 128.14 22.4804C127.985 22.3193 127.858 22.1345 127.762 21.9329C127.678 21.5939 127.61 21.3481 127.554 21.1926C127.483 20.9389 127.454 20.6751 127.468 20.4118C127.474 20.2031 127.495 19.9951 127.533 19.7897C127.545 19.5935 127.583 19.3999 127.647 19.2143ZM135.879 9.51226C135.98 9.53654 136.079 9.57201 136.173 9.61802C136.264 9.66076 136.363 9.68204 136.464 9.68023C136.58 9.67486 136.696 9.69724 136.801 9.74555C136.879 9.78288 136.95 9.83221 137.012 9.89175C137.131 9.95329 137.237 10.0391 137.321 10.1437C137.355 10.1941 137.369 10.2548 137.362 10.3148C137.36 10.3867 137.374 10.4581 137.405 10.5232C137.447 10.5837 137.482 10.6483 137.51 10.7161L137.572 10.9058C137.6 11.0726 137.6 11.2429 137.572 11.4097C137.484 11.5877 137.381 11.7574 137.263 11.9168C137.237 11.9408 137.216 11.9692 137.201 12.0007C137.183 12.0316 137.161 12.0599 137.136 12.0847C137.087 12.1252 137.03 12.154 136.968 12.1687C136.896 12.1928 136.826 12.2219 136.758 12.2558L136.569 12.4456C136.514 12.5038 136.45 12.5531 136.38 12.5918L135.761 12.8437L135.257 12.9713L134.124 13.3508L133.535 13.6058C133.428 13.6479 133.316 13.6761 133.201 13.6898C133.129 13.7124 133.058 13.7405 132.991 13.7738L132.82 13.8578C132.747 13.8835 132.669 13.8971 132.591 13.8982C132.555 13.8991 132.52 13.9073 132.488 13.9222C132.455 13.9372 132.426 13.9587 132.402 13.9853C132.327 14.0266 132.257 14.0756 132.192 14.1315C132.128 14.1892 132.057 14.2393 131.981 14.2808C131.934 14.304 131.885 14.3248 131.836 14.343C131.785 14.3607 131.735 14.3814 131.687 14.4053C131.593 14.4466 131.491 14.4645 131.388 14.4574C131.286 14.4504 131.187 14.4186 131.099 14.3648C131.047 14.3374 130.99 14.3225 130.932 14.3213C130.874 14.3212 130.816 14.3074 130.765 14.2808C130.687 14.2307 130.629 14.1564 130.598 14.0693C130.571 13.9904 130.528 13.9182 130.471 13.8578C130.38 13.776 130.308 13.6751 130.26 13.5623L130.177 13.3103C130.149 13.2232 130.121 13.1268 130.093 13.0148C130.093 12.9618 130.078 12.9099 130.05 12.8655C130.022 12.8221 130.008 12.771 130.009 12.7193C130.019 12.5099 130.047 12.3017 130.093 12.0972C130.132 12.0273 130.181 11.9634 130.238 11.9074L130.387 11.7612C130.471 11.6772 130.576 11.5777 130.697 11.4502C130.807 11.3547 130.9 11.2398 130.969 11.1111C131.113 10.9672 131.267 10.8341 131.43 10.713C131.583 10.5942 131.753 10.5008 131.935 10.4361C132.047 10.3804 132.167 10.3446 132.291 10.3303C132.428 10.3153 132.563 10.2807 132.69 10.2277C132.744 10.2004 132.793 10.1647 132.836 10.1219C132.879 10.0781 132.929 10.0423 132.984 10.0162C133.101 9.96762 133.22 9.92506 133.34 9.88864C133.462 9.85364 133.58 9.81105 133.696 9.76111C133.707 9.74902 133.72 9.73921 133.734 9.73226C133.748 9.72531 133.764 9.72136 133.78 9.72067C133.825 9.71491 133.868 9.7001 133.907 9.67712C134.013 9.62322 134.127 9.58748 134.244 9.57136C134.357 9.55816 134.469 9.53738 134.579 9.50915C134.688 9.47697 134.802 9.46227 134.916 9.4656C135.068 9.43701 135.223 9.42347 135.377 9.42516C135.441 9.42556 135.504 9.43286 135.566 9.44693L135.839 9.50915L135.879 9.51226ZM140.033 39.763C140.004 39.8873 139.991 40.0148 139.993 40.1425C139.999 40.2603 139.97 40.3772 139.909 40.4784C139.902 40.5301 139.888 40.5804 139.866 40.6277C139.844 40.6738 139.831 40.7233 139.826 40.7739C139.774 40.8408 139.743 40.9223 139.739 41.0072C139.74 41.0727 139.727 41.1377 139.699 41.197C139.639 41.3259 139.553 41.4404 139.445 41.5329C139.301 41.7585 139.133 41.9671 138.943 42.155C138.708 42.4139 138.412 42.6096 138.083 42.7243C137.733 42.8518 137.402 42.9825 137.095 43.1255C136.945 43.205 136.781 43.2546 136.612 43.2717C136.462 43.2859 136.314 43.3215 136.173 43.3775C136.02 43.4275 135.872 43.491 135.73 43.5672C135.618 43.6313 135.498 43.6815 135.374 43.7166C135.167 43.7139 134.96 43.6994 134.755 43.673C134.543 43.6567 134.343 43.5677 134.189 43.4211C134.077 43.3091 133.978 43.2158 133.894 43.1473C133.801 43.062 133.728 42.9553 133.684 42.8363C133.653 42.7625 133.639 42.6828 133.644 42.603C133.647 42.5239 133.632 42.4451 133.6 42.3728C133.568 42.249 133.555 42.1211 133.56 41.9933V41.8657C133.589 41.4988 133.72 41.1474 133.938 40.8517C133.992 40.7712 134.041 40.687 134.083 40.5997C134.127 40.5124 134.177 40.4282 134.232 40.3478C134.381 40.1075 134.542 39.8749 134.715 39.651C134.888 39.4167 135.11 39.2225 135.365 39.0817C135.287 39.0365 135.201 39.0079 135.111 38.9978C135.027 38.9698 134.981 38.892 134.966 38.7645C134.955 38.709 134.963 38.6515 134.99 38.6016C135.016 38.5517 135.059 38.5126 135.111 38.4907C135.167 38.4627 135.232 38.4347 135.303 38.4067L135.489 38.3228C135.617 38.2484 135.762 38.2048 135.91 38.1952H136.21C136.256 38.1695 136.306 38.1546 136.359 38.1517C136.423 38.1472 136.487 38.1336 136.547 38.1112C136.798 38.0832 137.052 38.0832 137.303 38.1112L138.058 38.3228C138.159 38.3487 138.263 38.3623 138.368 38.3632C138.472 38.3652 138.576 38.3798 138.677 38.4067C138.817 38.4347 138.943 38.4627 139.055 38.4907C139.166 38.5187 139.293 38.5467 139.433 38.5747C139.572 38.6027 139.742 38.7707 139.897 39.0817C139.983 39.2986 140.029 39.5295 140.033 39.763ZM137.64 41.281C137.686 41.2553 137.737 41.2404 137.789 41.2374C137.858 41.226 137.923 41.1971 137.978 41.1534C138.02 41.1361 138.057 41.107 138.083 41.0694C138.108 41.0303 138.145 41.0007 138.188 40.9854L138.312 40.8579C138.339 40.8289 138.339 40.7729 138.312 40.6899C138.295 40.6474 138.266 40.6106 138.228 40.5842C138.181 40.5554 138.138 40.5198 138.101 40.4784C138.082 40.4535 138.056 40.4345 138.027 40.4236C137.997 40.4126 137.965 40.41 137.934 40.4162C137.903 40.4217 137.872 40.4188 137.842 40.4079C137.813 40.3969 137.787 40.3783 137.767 40.354L137.513 40.1425L137.222 39.9745L136.968 39.8874C136.761 39.7637 136.534 39.6784 136.297 39.6354C136.212 39.7207 136.154 39.8287 136.13 39.9465C136.103 40.0429 136.089 40.1421 136.086 40.242C136.086 40.347 136.072 40.4515 136.046 40.5531C136.015 40.6193 136.001 40.6917 136.003 40.7646C136.003 40.8502 135.989 40.9353 135.962 41.0165C135.96 41.0875 135.953 41.1581 135.941 41.2281C135.926 41.3112 135.919 41.3956 135.919 41.48V41.8191C135.919 41.9311 135.99 41.9871 136.13 41.9871C136.251 41.9269 136.377 41.878 136.507 41.8409C136.637 41.8013 136.763 41.7514 136.885 41.6916C136.937 41.639 137.002 41.6023 137.074 41.5858C137.157 41.5654 137.236 41.5295 137.306 41.48C137.346 41.4347 137.394 41.3978 137.448 41.3712C137.523 41.3369 137.584 41.3089 137.64 41.281ZM140.621 35.0784C140.665 35.0813 140.708 35.0738 140.748 35.0566C140.77 35.0513 140.792 35.0504 140.814 35.0542C140.836 35.0579 140.857 35.0662 140.875 35.0784C140.887 35.0679 140.897 35.055 140.904 35.0405C140.911 35.0261 140.915 35.0104 140.915 34.9944C140.922 34.9495 140.936 34.9062 140.959 34.8669C140.93 34.8666 140.901 34.8603 140.875 34.8482C140.835 34.8313 140.792 34.8239 140.748 34.8264H140.544L140.293 34.8669C140.215 34.8674 140.138 34.8747 140.061 34.8886C139.984 34.9041 139.905 34.8965 139.832 34.8669V35.0379H139.872C139.901 35.0382 139.93 35.0445 139.956 35.0566C140.08 35.0794 140.207 35.0867 140.333 35.0784H140.621ZM140.16 35.7005C140.188 35.6725 140.203 35.6632 140.203 35.6787C140.203 35.6943 140.203 35.6787 140.244 35.657L140.16 35.5294H139.95C139.94 35.5424 139.927 35.553 139.913 35.5605C139.898 35.568 139.882 35.5723 139.866 35.573V35.657L139.95 35.7409L140.16 35.7005ZM139.993 34.3505H140.234C140.235 34.3211 140.227 34.2921 140.213 34.2665C140.201 34.2391 140.194 34.2094 140.194 34.1794L140.024 34.223H139.984L139.993 34.3505ZM140.922 35.657C140.95 35.657 140.956 35.6352 140.943 35.5947C140.936 35.577 140.933 35.5573 140.937 35.5384C140.941 35.5195 140.951 35.5022 140.965 35.489L140.711 35.405L140.587 35.4454H140.377L140.544 35.657H140.922ZM140.417 34.223V34.3909L140.587 34.3505L140.671 34.223H140.417ZM142.432 35.489V35.321H142.265C142.11 35.3246 141.955 35.31 141.804 35.2775L141.593 35.321L141.259 35.405L141.132 35.4454V35.5294L141.172 35.6165L141.593 35.573C141.698 35.5705 141.802 35.5559 141.903 35.5294C142.004 35.5051 142.108 35.4915 142.213 35.489H142.432ZM141.377 34.8389L141.463 34.6709H141.587L141.671 34.7549L141.547 34.8389H141.377ZM142.175 34.6709C142.2 34.6921 142.216 34.7222 142.219 34.7549C142.161 34.7548 142.104 34.761 142.048 34.7735C141.994 34.7884 141.938 34.7958 141.881 34.7953C141.909 34.7673 141.925 34.7487 141.925 34.7331C141.925 34.7176 141.925 34.6989 141.965 34.6709H142.175ZM142.048 35.8498H142.259L142.513 35.8094L142.637 35.8498L142.764 35.9774H142.008L142.048 35.8498ZM142.343 34.4594L142.219 34.3318H142.426V34.4594H142.343ZM142.426 34.6709L142.596 34.6273L142.68 34.7113C142.692 34.7219 142.702 34.7347 142.709 34.7492C142.716 34.7636 142.72 34.7793 142.72 34.7953H142.343L142.426 34.6709ZM142.68 34.4158C142.674 34.3718 142.659 34.3295 142.637 34.2914L142.804 34.2479H143.181L143.225 34.3318L143.141 34.3754L142.974 34.4158H142.68ZM142.764 35.8498C142.739 35.8286 142.723 35.7985 142.72 35.7658H142.847C142.892 35.7618 142.935 35.748 142.974 35.7254L142.764 35.8498ZM143.181 34.5869L143.058 34.7113L142.974 34.6709L142.764 34.6273V34.5869L142.847 34.4998H143.225L143.181 34.5869ZM143.058 35.3024C143.089 35.2654 143.127 35.2351 143.17 35.2131C143.213 35.1912 143.26 35.1782 143.308 35.1748V35.2588L143.141 35.3459L143.058 35.3024ZM143.181 34.7953C143.181 34.7673 143.203 34.7331 143.246 34.6896L143.352 34.5869V34.7953H143.181ZM143.491 34.3754L143.321 34.4158V34.2479H143.531L143.491 34.3754ZM143.575 34.7113H143.448C143.445 34.6591 143.461 34.6076 143.491 34.5651C143.516 34.5216 143.531 34.5154 143.531 34.5434L143.575 34.7113ZM143.782 35.1344C143.81 35.1344 143.825 35.1344 143.825 35.1748V35.2588H143.491V35.1499L143.782 35.1344ZM143.782 33.9088L143.909 34.0363L143.869 34.1639L143.782 34.1203L143.658 34.0799L143.575 34.1203L143.615 33.9523L143.698 33.9088H143.782ZM143.909 34.2914C143.961 34.3179 144.018 34.3318 144.076 34.3318V34.3754L144.036 34.4158H143.825C143.753 34.4187 143.681 34.4049 143.615 34.3754V34.3318L143.698 34.2479H143.742L143.909 34.2914ZM143.615 34.7113V34.6273C143.671 34.6273 143.698 34.6273 143.698 34.6056C143.698 34.5838 143.714 34.5869 143.742 34.5869V34.7549H143.698L143.615 34.7113ZM143.869 34.7113L143.825 34.5869L143.869 34.5434H143.949L143.869 34.7113ZM143.952 35.0908L144.119 35.1748H143.909L143.952 35.0908ZM143.952 35.3459H144.119V35.5543C144.064 35.5543 144.036 35.5543 144.036 35.5761C144.036 35.5979 144.008 35.5761 143.952 35.5543V35.3459ZM144.119 34.1203C144.083 34.0889 144.053 34.0505 144.031 34.0072C144.009 33.9639 143.996 33.9167 143.993 33.8684C144.025 33.8655 144.055 33.8498 144.076 33.8248L144.203 34.0363L144.119 34.1203ZM143.993 34.7113V34.5869L144.036 34.4998L144.16 34.5434V34.5869L144.076 34.6709L143.993 34.7113ZM144.287 35.5139L144.203 35.5543V35.3459H144.33L144.287 35.5139ZM144.246 34.4158C144.302 34.3598 144.321 34.3256 144.308 34.3101C144.296 34.2945 144.358 34.2914 144.497 34.2914L144.37 34.4158H144.246ZM144.246 34.5434H144.33V34.7549H144.246V34.5434ZM144.33 34.9229L144.37 34.9633C144.369 34.9693 144.369 34.9754 144.371 34.9812C144.373 34.987 144.376 34.9923 144.38 34.9965C144.385 35.0008 144.39 35.004 144.396 35.0058C144.402 35.0076 144.408 35.008 144.414 35.0068L144.246 35.0504L144.33 34.9229ZM144.246 35.1344H144.37C144.37 35.1285 144.371 35.1227 144.373 35.1172C144.375 35.1117 144.378 35.1067 144.382 35.1025C144.386 35.0984 144.391 35.0952 144.396 35.0932C144.402 35.0912 144.408 35.0904 144.414 35.0908L144.581 35.1344V35.1499L144.54 35.2339C144.519 35.2196 144.494 35.2105 144.468 35.2073C144.443 35.2041 144.416 35.2068 144.392 35.2153C144.321 35.2153 144.274 35.2153 144.246 35.1935V35.1344ZM144.581 33.9959L144.287 34.0363V33.8248L144.497 33.9088L144.581 33.9959ZM144.454 35.3459C144.51 35.3459 144.54 35.3459 144.54 35.3863C144.547 35.4458 144.532 35.5056 144.497 35.5543H144.37L144.414 35.4703L144.454 35.3459ZM144.414 34.8389C144.414 34.8109 144.448 34.8109 144.519 34.8389C144.59 34.8669 144.624 34.8949 144.624 34.9229H144.54L144.497 34.9633L144.414 34.8389ZM144.454 34.5434H144.624V34.7113H144.454V34.5434ZM144.708 34.2323C144.675 34.2294 144.645 34.2138 144.624 34.1888L144.54 34.1048H144.708V34.2323ZM144.708 34.9913L144.664 34.9477V34.8389C144.737 34.8292 144.811 34.8434 144.875 34.8793L144.831 35.0068L144.708 34.9913ZM145.129 35.3024C145.058 35.3016 144.988 35.2943 144.918 35.2806C144.849 35.2687 144.778 35.2614 144.708 35.2588L144.664 35.2184L144.708 35.0908C144.708 35.1188 144.754 35.1344 144.853 35.1344C144.947 35.1332 145.04 35.1468 145.129 35.1748V35.3024ZM144.664 35.3459H144.748V35.4299H144.664V35.3459ZM144.831 34.1203C144.854 34.1187 144.878 34.1218 144.899 34.1293C144.921 34.1367 144.941 34.1485 144.958 34.1639V34.2914H144.791V34.1203H144.831ZM144.791 34.4998L144.958 34.5434V34.5869C144.958 34.6149 144.931 34.6273 144.875 34.6273H144.791V34.4998ZM145.002 35.3459L144.958 35.4299H144.831V35.3459H145.002ZM144.958 35.0348V34.9477H145.042V34.9073C145.075 34.9106 145.105 34.9248 145.129 34.9477V35.0348H144.958ZM145.129 34.6958H145.336V34.7798H145.129V34.6958ZM145.296 34.6118L145.169 34.4438L145.296 34.3598L145.42 34.4003L145.506 34.5714L145.379 34.6118H145.296ZM145.506 35.2028V35.4143C145.471 35.4152 145.435 35.4215 145.401 35.433C145.368 35.4464 145.332 35.4537 145.296 35.4548V35.2432L145.506 35.2028ZM145.757 35.2868C145.736 35.2618 145.706 35.2461 145.674 35.2432C145.658 35.2429 145.642 35.2392 145.627 35.2322C145.613 35.2252 145.6 35.2152 145.59 35.2028V35.0753H145.757V35.2868Z" fill="#2F6780"/>
</g>
<defs>
<clipPath id="clip0_496_959">
<rect width="145.745" height="50" fill="white"/>
</clipPath>
</defs>
</svg>
